<svg width="22" height="21" viewBox="0 0 22 21" fill="none" xmlns="http://www.w3.org/2000/svg">
<mask id="mask0_1275_406" style="mask-type:luminance" maskUnits="userSpaceOnUse" x="0" y="0" width="22" height="21">
<path d="M0.5 -3.05176e-05H21.5V21H0.5V-3.05176e-05Z" fill="white"/>
</mask>
<g mask="url(#mask0_1275_406)">
<path d="M1.33997 8.31756C1.33997 11.5261 3.92628 14.127 7.11671 14.127V18L10.9679 14.127H14.819C18.0095 14.127 20.66 11.5261 20.66 8.31756C20.66 5.10905 18.0095 2.50809 14.819 2.50809H7.11671C3.92628 2.50809 1.33997 5.10905 1.33997 8.31756Z" stroke="white" stroke-width="1.5" stroke-miterlimit="10" stroke-linecap="round" stroke-linejoin="round"/>
<path d="M6.15405 8.31755C6.15405 8.85228 6.58513 9.2858 7.11684 9.2858C7.64856 9.2858 8.07963 8.85228 8.07963 8.31755C8.07963 7.78282 7.64856 7.34931 7.11684 7.34931C6.58513 7.34931 6.15405 7.78282 6.15405 8.31755Z" fill="white"/>
<path d="M10.0051 8.31755C10.0051 8.85228 10.4362 9.2858 10.9679 9.2858C11.4996 9.2858 11.9307 8.85228 11.9307 8.31755C11.9307 7.78282 11.4996 7.34931 10.9679 7.34931C10.4362 7.34931 10.0051 7.78282 10.0051 8.31755Z" fill="white"/>
<path d="M13.8562 8.31755C13.8562 8.85228 14.2873 9.2858 14.819 9.2858C15.3507 9.2858 15.7818 8.85228 15.7818 8.31755C15.7818 7.78282 15.3507 7.34931 14.819 7.34931C14.2873 7.34931 13.8562 7.78282 13.8562 8.31755Z" fill="white"/>
</g>
</svg>
