<svg width="65" height="49" viewBox="0 0 65 49" fill="none" xmlns="http://www.w3.org/2000/svg">
<path d="M28.4375 0H65L63.6458 2.69097L65 5.38194V10.7639L63.6458 13.4549L65 16.1458V21.5278L63.6458 24.2187L65 26.9097V32.2917L63.6458 34.9826L65 37.6736V43.0556L63.6458 45.7465L65 48.4375H0L1.35417 45.7465L0 43.0556V37.6736L1.35417 34.9826L0 32.2917V26.9097L1.35417 24.2187L0 21.5278L28.4375 0Z" fill="#D6062F"/>
<path d="M0 43.0556H65V48.4375H0V43.0556ZM0 32.2917H65V37.6736H0V32.2917ZM0 21.5278H65V26.9097H0V21.5278ZM28.4375 10.7639H65V16.1458H28.4375V10.7639ZM28.4375 0H65V5.38194H28.4375V0Z" fill="white"/>
<path d="M0 0H28.4375V21.5278H0V0Z" fill="#2956B0"/>
<path d="M4.76325 1.26071L5.1932 2.57552H6.5846L5.45888 3.38819L5.88897 4.703L4.76325 3.89033L3.63753 4.703L4.06761 3.38819L2.94189 2.57552H4.3333L4.76325 1.26071ZM11.0669 1.26071L11.4968 2.57552H12.8882L11.7625 3.38819L12.1926 4.703L11.0669 3.89033L9.94131 4.703L10.3713 3.38819L9.24554 2.57552H10.6369L11.0669 1.26071ZM17.3705 1.26071L17.8005 2.57552H19.1919L18.0663 3.38819L18.4963 4.703L17.3705 3.89033L16.245 4.703L16.6749 3.38819L15.5492 2.57552H16.9406L17.3705 1.26071ZM23.6742 1.26071L24.1041 2.57552H25.4955L24.37 3.38819L24.7999 4.703L23.6742 3.89033L22.5486 4.703L22.9786 3.38819L21.8528 2.57552H23.2442L23.6742 1.26071ZM4.76325 6.44877L5.1932 7.76358H6.5846L5.45888 8.57612L5.88897 9.89093L4.76325 9.07839L3.63753 9.89093L4.06761 8.57612L2.94189 7.76358H4.3333L4.76325 6.44877ZM11.0669 6.44877L11.4968 7.76358H12.8882L11.7625 8.57612L12.1926 9.89093L11.0669 9.07839L9.94131 9.89093L10.3713 8.57612L9.24554 7.76358H10.6369L11.0669 6.44877ZM17.3705 6.44877L17.8005 7.76358H19.1919L18.0663 8.57612L18.4963 9.89093L17.3705 9.07839L16.245 9.89093L16.6749 8.57612L15.5492 7.76358H16.9406L17.3705 6.44877ZM23.6742 6.44877L24.1041 7.76358H25.4955L24.37 8.57612L24.7999 9.89093L23.6742 9.07839L22.5486 9.89093L22.9786 8.57612L21.8528 7.76358H23.2442L23.6742 6.44877ZM4.76325 11.6368L5.1932 12.9516H6.5846L5.45888 13.7642L5.88897 15.079L4.76325 14.2664L3.63753 15.079L4.06761 13.7642L2.94189 12.9516H4.3333L4.76325 11.6368ZM11.0669 11.6368L11.4968 12.9516H12.8882L11.7625 13.7642L12.1926 15.079L11.0669 14.2664L9.94131 15.079L10.3713 13.7642L9.24554 12.9516H10.6369L11.0669 11.6368ZM17.3705 11.6368L17.8005 12.9516H19.1919L18.0663 13.7642L18.4963 15.079L17.3705 14.2664L16.245 15.079L16.6749 13.7642L15.5492 12.9516H16.9406L17.3705 11.6368ZM23.6742 11.6368L24.1041 12.9516H25.4955L24.37 13.7642L24.7999 15.079L23.6742 14.2664L22.5486 15.079L22.9786 13.7642L21.8528 12.9516H23.2442L23.6742 11.6368ZM4.76325 16.8248L5.1932 18.1396H6.5846L5.45888 18.9522L5.88897 20.2671L4.76325 19.4544L3.63753 20.2671L4.06761 18.9522L2.94189 18.1396H4.3333L4.76325 16.8248ZM11.0669 16.8248L11.4968 18.1396H12.8882L11.7625 18.9522L12.1926 20.2671L11.0669 19.4544L9.94131 20.2671L10.3713 18.9522L9.24554 18.1396H10.6369L11.0669 16.8248ZM17.3705 16.8248L17.8005 18.1396H19.1919L18.0663 18.9522L18.4963 20.2671L17.3705 19.4544L16.245 20.2671L16.6749 18.9522L15.5492 18.1396H16.9406L17.3705 16.8248ZM23.6742 16.8248L24.1041 18.1396H25.4955L24.37 18.9522L24.7999 20.2671L23.6742 19.4544L22.5486 20.2671L22.9786 18.9522L21.8528 18.1396H23.2442L23.6742 16.8248Z" fill="white"/>
</svg>
