<svg width="65" height="50" viewBox="0 0 65 50" fill="none" xmlns="http://www.w3.org/2000/svg">
<path d="M0.537964 0.534882H16.5216V49.5H0.537964V0.534882Z" fill="#E2001A"/>
<path d="M16.5215 0.534882H48.4882V49.5H16.5215V0.534882Z" fill="white"/>
<path d="M48.4844 0.534882H64.4682V49.5H48.4844V0.534882ZM38.8888 30.7638L44.7041 26.0394C44.7227 26.0234 44.7373 26.0033 44.7467 25.9807C44.7562 25.958 44.7603 25.9335 44.7586 25.9091C44.7547 25.8845 44.745 25.8612 44.7303 25.8411C44.7157 25.821 44.6964 25.8047 44.6741 25.7935L43.456 25.2207C43.1294 25.1051 43.1294 25.0187 43.3018 24.402C43.3201 24.3378 43.3383 24.266 43.3566 24.1965L44.245 20.968C44.2519 20.9436 44.2521 20.9178 44.2457 20.8933C44.2393 20.8688 44.2264 20.8464 44.2085 20.8285C44.1914 20.8105 44.1699 20.7971 44.1462 20.7897C44.1224 20.7823 44.0972 20.7811 44.0728 20.7862L40.7034 21.4947C40.4425 21.5352 40.2958 21.3608 40.2665 21.2413L39.8327 19.7215C39.8257 19.6961 39.8117 19.6731 39.7922 19.6552C39.7727 19.6374 39.7485 19.6254 39.7225 19.6207C39.6974 19.6141 39.671 19.6148 39.6462 19.6226C39.6215 19.6303 39.5994 19.6449 39.5826 19.6647L36.9063 22.662C36.7228 22.8913 36.4179 22.987 36.2932 22.8326C36.2382 22.7629 36.1615 22.583 36.2527 22.1536L37.3946 16.0945C37.4 16.0672 37.3974 16.039 37.3869 16.0132C37.3765 15.9874 37.3587 15.9652 37.3359 15.9494C37.314 15.9331 37.288 15.9232 37.2607 15.9209C37.2335 15.9186 37.2062 15.924 37.1819 15.9366L35.6472 16.7314C35.4598 16.836 35.2873 16.8891 35.1476 16.8891C34.9717 16.8891 34.8427 16.8084 34.7477 16.6413L32.6332 12.697C32.5817 12.6016 32.4278 12.6016 32.3725 12.697L30.2622 16.6381C30.0895 16.9465 29.7811 16.9666 29.3555 16.73L27.8283 15.937C27.8033 15.9246 27.7754 15.9192 27.7475 15.9215C27.7197 15.9237 27.693 15.9336 27.6704 15.9499C27.6485 15.9665 27.6318 15.9889 27.6221 16.0146C27.6124 16.0402 27.61 16.0681 27.6154 16.095L28.7572 22.1557C28.8489 22.5834 28.7682 22.7634 28.7132 22.8331C28.5885 22.9873 28.2909 22.8956 28.1002 22.6569L25.4278 19.6649C25.4102 19.6453 25.3875 19.6309 25.3623 19.6232C25.3371 19.6154 25.3103 19.6147 25.2846 19.6209C25.2591 19.6268 25.2356 19.6392 25.2163 19.6569C25.197 19.6745 25.1826 19.6969 25.1744 19.7218L24.7411 21.2452C24.7156 21.348 24.5981 21.5024 24.3814 21.5024C24.3557 21.5024 24.33 21.5005 24.3155 21.497L20.9379 20.7866C20.9129 20.7813 20.8871 20.7824 20.8627 20.7898C20.8383 20.7972 20.8162 20.8107 20.7984 20.829C20.7652 20.8676 20.7507 20.9207 20.7652 20.9684L21.6499 24.1935C21.6719 24.2667 21.6866 24.3386 21.7086 24.4027C21.8776 25.0195 21.8811 25.1056 21.5397 25.2286L20.3356 25.7942C20.3131 25.8045 20.2935 25.8204 20.2788 25.8403C20.2641 25.8602 20.2546 25.8835 20.2513 25.908C20.248 25.9326 20.251 25.9576 20.26 25.9807C20.2689 26.0038 20.2836 26.0242 20.3026 26.0401L26.1211 30.7685C26.3118 30.9152 26.4 31.1738 26.3378 31.4017L25.8312 33.0702C25.8226 33.0933 25.8203 33.1183 25.8248 33.1426C25.8293 33.1668 25.8404 33.1894 25.8567 33.2078C25.8721 33.2265 25.8919 33.241 25.9144 33.25C25.9368 33.259 25.9612 33.2622 25.9852 33.2593C26.9324 33.1491 27.8503 33.0112 28.7348 32.8793C29.7149 32.7307 30.7318 32.5786 31.7855 32.4663C31.811 32.4663 31.8845 32.4995 31.9654 32.5798C32.0499 32.6626 32.0939 32.752 32.0939 32.7946L31.8297 38.9124C31.8297 38.9529 31.8407 38.9894 31.8699 39.0207C31.8957 39.05 31.9324 39.0647 31.9764 39.0647H32.9493C32.9685 39.0649 32.9875 39.061 33.0052 39.0535C33.0228 39.0459 33.0387 39.0347 33.0518 39.0207C33.0661 39.007 33.0774 38.9904 33.0849 38.9721C33.0925 38.9538 33.0962 38.9341 33.0958 38.9143L32.9418 32.8112C32.9418 32.7564 32.9893 32.6481 33.0813 32.558C33.1475 32.4923 33.203 32.4661 33.2243 32.4661C34.2781 32.5781 35.2913 32.7305 36.2712 32.8791C37.1594 33.0108 38.0734 33.1488 39.0245 33.259C39.0485 33.2614 39.0727 33.258 39.0951 33.249C39.1174 33.2401 39.1373 33.2258 39.153 33.2076C39.1685 33.1886 39.1793 33.1662 39.1845 33.1422C39.1896 33.1183 39.189 33.0934 39.1827 33.0697L38.6722 31.4014C38.6095 31.1731 38.6942 30.9145 38.8888 30.7638Z" fill="#E2001A"/>
</svg>
