<svg width="221" height="70" viewBox="0 0 221 70" fill="none" xmlns="http://www.w3.org/2000/svg">
<path d="M72.3345 69.4547V60.9291H78.229V61.8449H73.5249V64.7256H77.7874V65.6415H73.5249V69.4547H72.3345Z" fill="white"/>
<path d="M91.8556 60.9291H93.0461V66.574C93.0461 67.1568 92.8877 67.6771 92.5709 68.135C92.2573 68.5902 91.814 68.9496 91.2412 69.2132C90.6684 69.4741 89.9964 69.6045 89.2252 69.6045C88.454 69.6045 87.782 69.4741 87.2092 69.2132C86.6363 68.9496 86.1915 68.5902 85.8747 68.135C85.5611 67.6771 85.4043 67.1568 85.4043 66.574V60.9291H86.5947V66.4907C86.5947 66.907 86.7004 67.2775 86.9116 67.6022C87.1228 67.9241 87.4236 68.1781 87.814 68.364C88.2076 68.5472 88.678 68.6387 89.2252 68.6387C89.7724 68.6387 90.2428 68.5472 90.6364 68.364C91.03 68.1781 91.3308 67.9241 91.5388 67.6022C91.75 67.2775 91.8556 66.907 91.8556 66.4907V60.9291Z" fill="white"/>
<path d="M108.355 60.9291V69.4547H107.203L101.846 62.7607H101.75V69.4547H100.56V60.9291H101.712L107.088 67.6397H107.184V60.9291H108.355Z" fill="white"/>
<path d="M118.907 69.4547H115.874V60.9291H119.042C119.995 60.9291 120.811 61.0997 121.49 61.4411C122.168 61.7797 122.688 62.2667 123.05 62.9023C123.411 63.535 123.592 64.2927 123.592 65.1752C123.592 66.0633 123.41 66.8279 123.045 67.469C122.68 68.1073 122.149 68.5985 121.451 68.9426C120.754 69.284 119.906 69.4547 118.907 69.4547ZM117.064 68.5388H118.831C119.643 68.5388 120.317 68.4029 120.851 68.1309C121.386 67.8589 121.784 67.4717 122.047 66.9694C122.309 66.4671 122.44 65.869 122.44 65.1752C122.44 64.487 122.311 63.8944 122.051 63.3977C121.792 62.8981 121.405 62.5151 120.89 62.2487C120.375 61.9795 119.733 61.8449 118.965 61.8449H117.064V68.5388Z" fill="white"/>
<path d="M136.102 63.0605C136.044 62.6386 135.81 62.3111 135.401 62.078C134.991 61.8449 134.489 61.7283 133.894 61.7283C133.458 61.7283 133.078 61.7894 132.751 61.9115C132.428 62.0336 132.175 62.2015 131.993 62.4152C131.814 62.6289 131.724 62.8717 131.724 63.1437C131.724 63.3713 131.786 63.567 131.911 63.7307C132.039 63.8917 132.202 64.0263 132.401 64.1345C132.599 64.24 132.807 64.3274 133.025 64.3968C133.242 64.4634 133.442 64.5175 133.625 64.5591L134.623 64.7922C134.879 64.8505 135.164 64.931 135.478 65.0337C135.794 65.1364 136.097 65.2765 136.385 65.4541C136.676 65.629 136.916 65.8538 137.105 66.1285C137.294 66.4033 137.388 66.7405 137.388 67.1401C137.388 67.6008 137.249 68.0171 136.97 68.389C136.695 68.7609 136.292 69.0564 135.761 69.2757C135.233 69.4949 134.591 69.6045 133.836 69.6045C133.132 69.6045 132.522 69.506 132.007 69.309C131.495 69.1119 131.092 68.8372 130.798 68.4847C130.506 68.1323 130.342 67.7229 130.303 67.2567H131.532C131.564 67.5786 131.689 67.845 131.906 68.0559C132.127 68.2641 132.406 68.4195 132.742 68.5222C133.081 68.6221 133.446 68.6721 133.836 68.6721C134.29 68.6721 134.698 68.6082 135.06 68.4806C135.422 68.3501 135.708 68.1697 135.919 67.9394C136.13 67.7063 136.236 67.4343 136.236 67.1235C136.236 66.8404 136.145 66.61 135.962 66.4324C135.78 66.2548 135.54 66.1105 135.242 65.9995C134.945 65.8885 134.623 65.7913 134.278 65.7081L133.068 65.4083C132.3 65.2168 131.692 64.9435 131.244 64.5882C130.796 64.233 130.572 63.7682 130.572 63.1937C130.572 62.7163 130.721 62.3 131.018 61.9448C131.319 61.5868 131.722 61.3093 132.228 61.1122C132.737 60.9124 133.305 60.8125 133.932 60.8125C134.566 60.8125 135.129 60.911 135.622 61.1081C136.114 61.3023 136.505 61.5688 136.793 61.9073C137.084 62.2459 137.238 62.6303 137.254 63.0605H136.102Z" fill="white"/>
<path d="M153.42 69.4547V60.9291H154.61V68.5388H159.18V69.4547H153.42Z" fill="white"/>
<path d="M166.16 69.4547V60.9291H167.35V68.5388H171.92V69.4547H166.16Z" fill="white"/>
<path d="M186.427 63.5933H185.237C185.166 63.2964 185.043 63.0355 184.867 62.8107C184.694 62.5859 184.483 62.3972 184.234 62.2445C183.987 62.0891 183.714 61.9726 183.413 61.8949C183.112 61.8171 182.798 61.7783 182.472 61.7783C181.877 61.7783 181.338 61.9087 180.854 62.1696C180.374 62.4305 179.992 62.8149 179.707 63.3227C179.426 63.8306 179.285 64.4536 179.285 65.1919C179.285 65.9301 179.426 66.5531 179.707 67.061C179.992 67.5689 180.374 67.9533 180.854 68.2141C181.338 68.475 181.877 68.6054 182.472 68.6054C182.798 68.6054 183.112 68.5666 183.413 68.4889C183.714 68.4112 183.987 68.296 184.234 68.1434C184.483 67.9879 184.694 67.7978 184.867 67.573C185.043 67.3455 185.166 67.0846 185.237 66.7904H186.427C186.338 67.2261 186.174 67.6161 185.938 67.9602C185.701 68.3043 185.406 68.5971 185.054 68.8386C184.702 69.0772 184.307 69.259 183.869 69.3839C183.434 69.5088 182.968 69.5712 182.472 69.5712C181.634 69.5712 180.888 69.3936 180.235 69.0384C179.582 68.6832 179.069 68.1781 178.694 67.5231C178.32 66.8681 178.133 66.0911 178.133 65.1919C178.133 64.2927 178.32 63.5156 178.694 62.8606C179.069 62.2057 179.582 61.7006 180.235 61.3454C180.888 60.9901 181.634 60.8125 182.472 60.8125C182.968 60.8125 183.434 60.8749 183.869 60.9998C184.307 61.1247 184.702 61.3079 185.054 61.5493C185.406 61.788 185.701 62.0794 185.938 62.4235C186.174 62.7649 186.338 63.1548 186.427 63.5933Z" fill="white"/>
<path d="M194.159 69.5213C193.923 69.5213 193.719 69.4477 193.55 69.3006C193.38 69.1536 193.295 68.9773 193.295 68.772C193.295 68.5666 193.38 68.3904 193.55 68.2433C193.719 68.0962 193.923 68.0226 194.159 68.0226C194.396 68.0226 194.599 68.0962 194.769 68.2433C194.939 68.3904 195.023 68.5666 195.023 68.772C195.023 68.9079 194.983 69.0328 194.903 69.1466C194.827 69.2604 194.723 69.352 194.591 69.4214C194.463 69.488 194.319 69.5213 194.159 69.5213Z" fill="white"/>
<path d="M195.082 55.459V25.5628H205.029V30.0472C209.505 22.0749 221.938 25.5628 220.944 25.5628C220.148 25.5628 218.291 31.8742 217.462 35.0299C210.698 30.2465 206.355 35.0299 205.029 38.0195V55.459H195.082Z" fill="white"/>
<path d="M4.00486 6.40967L0 54.9015H11.0134L14.017 26.4063L23.5285 54.9015H30.537L40.5492 26.4063L42.5516 54.9015H54.0656L49.0595 6.40967H37.5455L27.0328 34.9048L15.5188 6.40967H4.00486Z" fill="white"/>
<path d="M86.0489 23.4098L83.0493 17.9309L108.546 3.48657L114.545 14.9424L139.042 2.98849L137.542 0L148.541 0.996163L143.542 9.96163L142.042 7.47122L112.546 22.4137L106.546 11.4559L86.0489 23.4098Z" fill="white"/>
<path fill-rule="evenodd" clip-rule="evenodd" d="M53.9947 25.4975V69.4931H62.9938V51.9949C64.327 53.4947 69.9931 56.4944 74.4927 56.4944C78.9922 56.4944 83.9917 52.4948 86.4915 49.9951C84.4917 46.9953 83.0918 38.0962 87.4914 32.4968C86.3248 29.8304 81.692 24.4976 74.4927 24.4976C67.2934 24.4976 63.8271 27.8306 62.9938 29.4971V25.4975H53.9947ZM71.4929 48.4951C75.6346 48.4951 78.9921 45.1376 78.9921 40.9959C78.9921 36.8541 75.6346 33.4966 71.4929 33.4966C67.3512 33.4966 63.9936 36.8541 63.9936 40.9959C63.9936 45.1376 67.3512 48.4951 71.4929 48.4951Z" fill="white"/>
<path fill-rule="evenodd" clip-rule="evenodd" d="M102.49 58.4943C111.602 58.4943 118.988 51.1077 118.988 41.9959C118.988 32.8841 111.602 25.4976 102.49 25.4976C93.3781 25.4976 85.9915 32.8841 85.9915 41.9959C85.9915 51.1077 93.3781 58.4943 102.49 58.4943ZM98.7402 37.4961C98.7402 38.252 99.2483 38.8919 99.9476 39.0159L105.649 40.0298C106.863 40.2419 107.967 40.9084 108.763 41.91C109.558 42.9116 109.993 44.1827 109.989 45.4953C109.989 48.803 107.466 51.4947 104.365 51.4947V54.4944H100.615V51.4947C97.5141 51.4947 94.9906 48.803 94.9906 45.4953H98.7402C98.7402 46.0257 98.9377 46.5343 99.2893 46.9094C99.6409 47.2844 100.118 47.4951 100.615 47.4951H104.365C104.862 47.4951 105.339 47.2844 105.69 46.9094C106.042 46.5343 106.239 46.0257 106.239 45.4953C106.24 45.1302 106.119 44.7768 105.898 44.4982C105.677 44.2197 105.37 44.0344 105.032 43.9754L99.3308 42.9615C98.1164 42.7495 97.0125 42.0829 96.2171 41.0814C95.4217 40.0798 94.9869 38.8087 94.9906 37.4961C94.9906 34.1884 97.5141 31.4967 100.615 31.4967V28.497H104.365V31.4967C107.466 31.4967 109.989 34.1884 109.989 37.4961H106.239C106.239 36.3942 105.4 35.4963 104.365 35.4963H100.615C99.5801 35.4963 98.7402 36.3942 98.7402 37.4961Z" fill="#1D60E4"/>
<path d="M150.533 55.4591L166.098 25.58H155.052L147.52 41.0175L139.486 25.082H132.958L125.427 41.0175L117.895 25.082H107.852C120.707 29.8627 120.907 42.3455 119.401 47.9893L122.414 55.4591H129.444L136.975 39.5236L143.503 55.4591H150.533Z" fill="white"/>
<path fill-rule="evenodd" clip-rule="evenodd" d="M194.981 41.4959C194.981 35.8298 191.781 24.4976 178.982 24.4976C166.184 24.4976 162.651 35.8298 162.484 41.4959C163.151 46.662 167.384 56.9944 178.982 56.9944C182.815 56.8277 191.181 54.9946 193.981 48.9952L187.482 44.4956C186.648 45.9954 183.782 48.9952 178.982 48.9952C174.183 48.9952 172.316 43.9956 171.983 41.4959H194.981ZM172.983 36.4964C172.816 34.4966 173.783 30.497 178.982 30.497C184.182 30.497 185.148 34.4966 184.981 36.4964H172.983Z" fill="white"/>
</svg>
