<svg width="50" height="50" viewBox="0 0 50 50" fill="none" xmlns="http://www.w3.org/2000/svg">
<g clip-path="url(#clip0_130_1178)">
<path d="M45.3998 20.6655C46.4165 18.654 45.9956 16.2663 44.3521 14.7238L42.0185 12.5334C41.4894 12.0369 41.1796 11.5005 41.0142 10.7938L40.2841 7.67783C39.7701 5.4833 37.9127 3.92471 35.6623 3.79961L32.4666 3.62188C31.7422 3.58164 31.1601 3.36973 30.5792 2.93496L28.017 1.01699C26.2125 -0.333789 23.7879 -0.333789 21.9837 1.01699L19.4215 2.93496C18.8407 3.36973 18.2584 3.58164 17.5339 3.62188L14.3384 3.79961C12.0881 3.92471 10.2307 5.4832 9.71653 7.67783L8.98655 10.7939C8.82112 11.5004 8.51136 12.0369 7.98226 12.5335L5.64866 14.7238C4.00521 16.2663 3.58421 18.654 4.60091 20.6655L6.04476 23.5218C6.3722 24.1695 6.47962 24.7796 6.39349 25.5L6.0137 28.6779C5.74622 30.9158 6.95853 33.0156 9.0304 33.9029L11.9724 35.163C12.3235 35.3133 12.6202 35.4961 12.8815 35.7229L8.38597 45.3786C8.32575 45.5081 8.30215 45.6515 8.31773 45.7935C8.3333 45.9354 8.38746 46.0703 8.47432 46.1836C8.56118 46.2969 8.67742 46.3843 8.81042 46.4362C8.94342 46.4881 9.08809 46.5026 9.22874 46.478L13.6859 45.6992L15.959 49.6112C16.0307 49.7347 16.1349 49.8362 16.2603 49.9046C16.3856 49.973 16.5273 50.0058 16.6699 49.9993C16.8126 49.9928 16.9507 49.9474 17.0694 49.8679C17.188 49.7884 17.2826 49.6779 17.3428 49.5484L21.2803 41.0909L23.996 40.2702C24.6905 40.0603 25.3102 40.0603 26.0046 40.2702L28.8524 41.1309L32.7713 49.5484C32.8342 49.6833 32.9342 49.7975 33.0597 49.8774C33.1852 49.9574 33.3309 49.9999 33.4797 49.9999C33.7571 49.9999 34.0148 49.8524 34.1551 49.6112L36.4283 45.6992L40.8854 46.478C41.026 46.5026 41.1708 46.4882 41.3038 46.4363C41.4368 46.3844 41.5531 46.2971 41.64 46.1838C41.7269 46.0704 41.781 45.9354 41.7966 45.7935C41.8121 45.6516 41.7884 45.5081 41.7282 45.3786L37.2008 35.6544C37.4421 35.4591 37.7131 35.2978 38.0282 35.1628L40.9702 33.9028C43.0421 33.0155 44.2544 30.9158 43.987 28.6778L43.6072 25.4998C43.5209 24.7794 43.6285 24.1693 43.9559 23.5218L45.3998 20.6655ZM16.558 47.5321L14.7632 44.4436C14.6829 44.3055 14.5622 44.1954 14.4174 44.128C14.2726 44.0606 14.1106 44.0391 13.9533 44.0665L10.4343 44.6813L13.9514 37.1272L15.263 39.1328C16.2066 40.5756 17.7616 41.3987 19.4061 41.4147L16.558 47.5321ZM36.1609 44.0664C36.0035 44.039 35.8415 44.0604 35.6967 44.1278C35.5519 44.1952 35.4312 44.3054 35.3509 44.4435L33.5561 47.532L30.7075 41.4132C32.3101 41.3614 33.8156 40.5426 34.7377 39.1327L36.1157 37.0259L39.6799 44.6813L36.1609 44.0664ZM42.5615 22.817C42.0996 23.7307 41.9341 24.6689 42.0557 25.6854L42.4356 28.8634C42.6229 30.4309 41.8063 31.8452 40.3551 32.4667L37.413 33.7266C36.4719 34.1296 35.7421 34.742 35.1818 35.5988L33.43 38.2774C32.566 39.5984 31.0313 40.1571 29.5203 39.7004L26.4567 38.7746C25.4768 38.4786 24.5241 38.4786 23.544 38.7746L20.4803 39.7004C18.9693 40.1571 17.4346 39.5985 16.5706 38.2774L14.8189 35.5988C14.2585 34.7421 13.5286 34.1296 12.5875 33.7267L9.64554 32.4667C8.19446 31.8452 7.37776 30.4308 7.56517 28.8634L7.94495 25.6855C8.06653 24.6691 7.9011 23.7309 7.43919 22.817L5.99534 19.9606C5.28323 18.5519 5.56683 16.9435 6.7178 15.8632L9.0514 13.6729C9.79798 12.9723 10.2742 12.1472 10.5077 11.1504L11.2377 8.03438C11.5979 6.49736 12.849 5.44756 14.4251 5.35977L17.6205 5.18203C18.6428 5.12529 19.5381 4.79941 20.3577 4.18594L22.92 2.26797C23.5519 1.79492 24.2761 1.5585 25.0003 1.5585C25.7245 1.5585 26.4488 1.79492 27.0807 2.26797L29.6429 4.18594C30.4626 4.79941 31.3579 5.12529 32.3799 5.18203L35.5755 5.35977C37.1517 5.44746 38.4028 6.49727 38.7628 8.03438L39.4929 11.1504C39.7264 12.1473 40.2028 12.9724 40.9492 13.6729L43.2828 15.8632C44.4338 16.9436 44.7174 18.5519 44.0053 19.9606L42.5615 22.817ZM25.0003 7.48369C17.7078 7.48369 11.7749 13.4166 11.7749 20.7091C11.7749 28.0017 17.7078 33.9346 25.0003 33.9346C32.2928 33.9346 38.2257 28.0017 38.2257 20.7091C38.2257 13.4166 32.2928 7.48369 25.0003 7.48369ZM25.0003 32.372C18.5694 32.372 13.3374 27.14 13.3374 20.709C13.3374 14.278 18.5694 9.04609 25.0003 9.04609C31.4313 9.04609 36.6632 14.278 36.6632 20.709C36.6632 27.14 31.4313 32.372 25.0003 32.372ZM30.7129 14.3698C30.0118 14.3725 29.3544 14.648 28.8617 15.1456L23.3631 20.699L21.1378 18.4736C20.1134 17.4494 18.4467 17.4493 17.4225 18.4737C16.3984 19.4979 16.3984 21.1646 17.4225 22.1889L21.5122 26.2785C22.0244 26.7906 22.6972 27.0467 23.3698 27.0467C24.0425 27.0467 24.7152 26.7906 25.2274 26.2785C26.7772 24.7286 31.6734 19.7625 32.5858 18.8417C33.6031 17.815 33.5976 16.1516 32.5739 15.1334C32.0761 14.6384 31.4133 14.3658 30.7129 14.3698ZM31.476 17.742C30.5626 18.6638 25.6686 23.6278 24.1226 25.1737C23.7076 25.5891 23.0323 25.5888 22.6172 25.1737L18.5275 21.0842C18.1124 20.669 18.1124 19.9937 18.5275 19.5787C18.735 19.3711 19.0076 19.2674 19.2802 19.2674C19.5529 19.2674 19.8254 19.3712 20.0329 19.5787L22.8135 22.3593C22.9601 22.5058 23.1588 22.5881 23.3659 22.5881H23.3679C23.4708 22.5879 23.5727 22.5673 23.6676 22.5276C23.7626 22.4878 23.8487 22.4297 23.9211 22.3565L29.972 16.2452C30.0696 16.1462 30.1859 16.0676 30.3141 16.0139C30.4423 15.9602 30.5799 15.9325 30.7189 15.9324H30.7231C31.0059 15.9324 31.2717 16.0421 31.4722 16.2415C31.8862 16.653 31.8878 17.3263 31.476 17.742Z" fill="#1D60E4"/>
</g>
<defs>
<clipPath id="clip0_130_1178">
<rect width="50" height="50" fill="white"/>
</clipPath>
</defs>
</svg>
