<svg width="50" height="50" viewBox="0 0 50 50" fill="none" xmlns="http://www.w3.org/2000/svg">
<g clip-path="url(#clip0_130_1228)">
<path d="M47.0282 25.9962C45.3895 25.9962 44.0562 27.3313 44.0562 28.9725C44.0562 29.9459 44.5254 30.8116 45.249 31.355L43.1388 35.2342C42.9457 35.1953 42.7491 35.1757 42.5522 35.1757C42.0877 35.1754 41.6297 35.2848 41.2155 35.495L39.326 33.7631C39.5419 33.2347 39.7482 32.7025 39.9448 32.1667C41.2091 28.7199 41.9525 25.3988 42.1545 22.2955C42.4094 18.3801 41.7993 14.802 40.3412 11.6608C39.2194 9.24394 37.7395 7.15527 35.9426 5.45273C35.8008 5.3219 35.6131 5.25219 35.4203 5.25868C35.2274 5.26517 35.0449 5.34735 34.9122 5.48742C34.7795 5.62749 34.7073 5.81419 34.7112 6.0071C34.7152 6.20001 34.7949 6.38361 34.9332 6.51816C36.5949 8.09257 37.9665 10.0308 39.0101 12.2787C40.3611 15.1896 40.9268 18.5214 40.6911 22.1813C40.5007 25.1399 39.79 28.3186 38.5788 31.6288C37.1751 35.4652 35.4124 38.5981 34.4088 40.238C33.3817 36.6897 34.03 33.2812 34.8642 29.8222C34.908 29.6336 34.8755 29.4353 34.7738 29.2706C34.6722 29.1058 34.5095 28.9879 34.3213 28.9426C34.1331 28.8972 33.9346 28.928 33.769 29.0284C33.6034 29.1287 33.4842 29.2904 33.4373 29.4782C32.5495 33.1595 31.8146 37.0785 33.1611 41.1662H13.2347C13.2802 39.9371 13.7045 37.2381 16.3529 35.1603C23.0907 29.8744 24.8863 22.5674 24.9595 22.2589C25.1438 21.5796 24.2483 21.0574 23.7472 21.5509C23.7323 21.5644 22.2554 22.9108 20.703 23.079C19.9284 23.1631 19.2085 22.792 18.5122 22.4334C17.8161 22.0749 17.0964 21.7044 16.3452 21.8667C15.741 21.9977 15.125 22.4617 14.4729 22.953C13.7339 23.51 12.8987 24.1409 12.2786 24.1169C11.7408 24.0958 10.5691 23.4652 9.85732 22.3805C9.33311 21.5816 9.21973 20.784 9.52022 20.0099C10.019 18.7246 10.9081 17.9756 11.8494 17.1825C12.6925 16.4724 13.5643 15.738 14.1661 14.6072C14.2779 14.3962 14.3885 14.1847 14.4981 13.9726C15.6673 11.7198 17.4341 8.31562 20.7133 7.15097C20.8561 7.10025 20.9797 7.00654 21.0672 6.88272C21.1546 6.75889 21.2015 6.61104 21.2015 6.45947V1.6124C21.6681 1.70331 22.2958 1.87685 22.9243 2.20644C24.5199 3.04316 25.3288 4.47958 25.3288 6.47577C25.329 6.62601 25.3751 6.77258 25.4612 6.89575C25.5472 7.01892 25.6689 7.11277 25.8099 7.16464C25.8314 7.17255 28.0007 7.98242 30.2204 9.76816C33.1397 12.1167 34.7702 14.9627 35.0663 18.2271C35.3406 21.2499 34.7302 24.1487 34.1364 26.6286C34.114 26.7223 34.1102 26.8195 34.1254 26.9147C34.1405 27.0099 34.1743 27.1012 34.2247 27.1833C34.2751 27.2654 34.3412 27.3368 34.4192 27.3934C34.4972 27.45 34.5856 27.4907 34.6793 27.5131C34.773 27.5356 34.8703 27.5393 34.9654 27.5242C35.0606 27.5091 35.1519 27.4754 35.2341 27.425C35.3162 27.3746 35.3876 27.3085 35.4442 27.2305C35.5008 27.1524 35.5415 27.064 35.5639 26.9703C36.1848 24.377 36.8226 21.3388 36.5282 18.0945C36.1979 14.4553 34.3219 11.1701 31.1026 8.59433C29.3119 7.16161 27.5862 6.32509 26.7822 5.97685C26.6618 3.91953 25.7999 2.5871 24.8158 1.72949C27.1035 2.08544 30.0051 2.9083 32.7366 4.75507C33.0681 4.98037 33.5271 4.89648 33.7556 4.5583C33.8096 4.47847 33.8473 4.38879 33.8666 4.29437C33.886 4.19996 33.8865 4.10266 33.8682 4.00804C33.8499 3.91341 33.8132 3.82332 33.7601 3.7429C33.707 3.66248 33.6385 3.59332 33.5587 3.53935C27.537 -0.532135 20.9192 0.000189699 20.4158 0.0479436C20.0417 0.0687444 19.727 0.404291 19.7339 0.780073V5.95888C16.2253 7.45888 14.3412 11.089 13.1955 13.2965C13.0882 13.5041 12.9799 13.7112 12.8705 13.9178C12.402 14.7982 11.6742 15.4111 10.9039 16.0602C9.91143 16.8963 8.78652 17.8439 8.15195 19.4788C7.68359 20.6854 7.85352 22.0019 8.63018 23.1855C9.49678 24.5061 11.0405 25.5371 12.221 25.5834C13.3617 25.6296 14.421 24.8297 15.3562 24.1253C15.8299 23.7684 16.3668 23.3638 16.6561 23.3011C16.8922 23.25 17.3957 23.5092 17.84 23.7381C18.6456 24.153 19.6478 24.6697 20.861 24.538C21.5831 24.4599 22.271 24.2065 22.8617 23.9088C21.919 26.2904 19.8533 30.3679 15.8866 33.6505L12.4509 31.0343C12.676 30.6076 12.7934 30.1325 12.793 29.6501C12.793 28.009 11.4598 26.6738 9.821 26.6738C8.18232 26.6738 6.84922 28.009 6.84922 29.6501C6.84922 30.2019 7.00039 30.7186 7.2627 31.1621L4.47881 35.0295C4.02269 34.759 3.50208 34.6164 2.97178 34.6169C1.3332 34.6169 0 35.9521 0 37.5933C0 39.2344 1.3332 40.5695 2.97178 40.5695C4.61055 40.5695 5.94365 39.2344 5.94365 37.5933C5.94365 37.0415 5.79248 36.5247 5.53018 36.0812L8.31406 32.2139C8.77018 32.4844 9.29079 32.6269 9.82109 32.6265C10.4063 32.627 10.9785 32.4536 11.4649 32.1281L14.7348 34.618C12.184 37.0232 11.7961 39.9155 11.7657 41.2477C10.7309 41.5235 9.96602 42.4697 9.96602 43.5917C9.96602 43.953 10.0456 44.296 10.1877 44.6044C8.9459 44.8572 8.00859 45.9575 8.00859 47.2727V49.2661C8.00859 49.3625 8.02758 49.4579 8.06446 49.5469C8.10134 49.636 8.1554 49.7169 8.22355 49.785C8.2917 49.8531 8.3726 49.9072 8.46164 49.9441C8.55068 49.9809 8.64611 49.9999 8.74248 49.9999H37.8824C37.9788 49.9999 38.0742 49.9809 38.1633 49.9441C38.2523 49.9072 38.3332 49.8531 38.4014 49.785C38.4695 49.7169 38.5236 49.636 38.5604 49.5469C38.5973 49.4579 38.6163 49.3625 38.6163 49.2661V47.2727C38.6163 45.9572 37.6785 44.8567 36.4363 44.6042C36.583 44.2868 36.659 43.9413 36.6589 43.5917C36.6589 42.6694 36.1421 41.8659 35.3834 41.4558C36.1102 40.3069 37.4259 38.0861 38.7147 35.1937L40.104 36.4672C39.7623 36.9625 39.5796 37.5502 39.5802 38.1519C39.5802 39.7932 40.9134 41.1283 42.5521 41.1283C44.1907 41.1283 45.5239 39.7932 45.5239 38.1519C45.5239 37.2385 45.1105 36.4201 44.4615 35.8736L46.6128 31.919C46.7486 31.9382 46.8871 31.9487 47.0281 31.9487C48.6668 31.9487 49.9999 30.6136 49.9999 28.9725C50 27.3313 48.6668 25.9962 47.0282 25.9962ZM2.97178 39.1019C2.14238 39.1019 1.46768 38.4252 1.46768 37.5933C1.46768 36.7613 2.14238 36.0846 2.97178 36.0846C3.80117 36.0846 4.47598 36.7613 4.47598 37.5933C4.47598 38.4252 3.80127 39.1019 2.97178 39.1019ZM9.82109 31.1589C8.9917 31.1589 8.31699 30.482 8.31699 29.6501C8.31699 28.8182 8.9917 28.1414 9.82109 28.1414C10.6505 28.1414 11.3253 28.8182 11.3253 29.6501C11.3254 30.482 10.6506 31.1589 9.82109 31.1589ZM37.1486 47.2727V48.5323H9.47637V47.2727C9.47637 46.5805 10.0396 46.0173 10.7319 46.0173H18.5322C18.7268 46.0173 18.9135 45.94 19.0511 45.8024C19.1887 45.6647 19.266 45.4781 19.266 45.2835C19.266 45.0889 19.1887 44.9022 19.0511 44.7646C18.9135 44.627 18.7268 44.5497 18.5322 44.5497H12.3884C11.862 44.5497 11.4338 44.1199 11.4338 43.5917C11.4338 43.0634 11.8619 42.6337 12.3884 42.6337H34.2366C34.763 42.6337 35.1912 43.0635 35.1912 43.5917C35.1912 44.1199 34.7631 44.5497 34.2366 44.5497H21.4677C21.2731 44.5497 21.0864 44.627 20.9488 44.7646C20.8112 44.9022 20.7339 45.0889 20.7339 45.2835C20.7339 45.4781 20.8112 45.6647 20.9488 45.8024C21.0864 45.94 21.2731 46.0173 21.4677 46.0173H35.8931C36.5854 46.0173 37.1486 46.5806 37.1486 47.2727ZM42.5522 39.6607C41.7228 39.6607 41.048 38.9839 41.048 38.1519C41.048 37.32 41.7228 36.6433 42.5522 36.6433C43.3815 36.6433 44.0562 37.32 44.0562 38.1519C44.0562 38.9839 43.3815 39.6607 42.5522 39.6607ZM47.0282 30.4811C46.1988 30.4811 45.524 29.8044 45.524 28.9725C45.524 28.1405 46.1988 27.4638 47.0282 27.4638C47.8576 27.4638 48.5323 28.1405 48.5323 28.9725C48.5323 29.8044 47.8576 30.4811 47.0282 30.4811Z" fill="#1D60E4"/>
</g>
<defs>
<clipPath id="clip0_130_1228">
<rect width="50" height="50" fill="white"/>
</clipPath>
</defs>
</svg>
