<svg width="50" height="50" viewBox="0 0 50 50" fill="none" xmlns="http://www.w3.org/2000/svg">
<g clip-path="url(#clip0_130_1187)">
<path d="M36.2603 8.33996C37.884 8.33996 39.2003 7.02368 39.2003 5.39996C39.2003 3.77624 37.884 2.45996 36.2603 2.45996C34.6366 2.45996 33.3203 3.77624 33.3203 5.39996C33.3203 7.02368 34.6366 8.33996 36.2603 8.33996Z" stroke="#1D60E4" stroke-width="1.5" stroke-miterlimit="10" stroke-linecap="round" stroke-linejoin="round"/>
<path d="M46.06 22.0599C47.6837 22.0599 49 20.7436 49 19.1199C49 17.4962 47.6837 16.1799 46.06 16.1799C44.4363 16.1799 43.12 17.4962 43.12 19.1199C43.12 20.7436 44.4363 22.0599 46.06 22.0599Z" stroke="#1D60E4" stroke-width="1.5" stroke-miterlimit="10" stroke-linecap="round" stroke-linejoin="round"/>
<path d="M35.2796 22.06L47.0396 2.45996M27.4396 17.16C27.4396 18.4595 26.9234 19.7059 26.0045 20.6248C25.0855 21.5437 23.8392 22.06 22.5396 22.06C21.2401 22.06 19.9938 21.5437 19.0748 20.6248C18.1559 19.7059 17.6396 18.4595 17.6396 17.16V7.35996C17.6396 6.0604 18.1559 4.81407 19.0748 3.89514C19.9938 2.97621 21.2401 2.45996 22.5396 2.45996C23.8392 2.45996 25.0855 2.97621 26.0045 3.89514C26.9234 4.81407 27.4396 6.0604 27.4396 7.35996V17.16Z" stroke="#1D60E4" stroke-width="1.5" stroke-miterlimit="10" stroke-linecap="round" stroke-linejoin="round"/>
<path d="M6.86 24.0199C10.6487 24.0199 13.72 22.7036 13.72 21.0799C13.72 19.4562 10.6487 18.1399 6.86 18.1399C3.07133 18.1399 0 19.4562 0 21.0799C0 22.7036 3.07133 24.0199 6.86 24.0199Z" stroke="#1D60E4" stroke-width="1.5" stroke-miterlimit="10" stroke-linecap="round" stroke-linejoin="round"/>
<path d="M0 26.96C0 28.5848 3.06936 29.9 6.86 29.9C10.6506 29.9 13.72 28.5848 13.72 26.96M0 32.84C0 34.4648 3.06936 35.78 6.86 35.78C10.6506 35.78 13.72 34.4648 13.72 32.84M0 38.72C0 40.3448 3.06936 41.66 6.86 41.66C10.6506 41.66 13.72 40.3448 13.72 38.72" stroke="#1D60E4" stroke-width="1.5" stroke-miterlimit="10" stroke-linecap="round" stroke-linejoin="round"/>
<path d="M24.4996 35.7799C28.2883 35.7799 31.3596 34.4636 31.3596 32.8399C31.3596 31.2162 28.2883 29.8999 24.4996 29.8999C20.711 29.8999 17.6396 31.2162 17.6396 32.8399C17.6396 34.4636 20.711 35.7799 24.4996 35.7799Z" stroke="#1D60E4" stroke-width="1.5" stroke-miterlimit="10" stroke-linecap="round" stroke-linejoin="round"/>
<path d="M17.6396 38.72C17.6396 40.3448 20.709 41.66 24.4996 41.66C28.2903 41.66 31.3596 40.3448 31.3596 38.72" stroke="#1D60E4" stroke-width="1.5" stroke-miterlimit="10" stroke-linecap="round" stroke-linejoin="round"/>
<path d="M42.1403 41.66C45.9289 41.66 49.0003 40.3437 49.0003 38.72C49.0003 37.0963 45.9289 35.78 42.1403 35.78C38.3516 35.78 35.2803 37.0963 35.2803 38.72C35.2803 40.3437 38.3516 41.66 42.1403 41.66Z" stroke="#1D60E4" stroke-width="1.5" stroke-miterlimit="10" stroke-linecap="round" stroke-linejoin="round"/>
<path d="M49 38.7201V44.6001C49 46.2249 45.9306 47.5401 42.14 47.5401C38.3494 47.5401 35.28 46.2249 35.28 44.6001V38.7201M31.36 32.8401V44.6001C31.36 46.2249 28.2906 47.5401 24.5 47.5401C20.7094 47.5401 17.64 46.2249 17.64 44.6001V32.8401M13.72 21.0801V44.6001C13.72 46.2249 10.6506 47.5401 6.86 47.5401C3.06936 47.5401 0 46.2249 0 44.6001V21.0801" stroke="#1D60E4" stroke-width="1.5" stroke-miterlimit="10" stroke-linecap="round" stroke-linejoin="round"/>
</g>
<defs>
<clipPath id="clip0_130_1187">
<rect width="50" height="50" fill="white"/>
</clipPath>
</defs>
</svg>
