<svg width="50" height="50" viewBox="0 0 50 50" fill="none" xmlns="http://www.w3.org/2000/svg">
<g clip-path="url(#clip0_130_1237)">
<path d="M36.1096 50H16.5381C16.3372 50 16.1445 49.9202 16.0024 49.7781C15.8603 49.636 15.7805 49.4433 15.7805 49.2424V40.9542C7.02055 38.0066 0.970812 29.8659 1.00011 20.9665C1.01526 15.3885 3.20121 10.1277 7.1549 6.15782C11.1429 2.18696 16.431 0 22.0454 0C27.6618 0 32.9489 2.18696 36.9329 6.15479C40.9047 10.1428 43.0907 15.4299 43.0907 21.0453V21.6696L48.0535 31.2225C48.4293 31.9518 48.398 32.8044 47.9707 33.5054C47.5464 34.2014 46.808 34.6166 45.9938 34.6166H43.0907V38.9955C43.0896 39.8161 42.7632 40.6027 42.183 41.1829C41.6028 41.7631 40.8162 42.0895 39.9956 42.0906H36.8672V49.2424C36.8672 49.4433 36.7874 49.636 36.6453 49.7781C36.5032 49.9202 36.3105 50 36.1096 50ZM17.2957 48.4848H35.352V41.333C35.352 41.1321 35.4318 40.9394 35.5739 40.7973C35.716 40.6552 35.9087 40.5754 36.1096 40.5754H39.9956C40.8664 40.5754 41.5755 39.8663 41.5755 38.9955V33.8589C41.5755 33.658 41.6553 33.4653 41.7974 33.3232C41.9395 33.1812 42.1322 33.1013 42.3331 33.1013H45.9938C46.3979 33.1013 46.607 32.8316 46.6777 32.7155C46.7518 32.5966 46.7936 32.4605 46.7989 32.3205C46.8042 32.1805 46.7729 32.0416 46.708 31.9175L41.6603 22.2039C41.6047 22.0958 41.5757 21.976 41.5755 21.8544V21.0463C41.5755 15.834 39.5461 10.9247 35.8621 7.22655C34.0494 5.41053 31.8955 3.97092 29.5242 2.99056C27.153 2.0102 24.6113 1.50846 22.0454 1.5142C19.4792 1.50871 16.9371 2.01066 14.5656 2.99118C12.194 3.9717 10.0398 5.41143 8.22666 7.22757C4.55884 10.9116 2.52946 15.7936 2.51532 20.9705C2.48703 29.3881 8.34586 37.0803 16.7613 39.6784C17.0785 39.7764 17.2967 40.0693 17.2967 40.4026V48.4838L17.2957 48.4848Z" fill="#1D60E4"/>
<path d="M36.1096 42.0918H30.178C29.4781 42.091 28.807 41.8125 28.3122 41.3174C27.8173 40.8224 27.5391 40.1512 27.5385 39.4513V39.1997C27.5385 38.9988 27.6184 38.8061 27.7604 38.664C27.9025 38.522 28.0952 38.4421 28.2961 38.4421C28.4971 38.4421 28.6898 38.522 28.8319 38.664C28.9739 38.8061 29.0537 38.9988 29.0537 39.1997V39.4523C29.0537 40.0715 29.5578 40.5756 30.178 40.5756H36.1096C36.3105 40.5756 36.5032 40.6554 36.6453 40.7975C36.7874 40.9395 36.8672 41.1322 36.8672 41.3332C36.8672 41.5341 36.7874 41.7268 36.6453 41.8689C36.5032 42.0109 36.3105 42.0918 36.1096 42.0918ZM41.3128 50.0002H11.152C10.9511 50.0002 10.7584 49.9204 10.6163 49.7783C10.4742 49.6362 10.3944 49.4435 10.3944 49.2426C10.3944 49.0416 10.4742 48.8489 10.6163 48.7069C10.7584 48.5648 10.9511 48.485 11.152 48.485H41.3128C41.5138 48.485 41.7065 48.5648 41.8485 48.7069C41.9906 48.8489 42.0704 49.0416 42.0704 49.2426C42.0704 49.4435 41.9906 49.6362 41.8485 49.7783C41.7065 49.9204 41.5138 50.0002 41.3128 50.0002ZM21.3575 35.0208C20.0168 35.0192 18.7316 34.4859 17.7836 33.5379C16.8356 32.5899 16.3023 31.3047 16.3007 29.964V26.6508C12.9743 24.8163 10.9278 21.3657 10.9278 17.5332C10.9278 14.6624 12.0692 11.9875 14.138 10.0036C16.2068 8.0197 18.9503 6.98834 21.808 7.11461C27.1203 7.33684 31.6852 12.0239 31.7781 17.3504C31.8061 19.24 31.3224 21.102 30.378 22.739C29.4337 24.376 28.0641 25.727 26.4142 26.6487V29.964C26.4124 31.3045 25.879 32.5895 24.931 33.5373C23.9831 34.485 22.6979 35.0192 21.3575 35.0208ZM21.3555 8.61972C19.055 8.61143 16.842 9.50033 15.1865 11.0976C14.3155 11.927 13.6229 12.9255 13.1511 14.0319C12.6794 15.1384 12.4384 16.3294 12.443 17.5322C12.4361 19.1931 12.8968 20.8223 13.7725 22.2336C14.6482 23.6448 15.9035 24.7811 17.3947 25.5123C17.5212 25.575 17.6276 25.6718 17.7021 25.7917C17.7765 25.9116 17.8159 26.05 17.8159 26.1911V29.964C17.8159 31.9166 19.4039 33.5046 21.3575 33.5046C23.3111 33.5046 24.898 31.9166 24.898 29.964V26.1911C24.898 26.05 24.9375 25.9116 25.0119 25.7917C25.0863 25.6718 25.1928 25.575 25.3193 25.5123C28.38 23.9951 30.3215 20.801 30.2629 17.3766C30.1861 12.9037 26.2041 8.81569 21.7444 8.6278C21.6148 8.62266 21.4851 8.61997 21.3555 8.61972Z" fill="#1D60E4"/>
<path d="M21.3544 35.0207C20.0138 35.0191 18.7285 34.4858 17.7805 33.5379C16.8326 32.5899 16.2993 31.3046 16.2977 29.964V28.2366C16.2977 28.0357 16.3775 27.843 16.5196 27.7009C16.6616 27.5588 16.8543 27.479 17.0553 27.479H25.6536C25.8545 27.479 26.0472 27.5588 26.1893 27.7009C26.3314 27.843 26.4112 28.0357 26.4112 28.2366V29.964C26.4093 31.3044 25.8759 32.5894 24.928 33.5372C23.98 34.485 22.6949 35.0191 21.3544 35.0207ZM17.8129 28.9952V29.964C17.8129 31.9166 19.4008 33.5045 21.3544 33.5045C23.3081 33.5045 24.896 31.9166 24.896 29.964V28.9942L17.8129 28.9952Z" fill="#1D60E4"/>
<path d="M27.1874 28.9949H15.5213C15.3203 28.9949 15.1276 28.9151 14.9856 28.7731C14.8435 28.631 14.7637 28.4383 14.7637 28.2373C14.7637 28.0364 14.8435 27.8437 14.9856 27.7016C15.1276 27.5596 15.3203 27.4797 15.5213 27.4797H27.1884C27.3893 27.4797 27.582 27.5596 27.7241 27.7016C27.8662 27.8437 27.946 28.0364 27.946 28.2373C27.946 28.4383 27.8662 28.631 27.7241 28.7731C27.582 28.9151 27.3883 28.9949 27.1874 28.9949Z" fill="#1D60E4"/>
<path d="M21.3545 28.9951C21.1535 28.9951 20.9608 28.9153 20.8188 28.7732C20.6767 28.6311 20.5969 28.4384 20.5969 28.2375V17.6714C20.5969 17.4705 20.6767 17.2778 20.8188 17.1357C20.9608 16.9936 21.1535 16.9138 21.3545 16.9138C21.5554 16.9138 21.7481 16.9936 21.8902 17.1357C22.0323 17.2778 22.1121 17.4705 22.1121 17.6714V28.2375C22.1121 28.4384 22.0323 28.6311 21.8902 28.7732C21.7481 28.9153 21.5554 28.9951 21.3545 28.9951Z" fill="#1D60E4"/>
<path d="M23.8434 20.9209C23.6414 20.9209 23.4485 20.8411 23.3081 20.6987L21.3544 18.7431L19.3968 20.6997C19.2547 20.8416 19.0622 20.9213 18.8614 20.9213C18.6606 20.9213 18.4681 20.8416 18.326 20.6997L15.836 18.2067C15.7616 18.1373 15.7019 18.0537 15.6605 17.9608C15.6191 17.8678 15.5968 17.7675 15.595 17.6658C15.5932 17.5641 15.6119 17.463 15.6501 17.3687C15.6882 17.2743 15.7449 17.1886 15.8168 17.1167C15.8887 17.0448 15.9744 16.9881 16.0688 16.9499C16.1631 16.9118 16.2642 16.8931 16.3659 16.8949C16.4676 16.8967 16.5679 16.919 16.6609 16.9604C16.7538 17.0018 16.8374 17.0615 16.9068 17.1359L18.8614 19.0926L20.8181 17.1349C20.9601 16.9931 21.1527 16.9134 21.3534 16.9134C21.5542 16.9134 21.7468 16.9931 21.8888 17.1349L23.8434 19.0916L25.8001 17.1349C25.8694 17.0605 25.9531 17.0008 26.046 16.9594C26.1389 16.918 26.2393 16.8957 26.341 16.8939C26.4427 16.8921 26.5438 16.9108 26.6381 16.9489C26.7324 16.987 26.8181 17.0438 26.8901 17.1157C26.962 17.1876 27.0187 17.2733 27.0568 17.3677C27.0949 17.462 27.1136 17.563 27.1118 17.6648C27.11 17.7665 27.0878 17.8668 27.0464 17.9597C27.005 18.0527 26.9453 18.1363 26.8708 18.2057L24.3788 20.6997C24.2369 20.8418 24.0443 20.9208 23.8434 20.9209Z" fill="#1D60E4"/>
</g>
<defs>
<clipPath id="clip0_130_1237">
<rect width="50" height="50" fill="white"/>
</clipPath>
</defs>
</svg>
