<svg width="50" height="50" viewBox="0 0 50 50" fill="none" xmlns="http://www.w3.org/2000/svg">
<path d="M38.2354 19.9824C33.8123 22.1091 31.0434 23.7063 29.1074 24.7695C27.1617 25.8381 26.0853 26.3492 25.0186 26.3506C23.9519 26.352 22.8729 25.8441 20.9229 24.7764C18.9825 23.714 16.2072 22.1149 11.7754 19.9824L11.5605 19.8789V30.9014L11.6621 30.9355L24.957 35.459L25.0049 35.4756L25.0537 35.459L38.3486 30.9355L38.4502 30.9014V19.8789L38.2354 19.9824ZM24.9365 2.4043L3.7627 13.2715L3.50293 13.4053L3.7627 13.5381L24.9365 24.4053L25.0049 24.4404L25.0742 24.4053L46.2598 13.5381L46.5195 13.4053L46.2598 13.2715L25.0742 2.4043L25.0049 2.36914L24.9365 2.4043ZM9.49219 18.8359L9.45605 18.7939C9.41058 18.7411 9.32642 18.6849 9.23535 18.6299C9.13743 18.5708 9.00938 18.4999 8.85742 18.4209C8.55311 18.2627 8.14401 18.0649 7.6709 17.8389C6.72311 17.386 5.51273 16.82 4.33594 16.2354C3.15814 15.6502 2.02102 15.0491 1.22266 14.5264C0.822305 14.2642 0.516031 14.0279 0.332031 13.8281C0.239607 13.7278 0.186128 13.6453 0.163086 13.582C0.14177 13.5234 0.149987 13.4923 0.163086 13.4707L0.18457 13.4346V13.3926C0.184713 12.9966 0.40336 12.6434 0.746094 12.4668L24.5381 0.267578L24.541 0.266602C24.7932 0.131567 25.0941 0.113324 25.3682 0.21582L25.4844 0.267578L49.2764 12.4668C49.5755 12.6215 49.7853 12.9345 49.8271 13.2686C49.8272 13.2708 49.8271 13.2738 49.8271 13.2773C49.8275 13.2896 49.8278 13.3075 49.8281 13.3311C49.8288 13.378 49.8295 13.4457 49.8301 13.5332C49.8312 13.7085 49.8322 13.9622 49.833 14.2822C49.8347 14.9221 49.8362 15.8287 49.8369 16.9131C49.8384 19.0824 49.8379 21.9636 49.8379 24.8447C49.8379 27.7257 49.8384 30.6075 49.8398 32.7783C49.8406 33.8636 49.8411 34.7718 49.8428 35.4131C49.8436 35.7335 49.8446 35.9876 49.8457 36.1641C49.8463 36.2523 49.847 36.3217 49.8477 36.3701C49.848 36.3941 49.8483 36.4135 49.8486 36.4277C49.8487 36.4318 49.8492 36.4391 49.8496 36.4473C49.8496 37.019 49.3813 37.4873 48.8096 37.4873C48.2379 37.4872 47.7695 37.019 47.7695 36.4473V15.1113L47.5508 15.2236L40.624 18.7705L40.542 18.8115V31.6387C40.542 32.0845 40.2514 32.4805 39.834 32.627C39.8137 32.6318 39.7896 32.6384 39.7656 32.6455C39.7262 32.6572 39.6739 32.6733 39.6113 32.6934C39.486 32.7335 39.314 32.7912 39.1025 32.8623C38.6792 33.0047 38.095 33.2045 37.4043 33.4424C36.0233 33.918 34.2108 34.5472 32.4014 35.1709C30.5908 35.795 28.7803 36.4148 27.3994 36.874C26.7092 37.1036 26.1271 37.2925 25.7061 37.4219C25.4955 37.4866 25.3264 37.5364 25.2051 37.5684C25.1442 37.5844 25.0967 37.5951 25.0635 37.6016C25.0484 37.6045 25.0379 37.6057 25.0312 37.6064L25.0176 37.6045L25.002 37.6064C24.9952 37.6056 24.9849 37.6043 24.9707 37.6016C24.9376 37.5951 24.8908 37.5843 24.8301 37.5684C24.7088 37.5364 24.5398 37.4867 24.3291 37.4219C23.9083 37.2924 23.3265 37.1036 22.6367 36.874C21.2567 36.4148 19.4475 35.795 17.6377 35.1709C15.8285 34.547 14.0168 33.9182 12.6348 33.4424C11.9437 33.2045 11.3588 33.0047 10.9346 32.8623C10.7228 32.7912 10.5507 32.7335 10.4248 32.6934C10.3619 32.6733 10.3094 32.6572 10.2695 32.6455C10.2449 32.6383 10.2201 32.6318 10.1992 32.627C9.77256 32.4809 9.49219 32.0862 9.49219 31.6387V18.8359Z" fill="#1D60E4" stroke="white" stroke-width="0.3"/>
</svg>
