<svg width="50" height="50" viewBox="0 0 50 50" fill="none" xmlns="http://www.w3.org/2000/svg">
<g clip-path="url(#clip0_130_1214)">
<path d="M13.1538 41.3034C11.4984 41.3034 10.3417 41.1998 10.1971 41.1854C10.0545 41.1721 9.91699 41.1251 9.79613 41.0482C9.67527 40.9712 9.5745 40.8666 9.50218 40.7429C9.42985 40.6192 9.38806 40.4801 9.38026 40.337C9.37246 40.1939 9.39889 40.0511 9.45735 39.9202C10.2804 38.1922 11.3664 36.6021 12.6767 35.2069C7.02354 33.8116 1.56312 27.9777 1.3101 27.6934C1.2273 27.6054 1.16324 27.5015 1.12181 27.388C1.08039 27.2745 1.06247 27.1537 1.06913 27.0331C1.07573 26.9122 1.10642 26.7939 1.15939 26.6851C1.21236 26.5763 1.28654 26.4791 1.37758 26.3994L2.91015 25.062C1.61597 23.1403 0.644884 21.0199 0.035366 18.7847C-1.89255e-05 18.6619 -0.00898227 18.5331 0.00906792 18.4066C0.0271181 18.2802 0.0717716 18.159 0.140083 18.0511C0.208394 17.9431 0.298811 17.8509 0.40537 17.7805C0.51193 17.71 0.632211 17.663 0.75828 17.6425C2.66259 17.3426 4.59795 17.2932 6.51509 17.4955L6.23315 15.6978C6.21066 15.555 6.22278 15.4089 6.26847 15.2717C6.31416 15.1345 6.3921 15.0103 6.49574 14.9095C6.59938 14.8087 6.72569 14.7342 6.86408 14.6924C7.00246 14.6505 7.14887 14.6424 7.29101 14.6689C10.1371 15.3947 12.8784 16.4823 15.4479 17.9051C14.4461 14.6229 14.2298 11.1511 14.8166 7.76986C14.841 7.64031 14.8933 7.51766 14.97 7.41045C15.0467 7.30324 15.1459 7.21405 15.2606 7.14912C15.3754 7.08419 15.5029 7.04507 15.6343 7.0345C15.7657 7.02393 15.8978 7.04215 16.0214 7.08791L19.9179 8.52169L24.2289 1.31905C24.3519 1.11326 24.5517 0.964775 24.7842 0.906252C25.0167 0.84773 25.2629 0.883968 25.4687 1.00699C25.6745 1.13002 25.823 1.32976 25.8815 1.56226C25.94 1.79477 25.9038 2.041 25.7807 2.24679L21.0794 10.0928C20.9712 10.2733 20.8036 10.4105 20.6053 10.4808C20.407 10.5512 20.1904 10.5503 19.9926 10.4784L16.4479 9.17231C15.8891 12.7555 16.5529 16.4224 18.3323 19.5823C18.4539 19.7504 18.514 19.9553 18.5024 20.1625C18.4908 20.3696 18.4082 20.5665 18.2686 20.72C18.1289 20.8735 17.9407 20.9743 17.7356 21.0054C17.5304 21.0364 17.3208 20.996 17.1419 20.8907C14.3072 19.2352 11.3219 17.8522 8.22598 16.7605L8.50551 18.5557C8.52893 18.7109 8.51153 18.8695 8.45503 19.0159C8.39853 19.1623 8.30488 19.2915 8.18329 19.3907C8.0617 19.4899 7.91637 19.5558 7.76161 19.5817C7.60684 19.6077 7.44798 19.593 7.30065 19.5389C5.59595 19.1226 3.82671 19.0408 2.09085 19.2979C2.5879 21.1669 3.49967 22.8998 4.7584 24.368C4.8696 24.4472 4.96141 24.5505 5.02693 24.6703C5.09246 24.7901 5.12999 24.9231 5.13671 25.0595C5.14344 25.1958 5.11918 25.3319 5.06576 25.4576C5.01234 25.5832 4.93115 25.6951 4.82829 25.7849L3.28607 27.1295C5.05962 28.8669 10.12 33.4309 14.6117 33.6863C14.7899 33.6963 14.961 33.7588 15.1037 33.866C15.2464 33.9731 15.3541 34.1201 15.4134 34.2883C15.4727 34.4566 15.4808 34.6387 15.4368 34.8116C15.3927 34.9845 15.2985 35.1404 15.166 35.2599C13.8413 36.5018 12.6845 37.9113 11.7249 39.4528C14.6358 39.5612 21.4553 39.4672 24.3614 36.578C24.5311 36.4086 24.7611 36.3136 25.0009 36.3138C25.2406 36.3141 25.4704 36.4095 25.6398 36.5792C25.8091 36.7489 25.9042 36.9789 25.9039 37.2186C25.9037 37.4583 25.8083 37.6882 25.6386 37.8575C22.6746 40.8143 16.7443 41.3034 13.1538 41.3034Z" fill="#1D60E4"/>
<path d="M25.0003 49.1108C24.7607 49.1108 24.5308 49.0156 24.3613 48.8461C24.1919 48.6767 24.0967 48.4468 24.0967 48.2072V16.9339C24.0967 16.6943 24.1919 16.4644 24.3613 16.2949C24.5308 16.1255 24.7607 16.0303 25.0003 16.0303C25.24 16.0303 25.4698 16.1255 25.6393 16.2949C25.8088 16.4644 25.904 16.6943 25.904 16.9339V48.2072C25.904 48.4468 25.8088 48.6767 25.6393 48.8461C25.4698 49.0156 25.24 49.1108 25.0003 49.1108Z" fill="#1D60E4"/>
<path d="M25 37.4526C24.8629 37.453 24.7275 37.422 24.6042 37.3618C24.481 37.3016 24.3732 37.214 24.2891 37.1056C21.5566 33.6121 18.3711 30.4979 14.8166 27.8451C14.7122 27.7837 14.6213 27.702 14.5492 27.6049C14.477 27.5077 14.4251 27.397 14.3966 27.2794C14.368 27.1618 14.3634 27.0396 14.383 26.9202C14.4025 26.8007 14.4459 26.6864 14.5105 26.5841C14.5751 26.4817 14.6596 26.3934 14.7589 26.3243C14.8583 26.2552 14.9706 26.2068 15.089 26.1819C15.2075 26.157 15.3297 26.1562 15.4485 26.1795C15.5673 26.2027 15.6801 26.2496 15.7804 26.3174C19.5233 29.0703 22.869 32.3259 25.7229 35.9924C25.7963 36.0858 25.8505 36.1928 25.8825 36.3073C25.9144 36.4217 25.9235 36.5413 25.9092 36.6593C25.8949 36.7773 25.8574 36.8912 25.799 36.9947C25.7406 37.0982 25.6623 37.1891 25.5687 37.2623C25.4068 37.3895 25.2059 37.4568 25 37.4526Z" fill="#1D60E4"/>
<path d="M36.8459 41.3034C33.2554 41.3034 27.3251 40.8215 24.3611 37.8672C24.1915 37.6978 24.096 37.468 24.0958 37.2282C24.0956 36.9885 24.1906 36.7585 24.3599 36.5888C24.5293 36.4191 24.7591 36.3237 24.9989 36.3235C25.2386 36.3232 25.4686 36.4183 25.6383 36.5876C28.5444 39.4793 35.3543 39.5708 38.2748 39.4624C37.3189 37.9168 36.1635 36.5038 34.8386 35.2599C34.706 35.1404 34.6118 34.9845 34.5678 34.8116C34.5238 34.6387 34.5319 34.4566 34.5912 34.2883C34.6504 34.1201 34.7582 33.9731 34.9008 33.866C35.0435 33.7588 35.2147 33.6963 35.3928 33.6863C39.8749 33.4309 44.9353 28.8669 46.7185 27.1295L45.1762 25.7849C45.0734 25.6951 44.9922 25.5832 44.9388 25.4576C44.8854 25.3319 44.8611 25.1958 44.8678 25.0595C44.8745 24.9231 44.9121 24.7901 44.9776 24.6703C45.0431 24.5505 45.1349 24.4472 45.2461 24.368C46.509 22.8993 47.4241 21.1646 47.9233 19.2931C46.1875 19.0346 44.418 19.1165 42.7135 19.5341C42.5662 19.5881 42.4073 19.6029 42.2526 19.5769C42.0978 19.5509 41.9525 19.4851 41.8309 19.3859C41.7093 19.2867 41.6156 19.1575 41.5591 19.0111C41.5026 18.8647 41.4852 18.7061 41.5087 18.5509L41.7882 16.7557C38.6923 17.8474 35.707 19.2304 32.8723 20.8859C32.6934 20.9912 32.4838 21.0316 32.2786 21.0005C32.0735 20.9694 31.8852 20.8687 31.7456 20.7152C31.6059 20.5617 31.5234 20.3648 31.5118 20.1576C31.5002 19.9504 31.5602 19.7456 31.6819 19.5774C33.4613 16.4176 34.1251 12.7506 33.5663 9.16749L30.0216 10.4736C29.8239 10.546 29.6071 10.5471 29.4087 10.4767C29.2103 10.4063 29.0426 10.2688 28.9348 10.088L24.2238 2.24679C24.1008 2.041 24.0645 1.79477 24.123 1.56226C24.1816 1.32976 24.3301 1.13002 24.5358 1.00699C24.7416 0.883968 24.9879 0.84773 25.2204 0.906252C25.4529 0.964775 25.6526 1.11326 25.7756 1.31905L30.0866 8.52169L33.9831 7.08791C34.1064 7.04347 34.2377 7.02607 34.3683 7.03688C34.4988 7.04769 34.6255 7.08646 34.7398 7.15056C34.8543 7.21529 34.9533 7.30424 35.0299 7.41121C35.1065 7.51818 35.1588 7.64058 35.1832 7.76986C35.7699 11.1511 35.5537 14.6229 34.5518 17.9051C37.1214 16.4823 39.8627 15.3947 42.7087 14.6689C42.8508 14.6424 42.9973 14.6505 43.1356 14.6924C43.274 14.7342 43.4003 14.8087 43.504 14.9095C43.6076 15.0103 43.6856 15.1345 43.7312 15.2717C43.7769 15.4089 43.7891 15.555 43.7666 15.6978L43.4846 17.4955C45.4016 17.2892 47.3375 17.3387 49.2414 17.6425C49.3675 17.663 49.4878 17.71 49.5943 17.7805C49.7009 17.8509 49.7913 17.9431 49.8596 18.0511C49.9279 18.159 49.9726 18.2802 49.9906 18.4066C50.0087 18.5331 49.9997 18.6619 49.9644 18.7847C49.3541 21.02 48.3822 23.1405 47.0872 25.062L48.6197 26.3994C48.7108 26.4791 48.785 26.5763 48.8379 26.6851C48.8909 26.7939 48.9216 26.9122 48.9282 27.0331C48.9348 27.1537 48.9169 27.2745 48.8755 27.388C48.8341 27.5015 48.77 27.6054 48.6872 27.6934C48.4342 27.9681 42.9738 33.8116 37.3206 35.2069C38.6309 36.6021 39.7169 38.1922 40.54 39.9202C40.5984 40.0511 40.6248 40.1939 40.617 40.337C40.6093 40.4801 40.5675 40.6192 40.4951 40.7429C40.4228 40.8666 40.322 40.9712 40.2012 41.0482C40.0803 41.1251 39.9428 41.1721 39.8002 41.1854C39.658 41.1998 38.4941 41.3034 36.8459 41.3034Z" fill="#1D60E4"/>
<path d="M25.0004 37.4526C24.7987 37.454 24.6024 37.3869 24.4438 37.2623C24.3502 37.1891 24.2719 37.0982 24.2135 36.9947C24.155 36.8912 24.1176 36.7773 24.1033 36.6593C24.0889 36.5413 24.098 36.4217 24.13 36.3073C24.162 36.1928 24.2162 36.0858 24.2895 35.9924C27.1398 32.3267 30.4814 29.0712 34.22 26.3174C34.3203 26.2496 34.4332 26.2027 34.552 26.1795C34.6707 26.1562 34.793 26.157 34.9114 26.1819C35.0299 26.2068 35.1421 26.2552 35.2415 26.3243C35.3409 26.3934 35.4254 26.4817 35.4899 26.5841C35.5545 26.6864 35.5979 26.8007 35.6174 26.9202C35.637 27.0396 35.6324 27.1618 35.6038 27.2794C35.5753 27.397 35.5234 27.5077 35.4513 27.6049C35.3791 27.702 35.2882 27.7837 35.1839 27.8451C31.6336 30.4987 28.4522 33.6129 25.7233 37.1056C25.638 37.2156 25.5283 37.3043 25.4028 37.3645C25.2774 37.4247 25.1396 37.4549 25.0004 37.4526Z" fill="#1D60E4"/>
</g>
<defs>
<clipPath id="clip0_130_1214">
<rect width="50" height="50" fill="white"/>
</clipPath>
</defs>
</svg>
