<svg width="50" height="50" viewBox="0 0 50 50" fill="none" xmlns="http://www.w3.org/2000/svg">
<path d="M25 40.2519H23.4375C23.3027 40.2519 23.1702 40.217 23.0529 40.1506C22.9355 40.0842 22.8374 39.9886 22.768 39.873L20.6516 36.3457H18.75C18.6287 36.3457 18.5091 36.3174 18.4006 36.2632C18.2921 36.209 18.1978 36.1302 18.125 36.0332L16.0156 33.2207H13.2812C11.4934 33.1135 9.76257 32.5512 8.25313 31.5871L6.00313 30.8371C5.92347 30.8103 5.84857 30.771 5.78125 30.7207C2.34375 28.1425 2.34375 27.2605 2.34375 26.9707C1.72727 25.4794 0.980363 24.0454 0.111719 22.6855C0.0386643 22.564 4.5208e-05 22.4249 3.40086e-07 22.2832V20.7207C-0.000112732 20.5995 0.0279713 20.4799 0.0820316 20.3715L0.78125 18.9738V16.8144C0.781219 16.7052 0.804108 16.5971 0.848438 16.4972L3.97344 9.46598C4.03834 9.31883 4.14708 9.19529 4.2848 9.11223C4.42253 9.02918 4.58253 8.99065 4.74297 9.00192L26.618 10.5644C26.663 10.5681 26.7077 10.5754 26.7516 10.5863L33.0016 12.1488C33.1231 12.1791 33.2355 12.2382 33.3294 12.321C33.4233 12.4039 33.4959 12.5081 33.5411 12.6249C33.5863 12.7417 33.6027 12.8677 33.5891 12.9922C33.5754 13.1166 33.532 13.236 33.4625 13.3402L32.0312 15.4863V17.8113L32.8125 18.0722V16.8144C32.8124 16.6692 32.8528 16.5269 32.9291 16.4034C33.0054 16.2799 33.1147 16.1801 33.2445 16.1152L34.807 15.334C34.9155 15.2799 35.0351 15.2518 35.1562 15.2519H36.7188C36.9259 15.2519 37.1247 15.3342 37.2712 15.4807C37.4177 15.6273 37.5 15.826 37.5 16.0332V18.3769H37.7984L39.1445 15.6839C39.2094 15.5541 39.3092 15.4449 39.4327 15.3686C39.5562 15.2922 39.6986 15.2519 39.8438 15.2519H41.6242L42.2281 13.4425C42.2697 13.3179 42.342 13.2057 42.4384 13.1164C42.5348 13.0271 42.6522 12.9635 42.7797 12.9316L45.45 12.2636L46.1172 9.59333C46.1595 9.42438 46.2571 9.27443 46.3944 9.16728C46.5317 9.06012 46.7008 9.00192 46.875 9.00192H48.4375C48.6014 9.00204 48.7611 9.05371 48.894 9.14961C49.0269 9.24552 49.1263 9.38079 49.1781 9.53629L49.9594 11.88C49.9861 11.9596 49.9998 12.043 50 12.1269C50 12.9863 48.8961 13.9941 47.8016 14.7832L48.3969 16.5707C48.448 16.7257 48.4493 16.8929 48.4005 17.0487C48.3518 17.2046 48.2554 17.3412 48.125 17.4394L45.3125 19.5488V26.1894C45.3133 26.3353 45.2733 26.4784 45.1969 26.6027C45.1205 26.7269 45.0109 26.8274 44.8805 26.8925C44.0211 27.3222 42.4547 29.8293 41.5 31.6652L43.6719 35.9965C43.7331 36.1195 43.7608 36.2565 43.7522 36.3937C43.7435 36.5309 43.6989 36.6633 43.6227 36.7777L42.0602 39.1215C41.9821 39.2385 41.8738 39.3323 41.7468 39.3929C41.6198 39.4535 41.4788 39.4787 41.3387 39.4659C41.1986 39.453 41.0646 39.4025 40.9508 39.3197C40.837 39.237 40.7476 39.125 40.6922 38.9957C39.7969 36.923 37.9766 34.0019 36.7188 34.0019C35.655 33.999 34.5984 34.1763 33.5938 34.5261V35.5644C33.5937 35.6831 33.5667 35.8002 33.5146 35.9068C33.4626 36.0135 33.3869 36.1069 33.2934 36.1799C33.1998 36.253 33.0909 36.3037 32.9748 36.3284C32.8588 36.3531 32.7386 36.351 32.6234 36.3222C31.148 35.9435 29.6431 35.69 28.125 35.5644C27.6734 35.5644 26.5102 37.4175 25.7406 39.7175C25.6888 39.873 25.5894 40.0083 25.4565 40.1042C25.3236 40.2001 25.1639 40.2518 25 40.2519ZM23.8797 38.6894H24.4445C25.0758 36.9527 26.3977 34.0019 28.125 34.0019C29.4418 34.0774 30.7492 34.2712 32.0312 34.5808V34.0019C32.0305 33.8561 32.0705 33.7129 32.1469 33.5887C32.2232 33.4644 32.3328 33.364 32.4633 33.2988C33.8042 32.7121 35.2552 32.4191 36.7188 32.4394C38.7875 32.4394 40.5891 35.3011 41.5211 37.109L42.068 36.2894L39.9266 32.0074C39.8724 31.8989 39.8442 31.7794 39.8442 31.6582C39.8442 31.5369 39.8724 31.4174 39.9266 31.309C40.3039 30.555 42.132 27.0121 43.7547 25.7668V19.1582C43.7547 19.0369 43.7829 18.9173 43.8372 18.8088C43.8914 18.7003 43.9702 18.6059 44.0672 18.5332L46.7414 16.5269L46.1391 14.7175C46.0848 14.5551 46.0855 14.3793 46.141 14.2172C46.1965 14.0552 46.3037 13.9158 46.4461 13.8207C47.1779 13.3593 47.8376 12.7925 48.4039 12.1386L47.8742 10.5644H47.4836L46.85 13.098C46.8156 13.2353 46.7444 13.3607 46.6443 13.4608C46.5441 13.5608 46.4186 13.6317 46.2812 13.666L43.5727 14.3433L42.9266 16.28C42.8749 16.4353 42.7757 16.5704 42.6431 16.6663C42.5105 16.7621 42.3511 16.814 42.1875 16.8144H40.3266L38.9844 19.5074C38.9192 19.6379 38.8188 19.7475 38.6945 19.8238C38.5703 19.9002 38.4271 19.9402 38.2812 19.9394H36.7188C36.5116 19.9394 36.3128 19.8571 36.1663 19.7106C36.0198 19.5641 35.9375 19.3654 35.9375 19.1582V16.8144H35.3406L34.375 17.2972V19.1582C34.375 19.282 34.3456 19.404 34.2893 19.5142C34.2329 19.6244 34.1511 19.7196 34.0507 19.792C33.9503 19.8644 33.8341 19.9119 33.7118 19.9306C33.5894 19.9493 33.4643 19.9387 33.3469 19.8996L31.0031 19.1183C30.8475 19.0665 30.7121 18.967 30.6162 18.8339C30.5203 18.7008 30.4687 18.541 30.4688 18.3769V15.2519C30.469 15.0976 30.5146 14.9468 30.6 14.8183L31.5477 13.3972L26.4391 12.1199L5.17891 10.6011L2.34375 16.98V19.1582C2.34508 19.2791 2.31834 19.3986 2.26563 19.5074L1.5625 20.905V22.0675C2.62031 23.841 3.82031 26.0175 3.90156 26.8832C4.68909 27.8392 5.60323 28.6834 6.61875 29.3925L8.84062 30.1332C8.90612 30.1556 8.96857 30.186 9.02656 30.2238C10.3038 31.0476 11.766 31.5406 13.2812 31.6582H16.4062C16.5275 31.6582 16.6472 31.6864 16.7556 31.7406C16.8641 31.7949 16.9585 31.8736 17.0312 31.9707L19.1406 34.7832H21.0938C21.2286 34.7832 21.3611 34.8181 21.4784 34.8845C21.5957 34.9509 21.6939 35.0465 21.7633 35.1621L23.8797 38.6894Z" fill="#1D60E4"/>
<path d="M19.5313 13.6894H32.0313V15.2519H19.5313V13.6894ZM19.5313 17.5957H31.25V19.1582H19.5313V17.5957ZM42.1875 21.5019H44.5313V23.0644H42.1875V21.5019ZM39.0625 21.5019H40.625V23.0644H39.0625V21.5019ZM19.5313 21.5019H37.5V23.0644H19.5313V21.5019ZM2.34375 25.4082H44.5313V26.9707H2.34375V25.4082ZM17.1875 33.2207H32.8125V34.7832H17.1875V33.2207ZM16.4063 29.3144H41.4063V30.8769H16.4063V29.3144ZM6.25 29.3144H14.8438V30.8769H6.25V29.3144Z" fill="#1D60E4"/>
<path d="M18.75 10.5644H20.3125V26.1894H18.75V10.5644ZM38.2813 33.2207H42.1875V34.7832H38.2813V33.2207ZM33.5938 17.5957H36.7188V19.1582H33.5938V17.5957ZM39.0625 17.5957H45.3125V19.1582H39.0625V17.5957ZM42.9688 13.6894H47.6563V15.2519H42.9688V13.6894ZM14.0625 13.6894H15.625V15.2519H14.0625V13.6894ZM14.0625 19.9394H15.625V21.5019H14.0625V19.9394ZM11.7188 10.5644H13.2813V12.1269H11.7188V10.5644ZM16.4063 10.5644H17.9688V12.1269H16.4063V10.5644ZM11.7188 16.8144H13.2813V18.3769H11.7188V16.8144ZM16.4063 16.8144H17.9688V18.3769H16.4063V16.8144ZM11.7188 23.0644H13.2813V24.6269H11.7188V23.0644ZM16.4063 23.0644H17.9688V24.6269H16.4063V23.0644ZM9.375 13.6894H10.9375V15.2519H9.375V13.6894ZM9.375 19.9394H10.9375V21.5019H9.375V19.9394ZM7.03125 10.5644H8.59375V12.1269H7.03125V10.5644ZM7.03125 16.8144H8.59375V18.3769H7.03125V16.8144ZM7.03125 23.0644H8.59375V24.6269H7.03125V23.0644ZM4.6875 13.6894H6.25V15.2519H4.6875V13.6894ZM4.6875 19.9394H6.25V21.5019H4.6875V19.9394ZM2.34375 16.8144H3.90625V18.3769H2.34375V16.8144ZM2.34375 23.0644H3.90625V24.6269H2.34375V23.0644Z" fill="#1D60E4"/>
</svg>
