<svg width="75" height="75" viewBox="0 0 75 75" fill="none" xmlns="http://www.w3.org/2000/svg">
<path d="M32.8129 56.2499C31.9501 56.2499 31.2502 55.5517 31.2502 54.6878C31.2502 52.1031 33.353 50.0003 35.9377 50.0003H50.0001C51.7236 50.0003 53.1249 48.5985 53.1249 46.8749C53.1249 45.1514 51.7236 43.7502 50.0001 43.7502H35.9377C35.7707 43.7502 35.6035 43.7222 35.4439 43.6689L30.9972 42.1875H23.4379C20.8686 42.1875 18.4254 43.1597 16.73 44.8549L15.1673 46.4172C15.0224 46.5625 14.8502 46.6777 14.6607 46.7564C14.4711 46.835 14.2679 46.8755 14.0627 46.8755C13.8575 46.8755 13.6543 46.835 13.4647 46.7564C13.2752 46.6777 13.103 46.5625 12.9581 46.4172C12.8128 46.2722 12.6975 46.1001 12.6189 45.9105C12.5402 45.721 12.4998 45.5178 12.4998 45.3126C12.4998 45.1073 12.5402 44.9041 12.6189 44.7146C12.6975 44.525 12.8128 44.3529 12.9581 44.2079L14.5208 42.6452C16.797 40.3689 20.047 39.0627 23.4379 39.0627H31.2502C31.4172 39.0627 31.5843 39.0907 31.744 39.144L36.1905 40.6254H50.0001C53.447 40.6254 56.2503 43.428 56.2503 46.8749C56.2503 50.3218 53.447 53.1251 50.0001 53.1251H35.9377C35.0765 53.1251 34.375 53.8249 34.375 54.6878C34.375 55.5517 33.6752 56.2499 32.8129 56.2499Z" fill="white"/>
<path d="M24.5423 65.1671L22.333 62.9578L25.4578 59.833C25.6027 59.6877 25.7749 59.5724 25.9646 59.4939C26.1542 59.4153 26.3575 59.375 26.5627 59.3753H47.88L64.4373 45.8285L71.3627 34.7489C70.997 34.5349 70.6125 34.3752 70.3127 34.3752C68.9279 34.3752 67.8344 34.3752 65.1674 37.0422L62.042 40.1676C61.9517 40.258 61.8516 40.3358 61.7422 40.4017L53.9299 45.0892L52.322 42.4095L59.97 37.8204L62.9593 34.8312C66.2763 31.5142 68.1749 31.2504 70.3127 31.2504C72.4607 31.2504 74.3358 33.0643 74.5424 33.2703C74.7921 33.5202 74.9498 33.8473 74.9898 34.1983C75.0298 34.5493 74.9498 34.9035 74.7627 35.2031L66.9498 47.7035C66.8593 47.8479 66.7459 47.9767 66.6139 48.0846L49.4267 62.147C49.1474 62.375 48.798 62.4997 48.4374 62.5001H27.2099L24.5423 65.1671Z" fill="white"/>
<path d="M20.3126 74.9998C20.1074 75.0001 19.9042 74.9598 19.7146 74.8813C19.525 74.8027 19.3529 74.6874 19.2081 74.542C19.0628 74.3971 18.9475 74.2249 18.8689 74.0354C18.7902 73.8458 18.7498 73.6426 18.7498 73.4374C18.7498 73.2322 18.7902 73.029 18.8689 72.8394C18.9475 72.6499 19.0628 72.4777 19.2081 72.3328L24.3535 67.1876L7.81284 50.6469L2.66746 55.7922C2.52252 55.9374 2.35035 56.0527 2.1608 56.1313C1.97125 56.21 1.76805 56.2505 1.56283 56.2505C1.35761 56.2505 1.15441 56.21 0.96486 56.1313C0.77531 56.0527 0.603136 55.9374 0.458197 55.7922C0.312915 55.6472 0.19765 55.475 0.119005 55.2855C0.0403597 55.0959 -0.00012207 54.8927 -0.00012207 54.6875C-0.00012207 54.4823 0.0403597 54.2791 0.119005 54.0896C0.19765 53.9 0.312915 53.7278 0.458197 53.5829L6.70777 47.3327C6.85284 47.1876 7.02509 47.0724 7.21467 46.9939C7.40426 46.9153 7.60747 46.8749 7.81269 46.8749C8.01792 46.8749 8.22113 46.9153 8.41072 46.9939C8.6003 47.0724 8.77255 47.1876 8.91762 47.3327L27.6675 66.0826C27.8127 66.2277 27.9278 66.3999 28.0064 66.5895C28.085 66.7791 28.1254 66.9823 28.1254 67.1876C28.1254 67.3928 28.085 67.596 28.0064 67.7856C27.9278 67.9752 27.8127 68.1474 27.6675 68.2925L21.4174 74.542C21.2724 74.6874 21.1002 74.8026 20.9106 74.8812C20.7209 74.9597 20.5178 75 20.3126 74.9998ZM56.2485 35.9379C55.9813 35.9379 55.7112 35.8704 55.4641 35.7251C54.7173 35.2908 54.4655 34.3329 54.8998 33.5879C56.8047 30.3172 57.8123 26.8079 57.8123 23.4376C57.8123 12.2379 48.7 3.12562 37.5004 3.12562C26.3001 3.12562 17.1878 12.2379 17.1878 23.4376C17.1878 26.8079 18.1954 30.3172 20.1003 33.5889C20.5346 34.3345 20.2817 35.2908 19.5361 35.7268C18.7894 36.1594 17.8349 35.9099 17.3989 35.1626C15.2177 31.4141 14.063 27.3594 14.063 23.4376C14.063 10.5144 24.5766 0.000244141 37.5004 0.000244141C50.4236 0.000244141 60.9377 10.5144 60.9377 23.4376C60.9377 27.3594 59.7842 31.4141 57.6001 35.1614C57.3111 35.6599 56.7858 35.9379 56.2485 35.9379Z" fill="white"/>
<path d="M40.6252 34.3754H34.375C31.791 34.3754 29.6875 32.2724 29.6875 29.6879C29.6875 28.8255 30.3878 28.1252 31.2502 28.1252C32.1125 28.1252 32.8129 28.8255 32.8129 29.6879C32.8129 30.549 33.5144 31.2505 34.375 31.2505H40.6252C41.4875 31.2505 42.1879 30.5489 42.1879 29.6879V26.563C42.1879 25.7019 41.4875 25.0004 40.6252 25.0004H34.375C31.791 25.0004 29.6875 22.8974 29.6875 20.3129V17.188C29.6875 14.6033 31.791 12.5005 34.375 12.5005H40.6252C43.2098 12.5005 45.3127 14.6033 45.3127 17.188C45.3127 18.0504 44.614 18.7502 43.75 18.7502C42.886 18.7502 42.1879 18.0504 42.1879 17.188C42.1879 16.3269 41.4875 15.6254 40.6252 15.6254H34.375C33.5144 15.6254 32.8129 16.3269 32.8129 17.188V20.3129C32.8129 21.174 33.5144 21.8755 34.375 21.8755H40.6252C43.2098 21.8755 45.3127 23.9783 45.3127 26.563V29.6879C45.3127 32.2724 43.2098 34.3754 40.6252 34.3754Z" fill="white"/>
<path d="M37.5003 37.5C36.6376 37.5 35.9377 36.8003 35.9377 35.9379V10.9379C35.9377 10.0755 36.6374 9.37518 37.5003 9.37518C38.3627 9.37518 39.0624 10.0755 39.0624 10.9379V35.9379C39.0624 36.8003 38.3627 37.5 37.5003 37.5ZM50.0001 21.8755H53.1249V25.0003H50.0001V21.8755ZM21.8752 21.8755H25V25.0003H21.8752V21.8755Z" fill="white"/>
</svg>
