<svg width="225" height="72" viewBox="0 0 225 72" fill="none" xmlns="http://www.w3.org/2000/svg">
<path d="M73.2946 70.9014V62.7327H78.1926V63.6102H74.2837V66.3703H77.8256V67.2478H74.2837V70.9014H73.2946Z" fill="black"/>
<path d="M92.0989 62.7327H93.088V68.1413C93.088 68.6997 92.9564 69.1982 92.6932 69.637C92.4326 70.0731 92.0643 70.4174 91.5883 70.67C91.1123 70.92 90.5539 71.045 89.9131 71.045C89.2723 71.045 88.7139 70.92 88.2379 70.67C87.7619 70.4174 87.3923 70.0731 87.1291 69.637C86.8685 69.1982 86.7382 68.6997 86.7382 68.1413V62.7327H87.7273V68.0615C87.7273 68.4603 87.8151 68.8153 87.9906 69.1264C88.1661 69.4349 88.416 69.6782 88.7405 69.8564C89.0675 70.0319 89.4584 70.1196 89.9131 70.1196C90.3678 70.1196 90.7587 70.0319 91.0858 69.8564C91.4128 69.6782 91.6628 69.4349 91.8356 69.1264C92.0111 68.8153 92.0989 68.4603 92.0989 68.0615V62.7327Z" fill="black"/>
<path d="M108.392 62.7327V70.9014H107.435L102.984 64.4877H102.904V70.9014H101.915V62.7327H102.872L107.339 69.1623H107.419V62.7327H108.392Z" fill="black"/>
<path d="M119.744 70.9014H117.223V62.7327H119.856C120.648 62.7327 121.326 62.8962 121.89 63.2233C122.454 63.5477 122.886 64.0144 123.186 64.6233C123.487 65.2296 123.637 65.9555 123.637 66.8011C123.637 67.652 123.485 68.3846 123.182 68.9988C122.879 69.6104 122.438 70.081 121.858 70.4108C121.278 70.7378 120.574 70.9014 119.744 70.9014ZM118.212 70.0239H119.68C120.356 70.0239 120.915 69.8936 121.359 69.633C121.803 69.3724 122.134 69.0015 122.352 68.5202C122.571 68.0389 122.68 67.4659 122.68 66.8011C122.68 66.1416 122.572 65.5739 122.356 65.098C122.141 64.6193 121.819 64.2524 121.391 63.9971C120.963 63.7392 120.43 63.6102 119.792 63.6102H118.212V70.0239Z" fill="black"/>
<path d="M136.615 64.7749C136.567 64.3707 136.373 64.0569 136.032 63.8336C135.692 63.6102 135.275 63.4985 134.78 63.4985C134.418 63.4985 134.102 63.557 133.831 63.674C133.562 63.791 133.352 63.9519 133.201 64.1566C133.052 64.3614 132.977 64.5941 132.977 64.8546C132.977 65.0727 133.029 65.2602 133.133 65.417C133.239 65.5713 133.375 65.7002 133.54 65.8039C133.704 65.905 133.877 65.9887 134.058 66.0552C134.239 66.119 134.405 66.1709 134.557 66.2108L135.386 66.4341C135.599 66.49 135.836 66.5671 136.096 66.6655C136.359 66.7639 136.611 66.8981 136.85 67.0683C137.092 67.2358 137.291 67.4512 137.448 67.7145C137.605 67.9777 137.684 68.3008 137.684 68.6837C137.684 69.1251 137.568 69.524 137.337 69.8803C137.108 70.2366 136.773 70.5198 136.332 70.7299C135.893 70.9399 135.36 71.045 134.732 71.045C134.147 71.045 133.641 70.9506 133.212 70.7618C132.787 70.573 132.452 70.3097 132.207 69.972C131.965 69.6343 131.828 69.2421 131.797 68.7954H132.818C132.844 69.1038 132.948 69.3591 133.129 69.5612C133.312 69.7606 133.544 69.9095 133.823 70.0079C134.105 70.1036 134.408 70.1515 134.732 70.1515C135.11 70.1515 135.449 70.0904 135.749 69.968C136.05 69.8431 136.288 69.6702 136.463 69.4495C136.639 69.2262 136.726 68.9656 136.726 68.6678C136.726 68.3965 136.651 68.1758 136.499 68.0056C136.348 67.8355 136.148 67.6972 135.901 67.5908C135.654 67.4845 135.386 67.3914 135.099 67.3116L134.094 67.0244C133.456 66.841 132.951 66.5791 132.578 66.2387C132.206 65.8983 132.02 65.4529 132.02 64.9025C132.02 64.4452 132.144 64.0463 132.391 63.7059C132.641 63.3629 132.976 63.097 133.396 62.9082C133.819 62.7168 134.291 62.621 134.812 62.621C135.338 62.621 135.806 62.7154 136.216 62.9042C136.625 63.0904 136.95 63.3456 137.189 63.67C137.431 63.9944 137.559 64.3627 137.572 64.7749H136.615Z" fill="black"/>
<path d="M157.161 62.7327V70.9014H156.172V62.7327H157.161Z" fill="black"/>
<path d="M172.473 62.7327V70.9014H171.516L167.065 64.4877H166.985V70.9014H165.996V62.7327H166.953L171.42 69.1623H171.5V62.7327H172.473Z" fill="black"/>
<path d="M187.877 65.2854H186.888C186.83 65.0009 186.727 64.7509 186.581 64.5356C186.438 64.3202 186.262 64.1394 186.055 63.9931C185.85 63.8442 185.623 63.7325 185.373 63.6581C185.123 63.5836 184.862 63.5464 184.591 63.5464C184.096 63.5464 183.648 63.6714 183.247 63.9213C182.848 64.1713 182.53 64.5396 182.293 65.0262C182.059 65.5128 181.942 66.1097 181.942 66.817C181.942 67.5244 182.059 68.1213 182.293 68.6079C182.53 69.0945 182.848 69.4628 183.247 69.7128C183.648 69.9627 184.096 70.0877 184.591 70.0877C184.862 70.0877 185.123 70.0505 185.373 69.976C185.623 69.9016 185.85 69.7912 186.055 69.645C186.262 69.4961 186.438 69.3139 186.581 69.0985C186.727 68.8805 186.83 68.6305 186.888 68.3487H187.877C187.803 68.7661 187.667 69.1397 187.471 69.4695C187.274 69.7992 187.029 70.0797 186.737 70.3111C186.444 70.5397 186.116 70.7139 185.751 70.8336C185.39 70.9532 185.003 71.013 184.591 71.013C183.894 71.013 183.275 70.8429 182.732 70.5025C182.19 70.1621 181.763 69.6782 181.452 69.0507C181.141 68.4231 180.985 67.6786 180.985 66.817C180.985 65.9555 181.141 65.211 181.452 64.5834C181.763 63.9559 182.19 63.4719 182.732 63.1316C183.275 62.7912 183.894 62.621 184.591 62.621C185.003 62.621 185.39 62.6809 185.751 62.8005C186.116 62.9202 186.444 63.0957 186.737 63.327C187.029 63.5557 187.274 63.8349 187.471 64.1646C187.667 64.4917 187.803 64.8653 187.877 65.2854Z" fill="black"/>
<path d="M196.886 70.9652C196.689 70.9652 196.52 70.8947 196.379 70.7538C196.238 70.6129 196.168 70.444 196.168 70.2472C196.168 70.0505 196.238 69.8816 196.379 69.7407C196.52 69.5998 196.689 69.5293 196.886 69.5293C197.082 69.5293 197.251 69.5998 197.392 69.7407C197.533 69.8816 197.604 70.0505 197.604 70.2472C197.604 70.3775 197.57 70.4972 197.504 70.6062C197.44 70.7152 197.354 70.803 197.245 70.8695C197.138 70.9333 197.019 70.9652 196.886 70.9652Z" fill="black"/>
<path d="M198.613 56.4628V26.0255H208.74V30.5911C213.297 22.4745 225.955 26.0255 224.943 26.0255C224.132 26.0255 222.242 32.4511 221.398 35.664C214.512 30.794 210.09 35.664 208.74 38.7077V56.4628H198.613Z" fill="#1F2E46"/>
<path d="M4.07734 6.52554L0 55.895H11.2127L14.2707 26.8841L23.9544 55.895H31.0898L41.2831 26.8841L43.3218 55.895H55.0442L49.9475 6.52554H38.2251L27.5221 35.5365L15.7997 6.52554H4.07734Z" fill="#1F2E46"/>
<path d="M87.6064 23.8336L84.5525 18.2555L110.511 3.54968L116.619 15.2129L141.559 3.04258L140.032 0L151.23 1.01419L146.14 10.1419L144.613 7.60645L114.583 22.8194L108.475 11.6632L87.6064 23.8336Z" fill="#1D60E4"/>
<path d="M75.8413 24.9409C83.1703 24.941 87.8867 30.3697 89.0747 33.0845C84.5955 38.7853 86.0211 47.8459 88.0571 50.8999C85.5121 53.4449 80.4223 57.517 75.8413 57.5171C71.2604 57.5171 65.4918 54.4631 64.1343 52.9361V70.7505H54.9722V25.9585H64.1343V30.0308C64.9828 28.3341 68.5119 24.9409 75.8413 24.9409ZM72.7876 34.1021C68.5709 34.1021 65.1519 37.5211 65.1519 41.7378C65.152 45.9544 68.571 49.3726 72.7876 49.3726C77.004 49.3723 80.4222 45.9542 80.4224 41.7378C80.4224 37.5213 77.0041 34.1023 72.7876 34.1021Z" fill="#1F2E46"/>
<path d="M104.345 25.9596C113.622 25.9596 121.142 33.4798 121.142 42.7565C121.142 52.0332 113.622 59.5534 104.345 59.5534C95.0682 59.5533 87.548 52.0332 87.548 42.7565C87.5481 33.4799 95.0683 25.9597 104.345 25.9596ZM102.437 32.067C99.2797 32.067 96.7102 34.8079 96.7101 38.1754C96.7064 39.5118 97.1494 40.8061 97.9592 41.8258C98.7689 42.8454 99.8928 43.5241 101.129 43.7399L106.933 44.7721C107.277 44.8321 107.589 45.0209 107.815 45.3044C108.04 45.5878 108.163 45.9475 108.162 46.319C108.162 46.859 107.962 47.3776 107.604 47.7594C107.246 48.1412 106.76 48.355 106.254 48.3551H102.437C101.93 48.3551 101.444 48.1413 101.086 47.7594C100.728 47.3776 100.528 46.859 100.528 46.319H96.7101C96.7101 49.6865 99.2796 52.4274 102.437 52.4274V55.4811H106.254V52.4274C109.411 52.4272 111.98 49.6864 111.98 46.319C111.983 44.983 111.541 43.6891 110.732 42.6696C109.922 41.6499 108.797 40.9714 107.561 40.7555L101.757 39.7233C101.045 39.5971 100.528 38.9451 100.528 38.1754C100.528 37.0536 101.383 36.1393 102.437 36.1393H106.254C107.308 36.1395 108.162 37.0538 108.162 38.1754H111.98C111.98 34.808 109.411 32.0673 106.254 32.067V29.0133H102.437V32.067Z" fill="url(#paint0_linear_1274_1174)"/>
<path d="M153.257 56.4631L169.105 26.0432H157.858L150.19 41.7601L142.011 25.5362H135.365L127.697 41.7601L120.029 25.5362H109.805C122.892 30.4034 123.096 43.1121 121.562 48.8581L124.63 56.4631H131.787L139.455 40.2391L146.1 56.4631H153.257Z" fill="#1F2E46"/>
<path d="M182.222 24.9409C195.252 24.9409 198.51 36.4778 198.51 42.2466H175.096C175.436 44.7916 177.336 49.8823 182.222 49.8824C187.108 49.8824 190.027 46.8284 190.875 45.3013L197.493 49.8824C194.642 55.9902 186.124 57.8562 182.222 58.0259C170.413 58.0259 166.104 47.5063 165.425 42.2466C165.595 36.4778 169.192 24.941 182.222 24.9409ZM182.222 31.0484C176.929 31.0484 175.944 35.1208 176.114 37.1568H188.33C188.499 35.1208 187.515 31.0486 182.222 31.0484Z" fill="#1F2E46"/>
<defs>
<linearGradient id="paint0_linear_1274_1174" x1="114.127" y1="26.1091" x2="91.9531" y2="56.6243" gradientUnits="userSpaceOnUse">
<stop stop-color="#00B790"/>
<stop offset="1" stop-color="#2361E8"/>
</linearGradient>
</defs>
</svg>
