<svg width="225" height="71" viewBox="0 0 225 71" fill="none" xmlns="http://www.w3.org/2000/svg">
<path d="M73.6437 70.7118V62.0319H79.6449V62.9643H74.8557V65.8972H79.1953V66.8296H74.8557V70.7118H73.6437Z" fill="black"/>
<path d="M93.5182 62.0319H94.7302V67.7789C94.7302 68.3723 94.5689 68.9021 94.2464 69.3683C93.9271 69.8317 93.4759 70.1976 92.8927 70.466C92.3095 70.7316 91.6253 70.8644 90.8401 70.8644C90.055 70.8644 89.3708 70.7316 88.7876 70.466C88.2044 70.1976 87.7516 69.8317 87.429 69.3683C87.1098 68.9021 86.9501 68.3723 86.9501 67.7789V62.0319H88.1621V67.6942C88.1621 68.118 88.2696 68.4952 88.4846 68.8258C88.6997 69.1535 89.0059 69.4121 89.4034 69.6014C89.8041 69.7879 90.283 69.8811 90.8401 69.8811C91.3973 69.8811 91.8762 69.7879 92.2769 69.6014C92.6777 69.4121 92.9839 69.1535 93.1957 68.8258C93.4107 68.4952 93.5182 68.118 93.5182 67.6942V62.0319Z" fill="black"/>
<path d="M110.316 62.0319V70.7118H109.143L103.69 63.8967H103.592V70.7118H102.38V62.0319H103.553L109.026 68.8639H109.124V62.0319H110.316Z" fill="black"/>
<path d="M121.06 70.7118H117.971V62.0319H121.196C122.167 62.0319 122.998 62.2056 123.689 62.5532C124.379 62.8979 124.909 63.3938 125.277 64.0408C125.645 64.685 125.829 65.4564 125.829 66.3549C125.829 67.259 125.643 68.0375 125.272 68.6902C124.901 69.34 124.36 69.8401 123.65 70.1905C122.939 70.538 122.076 70.7118 121.06 70.7118ZM119.183 69.7794H120.981C121.809 69.7794 122.495 69.6409 123.039 69.364C123.583 69.0871 123.988 68.693 124.256 68.1816C124.523 67.6702 124.656 67.0613 124.656 66.3549C124.656 65.6542 124.524 65.0509 124.26 64.5452C123.997 64.0366 123.602 63.6467 123.078 63.3754C122.553 63.1013 121.9 62.9643 121.118 62.9643H119.183V69.7794Z" fill="black"/>
<path d="M138.565 64.2019C138.506 63.7724 138.269 63.439 137.852 63.2016C137.434 62.9643 136.923 62.8456 136.317 62.8456C135.874 62.8456 135.486 62.9078 135.154 63.0321C134.825 63.1564 134.567 63.3274 134.382 63.5449C134.199 63.7625 134.108 64.0097 134.108 64.2866C134.108 64.5183 134.172 64.7175 134.299 64.8842C134.429 65.0481 134.595 65.1851 134.797 65.2953C134.999 65.4027 135.211 65.4917 135.432 65.5623C135.654 65.6301 135.858 65.6852 136.043 65.7276L137.06 65.965C137.32 66.0243 137.61 66.1062 137.93 66.2108C138.252 66.3153 138.56 66.458 138.853 66.6389C139.15 66.8169 139.394 67.0457 139.586 67.3254C139.779 67.6052 139.875 67.9485 139.875 68.3553C139.875 68.8244 139.733 69.2482 139.45 69.6268C139.169 70.0054 138.759 70.3063 138.218 70.5296C137.68 70.7528 137.027 70.8644 136.258 70.8644C135.542 70.8644 134.921 70.7641 134.396 70.5635C133.875 70.3629 133.465 70.0831 133.165 69.7243C132.868 69.3655 132.701 68.9487 132.662 68.474H133.913C133.945 68.8018 134.072 69.073 134.294 69.2878C134.519 69.4997 134.802 69.6579 135.144 69.7624C135.489 69.8642 135.861 69.915 136.258 69.915C136.721 69.915 137.136 69.85 137.505 69.7201C137.873 69.5873 138.164 69.4036 138.379 69.1691C138.594 68.9317 138.702 68.6548 138.702 68.3384C138.702 68.0502 138.609 67.8157 138.423 67.6348C138.238 67.454 137.993 67.3071 137.69 67.1941C137.387 67.081 137.06 66.9821 136.708 66.8974L135.476 66.5922C134.695 66.3973 134.076 66.119 133.619 65.7573C133.163 65.3956 132.935 64.9224 132.935 64.3375C132.935 63.8515 133.087 63.4277 133.39 63.066C133.696 62.7015 134.106 62.419 134.621 62.2184C135.139 62.0149 135.718 61.9132 136.356 61.9132C137.001 61.9132 137.575 62.0135 138.076 62.2141C138.578 62.4119 138.976 62.6832 139.269 63.0279C139.565 63.3726 139.722 63.7639 139.738 64.2019H138.565Z" fill="black"/>
<path d="M156.197 70.7118V62.0319H157.409V69.7794H162.061V70.7118H156.197Z" fill="black"/>
<path d="M169.167 70.7118V62.0319H170.379V69.7794H175.032V70.7118H169.167Z" fill="black"/>
<path d="M189.802 64.7444H188.59C188.518 64.442 188.392 64.1764 188.213 63.9476C188.037 63.7187 187.822 63.5266 187.568 63.3712C187.317 63.2129 187.039 63.0943 186.733 63.0152C186.426 62.936 186.107 62.8965 185.775 62.8965C185.169 62.8965 184.62 63.0293 184.128 63.2949C183.639 63.5605 183.25 63.9518 182.96 64.4689C182.673 64.9859 182.53 65.6203 182.53 66.3718C182.53 67.1234 182.673 67.7577 182.96 68.2748C183.25 68.7919 183.639 69.1832 184.128 69.4488C184.62 69.7144 185.169 69.8472 185.775 69.8472C186.107 69.8472 186.426 69.8076 186.733 69.7285C187.039 69.6494 187.317 69.5322 187.568 69.3768C187.822 69.2185 188.037 69.025 188.213 68.7961C188.392 68.5644 188.518 68.2988 188.59 67.9993H189.802C189.71 68.4429 189.544 68.8399 189.303 69.1903C189.062 69.5406 188.762 69.8387 188.404 70.0845C188.046 70.3275 187.643 70.5126 187.197 70.6398C186.754 70.7669 186.28 70.8305 185.775 70.8305C184.921 70.8305 184.162 70.6496 183.497 70.288C182.833 69.9263 182.31 69.4121 181.929 68.7453C181.547 68.0784 181.357 67.2873 181.357 66.3718C181.357 65.4564 181.547 64.6652 181.929 63.9984C182.31 63.3316 182.833 62.8174 183.497 62.4557C184.162 62.094 184.921 61.9132 185.775 61.9132C186.28 61.9132 186.754 61.9768 187.197 62.1039C187.643 62.2311 188.046 62.4176 188.404 62.6634C188.762 62.9064 189.062 63.203 189.303 63.5534C189.544 63.9009 189.71 64.2979 189.802 64.7444Z" fill="black"/>
<path d="M197.674 70.7796C197.433 70.7796 197.226 70.7047 197.053 70.555C196.88 70.4052 196.794 70.2258 196.794 70.0167C196.794 69.8076 196.88 69.6282 197.053 69.4785C197.226 69.3287 197.433 69.2538 197.674 69.2538C197.915 69.2538 198.122 69.3287 198.294 69.4785C198.467 69.6282 198.553 69.8076 198.553 70.0167C198.553 70.1552 198.513 70.2823 198.431 70.3982C198.353 70.514 198.247 70.6073 198.113 70.6779C197.983 70.7457 197.837 70.7796 197.674 70.7796Z" fill="black"/>
<path d="M198.613 56.4628V26.0255H208.74V30.5911C213.297 22.4745 225.955 26.0255 224.943 26.0255C224.132 26.0255 222.242 32.4512 221.398 35.664C214.512 30.794 210.09 35.664 208.74 38.7077V56.4628H198.613Z" fill="#1F2E46"/>
<path d="M4.07734 6.52588L0 55.8954H11.2127L14.2707 26.8844L23.9544 55.8954H31.0897L41.2831 26.8844L43.3218 55.8954H55.0441L49.9475 6.52588H38.2251L27.5221 35.5368L15.7997 6.52588H4.07734Z" fill="#1F2E46"/>
<path d="M87.6062 23.8335L84.5523 18.2555L110.511 3.54968L116.618 15.2129L141.559 3.04258L140.032 0L151.229 1.01419L146.14 10.1419L144.613 7.60645L114.582 22.8193L108.475 11.6632L87.6062 23.8335Z" fill="#1D60E4"/>
<path d="M75.8411 24.941C83.1702 24.9411 87.8865 30.3697 89.0745 33.0845C84.5953 38.7853 86.021 47.8459 88.0569 50.9C85.512 53.4449 80.4221 57.5171 75.8411 57.5172C71.2603 57.5172 65.4916 54.4631 64.1341 52.9361V70.7505H54.972V25.9586H64.1341V30.0308C64.9826 28.3341 68.5118 24.941 75.8411 24.941ZM72.7874 34.1031C68.5708 34.1031 65.1518 37.5212 65.1517 41.7379C65.1517 45.9545 68.5707 49.3726 72.7874 49.3726C77.0039 49.3724 80.4222 45.9544 80.4222 41.7379C80.4221 37.5214 77.0039 34.1033 72.7874 34.1031Z" fill="#1F2E46"/>
<path d="M104.345 25.959C113.621 25.959 121.142 33.4792 121.142 42.7559C121.142 52.0326 113.621 59.5527 104.345 59.5527C95.0681 59.5527 87.5479 52.0325 87.5479 42.7559C87.5479 33.4792 95.0681 25.959 104.345 25.959ZM102.437 32.0674C99.2795 32.0674 96.7101 34.8074 96.71 38.1748C96.7062 39.5112 97.1492 40.8055 97.959 41.8252C98.7687 42.8448 99.8926 43.5234 101.129 43.7393L106.933 44.7715C107.276 44.8315 107.589 45.0203 107.814 45.3037C108.04 45.5873 108.163 45.9477 108.162 46.3193C108.162 46.8592 107.961 47.377 107.604 47.7588C107.246 48.1405 106.76 48.3554 106.254 48.3555H102.437C101.93 48.3555 101.444 48.1406 101.086 47.7588C100.728 47.3771 100.527 46.8591 100.527 46.3193H96.71C96.7101 49.6867 99.2796 52.4268 102.437 52.4268V55.4814H106.254V52.4268C109.411 52.4266 111.979 49.6866 111.979 46.3193C111.983 44.9831 111.541 43.6886 110.731 42.6689C109.922 41.6494 108.798 40.9708 107.562 40.7549L101.757 39.7227C101.045 39.5964 100.527 38.9444 100.527 38.1748C100.527 37.0531 101.383 36.1387 102.437 36.1387H106.254C107.307 36.1389 108.162 37.0532 108.162 38.1748H111.979C111.979 34.8075 109.411 32.0676 106.254 32.0674V29.0127H102.437V32.0674Z" fill="url(#paint0_linear_1274_1190)"/>
<path d="M153.257 56.4628L169.105 26.0429H157.858L150.19 41.7599L142.011 25.5359H135.365L127.697 41.7599L120.029 25.5359H109.805C122.891 30.4031 123.096 43.1119 121.562 48.8578L124.63 56.4628H131.786L139.455 40.2389L146.1 56.4628H153.257Z" fill="#1F2E46"/>
<path d="M182.222 24.941C195.252 24.941 198.51 36.4779 198.51 42.2466H175.096C175.435 44.7916 177.336 49.8823 182.222 49.8824C187.108 49.8824 190.027 46.8284 190.875 45.3013L197.492 49.8824C194.642 55.9902 186.124 57.8563 182.222 58.0259C170.413 58.0259 166.104 47.5063 165.425 42.2466C165.595 36.4779 169.192 24.941 182.222 24.941ZM182.222 31.0494C176.928 31.0494 175.944 35.1207 176.113 37.1568H188.329C188.499 35.1208 187.515 31.0495 182.222 31.0494Z" fill="#1F2E46"/>
<defs>
<linearGradient id="paint0_linear_1274_1190" x1="114.127" y1="26.1085" x2="91.9529" y2="56.6238" gradientUnits="userSpaceOnUse">
<stop stop-color="#00B790"/>
<stop offset="1" stop-color="#2361E8"/>
</linearGradient>
</defs>
</svg>
