<svg width="65" height="61" viewBox="0 0 65 61" fill="none" xmlns="http://www.w3.org/2000/svg">
<path d="M52.9809 13.4832C52.5151 13.4903 52.0711 13.682 51.7466 14.0162C51.422 14.3504 51.2434 14.7998 51.25 15.2656V54.5234C51.25 54.9896 51.4352 55.4367 51.7649 55.7664C52.0945 56.0961 52.5416 56.2812 53.0078 56.2812C53.474 56.2812 53.9211 56.0961 54.2508 55.7664C54.5804 55.4367 54.7656 54.9896 54.7656 54.5234V15.2656C54.7689 15.0304 54.725 14.797 54.6365 14.5791C54.5479 14.3612 54.4166 14.1632 54.2501 13.997C54.0837 13.8308 53.8856 13.6997 53.6676 13.6114C53.4496 13.5232 53.216 13.4796 52.9809 13.4832ZM11.9652 13.4832C11.4994 13.4903 11.0555 13.682 10.7309 14.0162C10.4064 14.3504 10.2278 14.7998 10.2344 15.2656V59.2109C10.2344 59.6771 10.4196 60.1242 10.7492 60.4539C11.0789 60.7836 11.526 60.9688 11.9922 60.9688H45.9766C46.4428 60.9688 46.8899 60.7836 47.2195 60.4539C47.5492 60.1242 47.7344 59.6771 47.7344 59.2109V15.2656C47.7344 14.7994 47.5492 14.3523 47.2195 14.0227C46.8899 13.693 46.4428 13.5078 45.9766 13.5078C45.5104 13.5078 45.0633 13.693 44.7336 14.0227C44.4039 14.3523 44.2188 14.7994 44.2188 15.2656V57.4531H13.75V15.2656C13.7533 15.0304 13.7094 14.797 13.6209 14.5791C13.5323 14.3612 13.4009 14.1632 13.2345 13.997C13.0681 13.8308 12.87 13.6997 12.652 13.6114C12.4339 13.5232 12.2004 13.4796 11.9652 13.4832ZM9.64844 7.64844C9.18224 7.64844 8.73513 7.83363 8.40548 8.16329C8.07582 8.49294 7.89063 8.94005 7.89062 9.40625C7.89063 9.87245 8.07582 10.3196 8.40548 10.6492C8.73513 10.9789 9.18224 11.1641 9.64844 11.1641H55.3516C55.8178 11.1641 56.2649 10.9789 56.5945 10.6492C56.9242 10.3196 57.1094 9.87245 57.1094 9.40625C57.1094 8.94005 56.9242 8.49294 56.5945 8.16329C56.2649 7.83363 55.8178 7.64844 55.3516 7.64844H9.64844Z" fill="white"/>
<path d="M6.13281 0.03125C3.2418 0.03125 0.859375 2.41367 0.859375 5.30469V13.5078C0.859375 16.3988 3.2418 18.7812 6.13281 18.7812C6.59901 18.7812 7.04612 18.5961 7.37577 18.2664C7.70543 17.9367 7.89062 17.4896 7.89062 17.0234C7.89062 16.5572 7.70543 16.1101 7.37577 15.7805C7.04612 15.4508 6.59901 15.2656 6.13281 15.2656C5.12852 15.2656 4.375 14.5121 4.375 13.5078V5.30469C4.375 4.30039 5.12852 3.54688 6.13281 3.54688H58.8672C59.8715 3.54688 60.625 4.30039 60.625 5.30469V13.5078C60.625 14.5121 59.8715 15.2656 58.8672 15.2656C58.401 15.2656 57.9539 15.4508 57.6242 15.7805C57.2946 16.1101 57.1094 16.5572 57.1094 17.0234C57.1094 17.4896 57.2946 17.9367 57.6242 18.2664C57.9539 18.5961 58.401 18.7812 58.8672 18.7812C61.7582 18.7812 64.1406 16.3988 64.1406 13.5078V5.30469C64.1406 2.41367 61.7582 0.03125 58.8672 0.03125H6.13281Z" fill="white"/>
<path d="M28.9574 18.7813C28.4914 18.7884 28.0473 18.9802 27.7227 19.3147C27.3981 19.6492 27.2197 20.0989 27.2266 20.5649V21.2692C24.8922 21.8106 23.125 23.9106 23.125 26.3985V28.1563C23.125 31.0473 25.5074 33.4297 28.3984 33.4297H29.5703C30.5746 33.4297 31.3281 34.1832 31.3281 35.1875V36.9453C31.3281 37.9496 30.5746 38.7032 29.5703 38.7032H28.3984C27.3941 38.7032 26.6406 37.9496 26.6406 36.9453C26.6406 36.4791 26.4554 36.032 26.1258 35.7024C25.7961 35.3727 25.349 35.1875 24.8828 35.1875C24.4166 35.1875 23.9695 35.3727 23.6399 35.7024C23.3102 36.032 23.125 36.4791 23.125 36.9453C23.125 39.4332 24.8922 41.5344 27.2266 42.0746V42.7801C27.2266 43.2463 27.4118 43.6934 27.7414 44.0231C28.0711 44.3527 28.5182 44.5379 28.9844 44.5379C29.4506 44.5379 29.8977 44.3527 30.2273 44.0231C30.557 43.6934 30.7422 43.2463 30.7422 42.7801V42.0746C33.0766 41.5344 34.8438 39.4332 34.8438 36.9453V35.1875C34.8438 32.2965 32.4613 29.9141 29.5703 29.9141H28.3984C27.3941 29.9141 26.6406 29.1606 26.6406 28.1563V26.3985C26.6406 25.3942 27.3941 24.6407 28.3984 24.6407H29.5703C30.5746 24.6407 31.3281 25.3942 31.3281 26.3985C31.3281 26.8647 31.5133 27.3118 31.843 27.6414C32.1726 27.9711 32.6197 28.1563 33.0859 28.1563C33.5521 28.1563 33.9992 27.9711 34.3289 27.6414C34.6586 27.3118 34.8438 26.8647 34.8438 26.3985C34.8438 23.9106 33.0766 21.8106 30.7422 21.2692V20.5649C30.7457 20.3296 30.7019 20.096 30.6134 19.878C30.5249 19.6599 30.3936 19.4618 30.2271 19.2955C30.0607 19.1292 29.8625 18.998 29.6444 18.9096C29.4263 18.8213 29.1927 18.7776 28.9574 18.7813Z" fill="white"/>
</svg>
