<svg width="25" height="25" viewBox="0 0 25 25" fill="none" xmlns="http://www.w3.org/2000/svg">
<path d="M14.7916 2.0835H12.2916C11.9462 2.0835 11.6666 2.36309 11.6666 2.7085C11.6666 3.05391 11.9462 3.3335 12.2916 3.3335H14.7916C15.137 3.3335 15.4166 3.05391 15.4166 2.7085C15.4166 2.36309 15.137 2.0835 14.7916 2.0835Z" fill="white"/>
<path d="M17.5 0H7.5C6.12168 0 5 1.12168 5 2.5V22.5C5 23.8783 6.12168 25 7.5 25H17.5C18.8783 25 20 23.8783 20 22.5V2.5C20 1.12168 18.8783 0 17.5 0ZM18.75 22.5C18.75 23.1904 18.1904 23.75 17.5 23.75H7.5C6.80957 23.75 6.25 23.1904 6.25 22.5V2.5C6.25 1.80957 6.80957 1.25 7.5 1.25H17.5C18.1904 1.25 18.75 1.80957 18.75 2.5V22.5Z" fill="white"/>
<path d="M12.5 22.9165C13.1904 22.9165 13.75 22.3569 13.75 21.6665C13.75 20.9761 13.1904 20.4165 12.5 20.4165C11.8096 20.4165 11.25 20.9761 11.25 21.6665C11.25 22.3569 11.8096 22.9165 12.5 22.9165Z" fill="white"/>
<path d="M10.2084 3.3335C10.5536 3.3335 10.8334 3.05367 10.8334 2.7085C10.8334 2.36332 10.5536 2.0835 10.2084 2.0835C9.8632 2.0835 9.58337 2.36332 9.58337 2.7085C9.58337 3.05367 9.8632 3.3335 10.2084 3.3335Z" fill="white"/>
</svg>
