<svg width="75" height="75" viewBox="0 0 75 75" fill="none" xmlns="http://www.w3.org/2000/svg">
<g clip-path="url(#clip0_1366_1230)">
<path d="M37.5001 17.0455C42.1992 17.0455 46.0228 13.222 46.0228 8.52284C46.0228 3.82372 42.1992 0 37.5001 0C32.801 0 28.9774 3.82356 28.9774 8.52268C28.9774 13.2218 32.8008 17.0455 37.5001 17.0455ZM37.5001 3.40904C40.3199 3.40904 42.6137 5.70283 42.6137 8.52268C42.6137 11.3425 40.3199 13.6363 37.5001 13.6363C34.6802 13.6363 32.3864 11.3425 32.3864 8.52268C32.3864 5.70283 34.6802 3.40904 37.5001 3.40904ZM25.8113 34.0909H49.1889C51.203 34.0909 52.841 32.323 52.841 30.1491V29.0571C52.841 26.209 51.4311 23.6073 49.1589 22.2672C46.4373 20.6625 42.2059 18.75 37.5001 18.75C32.7943 18.75 28.5629 20.6626 25.8413 22.2672C23.5691 23.6071 22.1592 26.209 22.1592 29.0571V30.1491C22.1592 32.3232 23.7971 34.0909 25.8113 34.0909ZM25.5682 29.0571C25.5682 27.4342 26.3555 25.9226 27.5724 25.2035C29.9279 23.8152 33.5634 22.159 37.5001 22.159C41.4368 22.159 45.0723 23.8153 47.4277 25.2035C48.6446 25.9226 49.432 27.434 49.432 29.0571V30.1491C49.432 30.5037 49.2306 30.6817 49.1889 30.6817H25.8113C25.7697 30.6817 25.5682 30.5035 25.5682 30.1491V29.0571ZM15.3409 57.9546C20.04 57.9546 23.8636 54.1311 23.8636 49.432C23.8636 44.7328 20.04 40.9091 15.3409 40.9091C10.6418 40.9091 6.81824 44.7327 6.81824 49.4318C6.81824 54.1309 10.6418 57.9546 15.3409 57.9546ZM15.3409 44.3182C18.1608 44.3182 20.4546 46.6119 20.4546 49.4318C20.4546 52.2517 18.1608 54.5454 15.3409 54.5454C12.5211 54.5454 10.2273 52.2517 10.2273 49.4318C10.2273 46.6119 12.5211 44.3182 15.3409 44.3182ZM26.9997 63.1765C24.2781 61.5717 20.0467 59.6592 15.3409 59.6592C10.6351 59.6592 6.40372 61.5719 3.68214 63.1765C1.40993 64.5164 0 67.1181 0 69.9663V71.0582C0 73.2321 1.63796 75 3.6521 75H27.0297C29.0439 75 30.6818 73.2321 30.6818 71.0582V69.9663C30.6818 67.1181 29.2719 64.5164 26.9997 63.1765ZM27.2728 71.0583C27.2728 71.4129 27.0714 71.591 27.0297 71.591H3.6521C3.61055 71.591 3.40904 71.4128 3.40904 71.0583V69.9664C3.40904 68.3435 4.19638 66.8319 5.41327 66.1128C7.76874 64.7245 11.4042 63.0683 15.3409 63.0683C19.2776 63.0683 22.9131 64.7246 25.2686 66.1128C26.4855 66.8319 27.2728 68.3433 27.2728 69.9664V71.0583ZM59.6591 57.9546C64.3582 57.9546 68.1818 54.1311 68.1818 49.432C68.1818 44.7328 64.3584 40.9091 59.6591 40.9091C54.9598 40.9091 51.1364 44.7327 51.1364 49.4318C51.1364 54.1309 54.96 57.9546 59.6591 57.9546ZM59.6591 44.3182C62.4789 44.3182 64.7727 46.6119 64.7727 49.4318C64.7727 52.2517 62.4789 54.5454 59.6591 54.5454C56.8392 54.5454 54.5454 52.2517 54.5454 49.4318C54.5454 46.6119 56.8394 44.3182 59.6591 44.3182ZM71.318 63.1765C68.5964 61.5717 64.3651 59.6592 59.6592 59.6592C54.9534 59.6592 50.722 61.5719 48.0005 63.1765C45.7282 64.5164 44.3183 67.1183 44.3183 69.9664V71.0583C44.3183 73.2323 45.9563 75.0002 47.9704 75.0002H71.3481C73.3622 75.0002 75.0002 73.2323 75.0002 71.0583V69.9664C75 67.1181 73.5901 64.5164 71.318 63.1765ZM71.591 71.0583C71.591 71.4129 71.3896 71.591 71.3479 71.591H47.9703C47.9287 71.591 47.7272 71.4128 47.7272 71.0583V69.9664C47.7272 68.3435 48.5145 66.8319 49.7314 66.1128C52.0869 64.7245 55.7224 63.0683 59.6591 63.0683C63.5958 63.0683 67.2313 64.7246 69.5867 66.1128C70.8036 66.8319 71.591 68.3433 71.591 69.9664V71.0583ZM46.0212 57.9546C46.5221 57.9546 47.0166 57.7349 47.3545 57.3154C47.9421 56.5797 47.8223 55.5076 47.0882 54.9184L39.2047 48.6117V39.2047C39.2047 38.2625 38.4423 37.5001 37.5001 37.5001C36.5579 37.5001 35.7955 38.2623 35.7955 39.2045V48.6128L27.912 54.9183C27.1779 55.5076 27.058 56.5795 27.6456 57.3153C27.9836 57.7347 28.4779 57.9545 28.979 57.9545C29.3518 57.9545 29.7281 57.833 30.0426 57.5817L37.5001 51.6158L44.9574 57.5817C45.2592 57.8234 45.6344 57.955 46.0212 57.9546Z" fill="white"/>
</g>
<defs>
<clipPath id="clip0_1366_1230">
<rect width="75" height="75" fill="white"/>
</clipPath>
</defs>
</svg>
