<svg width="71" height="71" viewBox="0 0 71 71" fill="none" xmlns="http://www.w3.org/2000/svg">
<path d="M57.3285 22.3199L49.8754 14.8668C49.7218 14.7119 49.5281 14.603 49.316 14.5523C49.104 14.5015 48.8819 14.511 48.6749 14.5795C48.4679 14.6481 48.2841 14.773 48.1443 14.9403C48.0044 15.1076 47.914 15.3107 47.8832 15.5265C47.76 16.3882 47.3992 17.1986 46.8414 17.8668C46.2836 18.5351 45.5507 19.0348 44.7249 19.31C43.8991 19.5852 43.0129 19.625 42.1658 19.425C41.3186 19.225 40.5439 18.793 39.9284 18.1775C39.3128 17.562 38.8809 16.7872 38.6809 15.9401C38.4808 15.0929 38.5206 14.2067 38.7958 13.3809C39.0711 12.5551 39.5708 11.8222 40.239 11.2644C40.9072 10.7066 41.7176 10.3459 42.5793 10.2226C42.7952 10.1918 42.9982 10.1014 43.1655 9.96156C43.3328 9.82169 43.4577 9.63792 43.5263 9.43091C43.5949 9.2239 43.6043 9.00187 43.5536 8.78979C43.5028 8.57771 43.3939 8.384 43.2391 8.23044L35.7859 0.777313C35.5662 0.55762 35.2682 0.434204 34.9574 0.434204C34.6467 0.434204 34.3487 0.55762 34.1289 0.777313L27.6566 7.24724C27.338 6.05448 26.7108 4.96667 25.8384 4.09318C24.9659 3.2197 23.8788 2.59134 22.6864 2.27129C21.494 1.95125 20.2384 1.9508 19.0458 2.27C17.8531 2.5892 16.7656 3.21679 15.8925 4.08966C15.0194 4.96253 14.3915 6.0499 14.072 7.24242C13.7525 8.43495 13.7526 9.69058 14.0723 10.8831C14.392 12.0755 15.0201 13.1628 15.8933 14.0355C16.7666 14.9082 17.8542 15.5357 19.0469 15.8547L12.5816 22.3199C12.3619 22.5397 12.2385 22.8377 12.2385 23.1484C12.2385 23.4591 12.3619 23.7572 12.5816 23.9769L19.0492 30.4527C17.6295 30.8341 16.3649 31.6509 15.4335 32.7883C14.5021 33.9257 13.9505 35.3264 13.8565 36.7935C13.7625 38.2606 14.1307 39.7202 14.9093 40.9672C15.6879 42.2142 16.8378 43.1858 18.1973 43.7453L15.4609 51.6379C15.0974 52.4568 14.9266 53.3482 14.9615 54.2435C14.9965 55.1388 15.2363 56.0142 15.6625 56.8023L19.7758 66.5289C19.791 66.5663 19.8086 66.6027 19.8285 66.6379C20.1166 67.1658 20.2669 67.7579 20.2656 68.3593V69.4843C20.2656 69.7951 20.3891 70.0932 20.6089 70.313C20.8286 70.5328 21.1267 70.6562 21.4375 70.6562C21.7483 70.6562 22.0464 70.5328 22.2661 70.313C22.4859 70.0932 22.6094 69.7951 22.6094 69.4843V68.3593C22.6081 67.3845 22.3666 66.4249 21.9062 65.5656L17.7918 55.839C17.7755 55.7988 17.7567 55.7597 17.7355 55.7218C17.467 55.2316 17.3177 54.685 17.2997 54.1264C17.2818 53.5677 17.3958 53.0126 17.6324 52.5062L20.4988 44.2562C20.6219 44.2562 20.7426 44.2738 20.8668 44.2738C22.4135 44.2752 23.9173 43.7656 25.1445 42.8242C26.3717 41.8829 27.2536 40.5625 27.6531 39.0683L29.6406 41.0476V53.0781C29.6406 53.3889 29.7641 53.687 29.9839 53.9067C30.2036 54.1265 30.5017 54.25 30.8125 54.25C31.1233 54.25 31.4214 54.1265 31.6411 53.9067C31.8609 53.687 31.9844 53.3889 31.9844 53.0781V36.6718C31.9844 35.7394 32.3548 34.8452 33.0141 34.1859C33.6734 33.5266 34.5676 33.1562 35.5 33.1562C36.4324 33.1562 37.3266 33.5266 37.9859 34.1859C38.6452 34.8452 39.0156 35.7394 39.0156 36.6718V50.8644C39.0177 52.5015 39.3987 54.116 40.1289 55.5812L40.5578 56.4414C41.1249 57.581 41.42 58.8365 41.42 60.1093C41.42 61.3822 41.1249 62.6377 40.5578 63.7773L39.3859 66.1211C39.1427 66.6096 39.0159 67.1479 39.0156 67.6937V69.4843C39.0156 69.7951 39.1391 70.0932 39.3589 70.313C39.5786 70.5328 39.8767 70.6562 40.1875 70.6562C40.4983 70.6562 40.7964 70.5328 41.0161 70.313C41.2359 70.0932 41.3594 69.7951 41.3594 69.4843V67.6937C41.3582 67.5125 41.3983 67.3333 41.4766 67.1699L42.6484 64.8261C43.3773 63.3608 43.7567 61.7465 43.7567 60.1099C43.7567 58.4733 43.3773 56.859 42.6484 55.3937L42.2195 54.5336C41.7994 53.6897 41.5271 52.78 41.4145 51.8441C42.1756 52.608 43.0802 53.2138 44.0763 53.6267C45.0725 54.0396 46.1404 54.2514 47.2188 54.25C48.1512 54.25 49.0454 53.8796 49.7047 53.2203C50.364 52.561 50.7344 51.6667 50.7344 50.7343V44.0547C52.2469 43.6804 53.592 42.8139 54.5581 41.5915C55.5243 40.369 56.0565 38.8601 56.0711 37.302C56.0858 35.744 55.5819 34.2253 54.6389 32.9849C53.696 31.7446 52.3673 30.8529 50.8621 30.4504L57.3285 23.9746C57.5475 23.7549 57.6705 23.4574 57.6705 23.1472C57.6705 22.8371 57.5475 22.5396 57.3285 22.3199ZM47.2188 51.9062C45.6653 51.9044 44.176 51.2864 43.0776 50.188C41.9792 49.0895 41.3612 47.6003 41.3594 46.0468V39.9531L42.2547 39.0578C42.624 40.4456 43.4105 41.6865 44.5079 42.6128C45.6052 43.5392 46.9606 44.1063 48.3906 44.2375V50.7343C48.3906 51.0451 48.2672 51.3432 48.0474 51.563C47.8276 51.7828 47.5296 51.9062 47.2188 51.9062ZM47.3863 30.6168C47.2105 30.7906 47.0941 31.0157 47.0539 31.2597C47.0137 31.5037 47.0517 31.7541 47.1625 31.9752C47.2733 32.1963 47.4512 32.3767 47.6708 32.4905C47.8903 32.6043 48.1402 32.6458 48.3848 32.609C49.3584 32.4712 50.3506 32.643 51.2212 33.1002C52.0917 33.5574 52.7965 34.2768 53.2356 35.1566C53.6748 36.0364 53.8262 37.032 53.6684 38.0026C53.5105 38.9731 53.0515 39.8695 52.3562 40.5648C51.6609 41.2601 50.7646 41.7191 49.794 41.8769C48.8234 42.0348 47.8278 41.8834 46.9481 41.4442C46.0683 41.005 45.3489 40.3003 44.8917 39.4298C44.4345 38.5592 44.2626 37.5669 44.4004 36.5933C44.4372 36.3488 44.3958 36.0989 44.2819 35.8793C44.1681 35.6598 43.9877 35.4819 43.7667 35.3711C43.5456 35.2603 43.2951 35.2223 43.0511 35.2625C42.8071 35.3027 42.5821 35.419 42.4082 35.5949L41.3594 36.6461C41.356 35.0921 40.7354 33.6031 39.6341 32.5066C38.5328 31.4102 37.0411 30.7962 35.4871 30.7996C33.9331 30.803 32.4441 31.4236 31.3477 32.5249C30.2513 33.6261 29.6372 35.1178 29.6406 36.6718V37.7336L27.4926 35.5855C27.3187 35.4097 27.0937 35.2933 26.8497 35.2531C26.6057 35.2129 26.3552 35.2509 26.1341 35.3617C25.913 35.4725 25.7327 35.6504 25.6188 35.87C25.505 36.0895 25.4636 36.3394 25.5004 36.584C25.6382 37.5576 25.4663 38.5498 25.0091 39.4204C24.5519 40.2909 23.8325 40.9956 22.9527 41.4348C22.0729 41.874 21.0773 42.0254 20.1068 41.8676C19.1362 41.7097 18.2399 41.2507 17.5446 40.5554C16.8493 39.8601 16.3902 38.9637 16.2324 37.9932C16.0746 37.0226 16.226 36.027 16.6652 35.1472C17.1043 34.2675 17.809 33.5481 18.6796 33.0909C19.5501 32.6337 20.5424 32.4618 21.516 32.5996C21.7606 32.6367 22.0108 32.5955 22.2305 32.4818C22.4503 32.3681 22.6284 32.1877 22.7394 31.9665C22.8504 31.7454 22.8885 31.4948 22.8483 31.2506C22.8081 31.0065 22.6916 30.7813 22.5156 30.6074L15.066 23.1484L22.5238 15.6953C22.6997 15.5214 22.8161 15.2964 22.8562 15.0524C22.8964 14.8084 22.8584 14.5579 22.7476 14.3368C22.6368 14.1157 22.4589 13.9354 22.2394 13.8216C22.0198 13.7077 21.7699 13.6663 21.5254 13.7031C20.5531 13.839 19.5626 13.6662 18.6938 13.209C17.825 12.7518 17.1216 12.0334 16.683 11.1551C16.2443 10.2767 16.0925 9.28283 16.249 8.31361C16.4055 7.34439 16.8623 6.44876 17.5551 5.75309C18.4485 4.90196 19.6352 4.4272 20.8691 4.4272C22.1031 4.4272 23.2898 4.90196 24.1832 5.75309C24.696 6.26726 25.0824 6.89355 25.3118 7.58256C25.5412 8.27157 25.6073 9.00445 25.5051 9.72341C25.4682 9.96794 25.5097 10.2179 25.6235 10.4374C25.7374 10.6569 25.9177 10.8348 26.1388 10.9456C26.3599 11.0564 26.6104 11.0945 26.8544 11.0543C27.0984 11.0141 27.3234 10.8977 27.4973 10.7218L34.9609 3.26638L40.2121 8.51872C39.1971 9.0035 38.3131 9.72473 37.6346 10.6219C36.956 11.519 36.5026 12.5658 36.3123 13.6745C36.1221 14.7832 36.2007 15.9213 36.5414 16.9933C36.8821 18.0653 37.4751 19.0399 38.2705 19.8353C39.0659 20.6307 40.0405 21.2237 41.1125 21.5644C42.1845 21.9052 43.3227 21.9837 44.4313 21.7935C45.54 21.6033 46.5868 21.1498 47.484 20.4713C48.3811 19.7927 49.1023 18.9088 49.5871 17.8937L54.8395 23.1449L47.3863 30.6168ZM69.4844 24.9531H62.4531C62.1423 24.9531 61.8443 24.8296 61.6245 24.6099C61.4047 24.3901 61.2812 24.092 61.2812 23.7812C61.2812 23.4704 61.4047 23.1723 61.6245 22.9526C61.8443 22.7328 62.1423 22.6093 62.4531 22.6093H69.4844C69.7952 22.6093 70.0932 22.7328 70.313 22.9526C70.5328 23.1723 70.6562 23.4704 70.6562 23.7812C70.6562 24.092 70.5328 24.3901 70.313 24.6099C70.0932 24.8296 69.7952 24.9531 69.4844 24.9531ZM61.1863 11.4765C60.9284 11.4765 60.6776 11.3914 60.473 11.2344C60.2683 11.0773 60.1212 10.8571 60.0544 10.608C59.9877 10.3588 60.005 10.0946 60.1037 9.85623C60.2024 9.6179 60.377 9.4188 60.6004 9.28981L66.6941 5.77419C66.9632 5.62124 67.2817 5.5809 67.5804 5.66198C67.879 5.74306 68.1335 5.93898 68.2882 6.20697C68.4429 6.47496 68.4854 6.79328 68.4063 7.09245C68.3272 7.39163 68.133 7.64737 67.866 7.80388L61.7723 11.3195C61.5943 11.4228 61.3921 11.477 61.1863 11.4765ZM67.2742 41.9453C67.0684 41.9457 66.8663 41.8915 66.6883 41.7883L60.5945 38.2726C60.4602 38.1962 60.3423 38.094 60.2476 37.9719C60.1529 37.8498 60.0833 37.7101 60.0428 37.5609C60.0023 37.4118 59.9917 37.2561 60.0116 37.1028C60.0316 36.9496 60.0816 36.8018 60.1589 36.6679C60.2361 36.5341 60.3391 36.4169 60.4619 36.323C60.5847 36.2291 60.7248 36.1604 60.8742 36.1209C61.0236 36.0814 61.1794 36.0719 61.3325 36.0928C61.4856 36.1138 61.6331 36.1648 61.7664 36.2429L67.8602 39.7586C68.0835 39.8876 68.2581 40.0867 68.3569 40.325C68.4556 40.5633 68.4729 40.8275 68.4061 41.0767C68.3393 41.3259 68.1922 41.5461 67.9876 41.7031C67.7829 41.8601 67.5322 41.9453 67.2742 41.9453ZM8.54688 24.9531H1.51562C1.20482 24.9531 0.906753 24.8296 0.686984 24.6099C0.467215 24.3901 0.34375 24.092 0.34375 23.7812C0.34375 23.4704 0.467215 23.1723 0.686984 22.9526C0.906753 22.7328 1.20482 22.6093 1.51562 22.6093H8.54688C8.85768 22.6093 9.15575 22.7328 9.37552 22.9526C9.59528 23.1723 9.71875 23.4704 9.71875 23.7812C9.71875 24.092 9.59528 24.3901 9.37552 24.6099C9.15575 24.8296 8.85768 24.9531 8.54688 24.9531ZM9.81367 11.4765C9.6079 11.477 9.40571 11.4228 9.22773 11.3195L3.13398 7.80388C2.86702 7.64737 2.6728 7.39163 2.59371 7.09245C2.51461 6.79328 2.55706 6.47496 2.71179 6.20697C2.86652 5.93898 3.12097 5.74306 3.41961 5.66198C3.71826 5.5809 4.03685 5.62124 4.30586 5.77419L10.3996 9.28981C10.623 9.4188 10.7976 9.6179 10.8963 9.85623C10.995 10.0946 11.0123 10.3588 10.9456 10.608C10.8788 10.8571 10.7317 11.0773 10.527 11.2344C10.3224 11.3914 10.0716 11.4765 9.81367 11.4765ZM3.72578 41.9453C3.46782 41.9453 3.21707 41.8601 3.01242 41.7031C2.80777 41.5461 2.66066 41.3259 2.59389 41.0767C2.52712 40.8275 2.54444 40.5633 2.64315 40.325C2.74186 40.0867 2.91645 39.8876 3.13984 39.7586L9.23359 36.2429C9.36692 36.1648 9.51439 36.1138 9.66751 36.0928C9.82063 36.0719 9.97638 36.0814 10.1258 36.1209C10.2752 36.1604 10.4153 36.2291 10.5381 36.323C10.6609 36.4169 10.7639 36.5341 10.8411 36.6679C10.9184 36.8018 10.9684 36.9496 10.9884 37.1028C11.0083 37.2561 10.9977 37.4118 10.9572 37.5609C10.9167 37.7101 10.8471 37.8498 10.7524 37.9719C10.6577 38.094 10.5398 38.1962 10.4055 38.2726L4.31172 41.7883C4.13375 41.8915 3.93155 41.9457 3.72578 41.9453Z" fill="white"/>
</svg>
