<svg width="65" height="75" viewBox="0 0 65 75" fill="none" xmlns="http://www.w3.org/2000/svg">
<path d="M3.74145 51.5531L6.74653 51.8456L6.99413 55.5611C7.00733 55.7588 7.08784 55.9461 7.22225 56.0916C7.35666 56.2372 7.53687 56.3324 7.7329 56.3613L8.98046 56.5455L7.88871 58.2238C7.81752 58.3332 7.77197 58.4574 7.75545 58.5869C7.73893 58.7164 7.75187 58.848 7.79331 58.9718C7.83474 59.0957 7.90361 59.2085 7.99476 59.302C8.08592 59.3955 8.19701 59.4672 8.31974 59.5118L10.885 60.4432L10.2218 65.0856C10.204 65.21 10.2135 65.3369 10.2497 65.4573C10.6747 66.8739 11.5263 67.8665 12.781 68.4069C15.3559 69.5164 19.5581 68.6272 25.6119 65.688C26.9561 69.1344 27.8507 72.0253 28.2715 74.2913C28.3086 74.4903 28.4142 74.6701 28.5699 74.7995C28.7257 74.9288 28.9218 74.9996 29.1243 74.9996H61.5123C61.6909 74.9996 61.8652 74.9444 62.0113 74.8416C62.1574 74.7388 62.2682 74.5935 62.3285 74.4253C62.3889 74.2572 62.3959 74.0745 62.3485 73.9023C62.3011 73.7301 62.2017 73.5767 62.0639 73.4631C59.4943 71.3451 57.2534 65.5662 55.4021 56.2844C60.8592 48.0714 63.8248 38.4554 63.9414 28.5954C63.9288 23.9273 62.7403 19.3376 60.4856 15.25C58.2309 11.1625 54.9827 7.70893 51.0409 5.20814C41.5823 -0.792607 27.6608 -0.335124 17.1864 6.32114C8.41254 11.8969 4.0739 20.5421 5.28417 30.0408C5.29267 30.1076 5.30892 30.1731 5.33259 30.2361C7.55222 36.1454 7.13463 38.2752 6.65301 39.0293C3.26475 42.5417 1.26368 45.8042 1.01578 48.2236C0.975056 48.6214 1.01334 49.0234 1.12843 49.4064C1.24353 49.7894 1.43316 50.1458 1.68644 50.4553C1.93972 50.7648 2.25166 51.0211 2.60432 51.2097C2.95699 51.3982 3.34343 51.5152 3.74145 51.5539V51.5531ZM2.74135 48.3994C2.94487 46.4123 4.89333 43.3392 7.95318 40.1792C7.9852 40.146 8.01453 40.1104 8.04092 40.0726C9.29339 38.2803 8.96051 34.9899 6.9924 29.7215C5.91381 20.9568 9.96451 12.9653 18.1168 7.78465C28.0437 1.4763 41.2005 1.01911 50.1118 6.67252C53.8136 9.00757 56.864 12.2417 58.9789 16.0735C61.0938 19.9053 62.2043 24.2101 62.207 28.5869C62.0911 38.228 59.1556 47.6243 53.7624 55.6166C53.6987 55.7113 53.6542 55.8176 53.6316 55.9294C53.609 56.0413 53.6087 56.1565 53.6307 56.2685C55.2713 64.6155 57.2072 70.2147 59.5169 73.2655H29.8351C29.3084 70.8102 28.315 67.7556 26.8768 64.1705C26.8321 64.0591 26.7647 63.9581 26.679 63.8741C26.5933 63.7901 26.4911 63.7247 26.3788 63.6822C26.2665 63.6398 26.1467 63.621 26.0268 63.6273C25.9069 63.6335 25.7896 63.6646 25.6824 63.7185C18.2817 67.438 14.9545 67.4548 13.4673 66.814C12.7445 66.5027 12.2531 65.9517 11.9672 65.1325L12.7016 59.9911C12.7298 59.794 12.6892 59.5932 12.5868 59.4224C12.4844 59.2516 12.3263 59.1213 12.1392 59.0533L9.93821 58.2541L11.1716 56.3577C11.2509 56.2359 11.2982 56.096 11.3093 55.9511C11.3204 55.8062 11.2949 55.6607 11.2351 55.5282C11.1754 55.3957 11.0833 55.2804 10.9673 55.1928C10.8513 55.1052 10.7151 55.0481 10.5713 55.0269L8.67778 54.7476L8.42772 50.996C8.41406 50.7909 8.32802 50.5974 8.18493 50.4498C8.04185 50.3023 7.85101 50.2104 7.64646 50.1904L3.90956 49.8266C3.73898 49.81 3.57335 49.7599 3.42221 49.6791C3.27106 49.5983 3.13737 49.4884 3.02881 49.3558C2.92026 49.2232 2.83898 49.0704 2.78965 48.9063C2.74032 48.7421 2.7239 48.5699 2.74135 48.3994ZM14.6691 34.4911L17.8591 34.8829C18.2132 36.0604 18.6851 37.1992 19.2678 38.282L17.289 40.8153C17.0302 41.1473 16.9015 41.5623 16.9272 41.9825C16.9529 42.4027 17.1311 42.799 17.4285 43.0969L21.9485 47.617C22.2465 47.9143 22.6428 48.0926 23.0629 48.1183C23.4831 48.144 23.8982 48.0154 24.2302 47.7566L26.7636 45.7778C27.8464 46.3604 28.9852 46.8323 30.1627 47.1864L30.5547 50.3762C30.6063 50.7939 30.8088 51.1784 31.1241 51.4573C31.4393 51.7363 31.8456 51.8904 32.2665 51.8909H35.4621C35.6921 51.8909 35.9127 51.7995 36.0754 51.6368C36.238 51.4742 36.3294 51.2536 36.3294 51.0236V41.1556C36.3294 40.9255 36.238 40.705 36.0754 40.5423C35.9127 40.3797 35.6921 40.2883 35.4621 40.2883C34.0562 40.2883 32.6641 40.0114 31.3653 39.4734C30.0664 38.9354 28.8863 38.1468 27.8922 37.1527C26.8981 36.1586 26.1095 34.9785 25.5715 33.6796C25.0335 32.3807 24.7566 30.9886 24.7566 29.5828C24.7566 28.1769 25.0335 26.7848 25.5715 25.4859C26.1095 24.1871 26.8981 23.0069 27.8922 22.0128C28.8863 21.0187 30.0664 20.2302 31.3653 19.6922C32.6641 19.1542 34.0562 18.8773 35.4621 18.8773C35.6921 18.8773 35.9127 18.7859 36.0754 18.6232C36.238 18.4606 36.3294 18.24 36.3294 18.01V8.14196C36.3294 7.91195 36.238 7.69135 36.0754 7.52871C35.9127 7.36607 35.6921 7.27469 35.4621 7.27469H32.2665C31.8456 7.2751 31.4394 7.42922 31.1242 7.7081C30.8089 7.98697 30.6064 8.37139 30.5547 8.78908L30.1627 11.9787C28.9852 12.3329 27.8464 12.8049 26.7636 13.3876L24.2302 11.4089C23.8982 11.1502 23.4831 11.0216 23.063 11.0473C22.6428 11.073 22.2465 11.2512 21.9485 11.5484L17.4285 16.0693C17.1312 16.3673 16.9529 16.7635 16.9272 17.1837C16.9015 17.6038 17.0301 18.0189 17.2889 18.3508L19.2678 20.8842C18.6852 21.9671 18.2132 23.1058 17.8591 24.2834L14.6693 24.6754C14.2515 24.7271 13.8671 24.9296 13.5882 25.2448C13.3093 25.5601 13.1551 25.9664 13.1547 26.3873V32.7786C13.155 33.1996 13.3091 33.606 13.588 33.9214C13.8668 34.2367 14.2513 34.4393 14.6691 34.4911ZM14.8893 26.3951L18.6422 25.9339C18.814 25.9128 18.9755 25.8407 19.106 25.7271C19.2365 25.6134 19.33 25.4633 19.3745 25.296C19.7524 23.8751 20.3178 22.5108 21.056 21.2391C21.1429 21.0894 21.183 20.917 21.1711 20.7443C21.1592 20.5716 21.0959 20.4064 20.9893 20.2699L18.661 17.289L23.1691 12.7811L26.1498 15.1094C26.2862 15.2158 26.4513 15.2791 26.6239 15.2909C26.7964 15.3028 26.9686 15.2628 27.1183 15.1761C28.3899 14.4378 29.7542 13.8724 31.1752 13.4947C31.3425 13.4503 31.4927 13.3567 31.6064 13.2262C31.7201 13.0957 31.7921 12.9341 31.8132 12.7623L32.2745 9.00922H34.5948V17.1726C31.4535 17.3925 28.5123 18.7955 26.3647 21.0986C24.2171 23.4018 23.0229 26.4337 23.0229 29.5828C23.0229 32.7319 24.2171 35.7638 26.3647 38.0669C28.5123 40.3701 31.4535 41.7731 34.5948 41.9929V50.1565H32.2751L31.814 46.4035C31.7928 46.2318 31.7208 46.0702 31.6071 45.9397C31.4934 45.8092 31.3433 45.7157 31.1761 45.6713C29.7551 45.2934 28.3907 44.7279 27.119 43.9898C26.9694 43.903 26.7972 43.863 26.6246 43.8749C26.452 43.8868 26.2869 43.95 26.1506 44.0564L23.1691 46.3846L18.661 41.8765L20.9893 38.8958C21.0959 38.7593 21.1592 38.5941 21.1711 38.4214C21.183 38.2487 21.1429 38.0763 21.056 37.9266C20.3177 36.655 19.7522 35.2907 19.3743 33.8697C19.3299 33.7024 19.2364 33.5522 19.1058 33.4385C18.9753 33.3248 18.8137 33.2528 18.6419 33.2316L14.889 32.7704L14.8893 26.3951ZM42.5231 15.4494V21.3633H36.3249C36.3025 21.1502 36.202 20.953 36.0428 20.8097C35.8836 20.6664 35.6769 20.5871 35.4627 20.5872C33.0769 20.5872 30.7889 21.535 29.1019 23.222C27.4149 24.9089 26.4671 27.197 26.4671 29.5828C26.4671 31.9685 27.4149 34.2566 29.1019 35.9436C30.7889 37.6306 33.0769 38.5783 35.4627 38.5783C35.6769 38.5783 35.8835 38.499 36.0427 38.3558C36.2019 38.2125 36.3025 38.0154 36.325 37.8024H42.5231V43.7163C41.7803 43.9257 41.1384 44.3969 40.7159 45.0427C40.2934 45.6886 40.1189 46.4655 40.2246 47.23C40.3303 47.9945 40.7091 48.6949 41.291 49.2019C41.8729 49.7088 42.6186 49.9881 43.3904 49.9881C44.1621 49.9881 44.9078 49.7088 45.4897 49.2019C46.0716 48.6949 46.4504 47.9945 46.5561 47.23C46.6618 46.4655 46.4873 45.6886 46.0648 45.0427C45.6424 44.3969 45.0004 43.9257 44.2576 43.7163V37.4908C44.2572 37.1135 44.1071 36.7519 43.8403 36.4851C43.5735 36.2184 43.2118 36.0683 42.8346 36.0679H36.3301V34.1262H48.8281V40.0401C48.0853 40.2495 47.4433 40.7207 47.0208 41.3666C46.5983 42.0125 46.4238 42.7894 46.5295 43.554C46.6352 44.3185 47.014 45.0189 47.5959 45.5259C48.1778 46.0329 48.9236 46.3122 49.6954 46.3122C50.4672 46.3122 51.2129 46.0329 51.7948 45.5259C52.3768 45.0189 52.7556 44.3185 52.8613 43.554C52.967 42.7894 52.7925 42.0125 52.37 41.3666C51.9474 40.7207 51.3055 40.2495 50.5626 40.0401V33.8146C50.5622 33.4374 50.4122 33.0757 50.1454 32.8089C49.8787 32.5422 49.517 32.3921 49.1397 32.3917H36.3294V30.4502H51.4996C51.709 31.193 52.1802 31.835 52.8261 32.2575C53.4719 32.68 54.2489 32.8545 55.0134 32.7488C55.778 32.6431 56.4784 32.2643 56.9854 31.6824C57.4924 31.1005 57.7717 30.3547 57.7717 29.5829C57.7717 28.8111 57.4924 28.0654 56.9854 27.4835C56.4784 26.9015 55.778 26.5227 55.0134 26.417C54.2489 26.3113 53.4719 26.4858 52.8261 26.9083C52.1802 27.3308 51.709 27.9728 51.4996 28.7157H36.3294V26.774H49.1392C49.5164 26.7735 49.8781 26.6235 50.1449 26.3567C50.4116 26.0899 50.5616 25.7282 50.5621 25.351V19.1256C51.3049 18.9161 51.9468 18.445 52.3693 17.7991C52.7918 17.1533 52.9663 16.3764 52.8605 15.6119C52.7548 14.8474 52.376 14.147 51.7942 13.64C51.2123 13.133 50.4666 12.8538 49.6948 12.8538C48.923 12.8538 48.1773 13.133 47.5954 13.64C47.0135 14.147 46.6348 14.8474 46.529 15.6119C46.4233 16.3764 46.5978 17.1533 47.0203 17.7991C47.4428 18.445 48.0847 18.9161 48.8275 19.1256V25.0395H36.3294V23.0978H42.8339C43.2111 23.0974 43.5728 22.9473 43.8396 22.6806C44.1064 22.4138 44.2564 22.0522 44.2569 21.6749V15.4494C44.9997 15.24 45.6416 14.7688 46.0641 14.1229C46.4866 13.4771 46.6611 12.7002 46.5554 11.9357C46.4497 11.1712 46.0709 10.4708 45.489 9.96381C44.9071 9.45685 44.1614 9.17757 43.3896 9.17757C42.6179 9.17757 41.8722 9.45685 41.2903 9.96381C40.7084 10.4708 40.3296 11.1712 40.2239 11.9357C40.1182 12.7002 40.2927 13.4771 40.7152 14.1229C41.1376 14.7688 41.7796 15.24 42.5224 15.4494H42.5231ZM34.5948 36.7923C32.8321 36.58 31.2082 35.7292 30.0301 34.4008C28.8521 33.0724 28.2016 31.3584 28.2016 29.5828C28.2016 27.8073 28.8521 26.0933 30.0301 24.7649C31.2082 23.4365 32.8321 22.5857 34.5948 22.3733V36.7923ZM44.8511 46.7916C44.8511 47.0807 44.7654 47.3632 44.6048 47.6035C44.4443 47.8438 44.216 48.0311 43.949 48.1417C43.682 48.2523 43.3882 48.2813 43.1047 48.2249C42.8212 48.1685 42.5608 48.0293 42.3565 47.8249C42.1521 47.6206 42.0129 47.3602 41.9565 47.0767C41.9001 46.7932 41.9291 46.4994 42.0397 46.2324C42.1503 45.9654 42.3376 45.7371 42.5779 45.5766C42.8182 45.416 43.1008 45.3303 43.3898 45.3303C43.7773 45.3306 44.1489 45.4846 44.423 45.7586C44.6971 46.0326 44.8512 46.4041 44.8517 46.7916H44.8511ZM51.1563 43.1156C51.1562 43.4046 51.0704 43.6872 50.9097 43.9275C50.7491 44.1678 50.5207 44.355 50.2537 44.4656C49.9866 44.5761 49.6927 44.6049 49.4092 44.5485C49.1257 44.492 48.8653 44.3527 48.661 44.1482C48.4567 43.9437 48.3176 43.6833 48.2613 43.3998C48.205 43.1162 48.234 42.8224 48.3448 42.5554C48.4555 42.2883 48.6429 42.0602 48.8833 41.8997C49.1237 41.7392 49.4063 41.6535 49.6954 41.6537C50.0829 41.6541 50.4545 41.8083 50.7285 42.0823C51.0025 42.3564 51.1566 42.728 51.1569 43.1156H51.1563ZM54.575 28.1214C54.8641 28.1215 55.1466 28.2072 55.3869 28.3678C55.6272 28.5284 55.8144 28.7566 55.925 29.0236C56.0356 29.2906 56.0645 29.5844 56.0082 29.8679C55.9518 30.1514 55.8126 30.4117 55.6082 30.6161C55.4039 30.8205 55.1435 30.9596 54.86 31.016C54.5766 31.0724 54.2828 31.0435 54.0157 30.9329C53.7487 30.8223 53.5205 30.635 53.3599 30.3947C53.1993 30.1544 53.1136 29.8719 53.1136 29.5829C53.114 29.1955 53.2681 28.824 53.5421 28.55C53.8161 28.276 54.1876 28.1219 54.575 28.1214ZM48.234 16.0501C48.234 15.7611 48.3198 15.4785 48.4803 15.2381C48.6409 14.9978 48.8692 14.8105 49.1363 14.6999C49.4033 14.5893 49.6972 14.5603 49.9807 14.6167C50.2642 14.6731 50.5246 14.8123 50.729 15.0167C50.9334 15.2211 51.0726 15.4816 51.1289 15.7651C51.1853 16.0486 51.1564 16.3425 51.0457 16.6095C50.9351 16.8766 50.7477 17.1048 50.5074 17.2654C50.267 17.4259 49.9844 17.5116 49.6954 17.5116C49.3079 17.5111 48.9365 17.357 48.6625 17.083C48.3885 16.809 48.2345 16.4376 48.234 16.0501ZM43.3904 10.9126C43.6794 10.9126 43.962 10.9982 44.2024 11.1588C44.4427 11.3194 44.6301 11.5477 44.7407 11.8147C44.8513 12.0818 44.8803 12.3756 44.8239 12.6592C44.7675 12.9427 44.6283 13.2031 44.4239 13.4075C44.2195 13.6119 43.9591 13.7511 43.6756 13.8075C43.3921 13.8639 43.0982 13.8349 42.8311 13.7243C42.5641 13.6136 42.3358 13.4263 42.1753 13.1859C42.0147 12.9456 41.929 12.663 41.929 12.3739C41.9295 11.9865 42.0836 11.6151 42.3575 11.3411C42.6315 11.0672 43.0029 10.913 43.3904 10.9126Z" fill="white" stroke="white" stroke-width="0.5"/>
</svg>
