<svg width="75" height="75" viewBox="0 0 75 75" fill="none" xmlns="http://www.w3.org/2000/svg">
<g clip-path="url(#clip0_1274_1246)">
<path d="M37.4967 10.2239C33.7347 10.2239 30.6751 13.2835 30.6751 17.0455C30.6751 20.8076 33.7347 23.867 37.4967 23.867C41.2587 23.867 44.3181 20.8074 44.3181 17.0455C44.3181 13.2837 41.2586 10.2239 37.4967 10.2239ZM37.4967 20.4579C35.6157 20.4579 34.0843 18.9266 34.0843 17.0455C34.0843 15.1645 35.6157 13.6331 37.4967 13.6331C39.3777 13.6331 40.9091 15.1645 40.9091 17.0455C40.9091 18.9266 39.3777 20.4579 37.4967 20.4579Z" fill="white"/>
<path d="M73.2956 30.6818C74.2377 30.6818 75.0002 29.924 75.0002 28.982V22.1646C75.0002 21.5637 74.6839 21.0062 74.1662 20.6998L40.8225 0.898208C40.8075 0.888141 40.7925 0.879831 40.7776 0.871521C38.7051 -0.27697 36.368 -0.311807 34.1757 0.894852L0.834003 20.6998C0.57974 20.8505 0.369115 21.0648 0.222873 21.3217C0.0766313 21.5785 -0.00018162 21.869 3.22467e-07 22.1646V28.982C3.22467e-07 29.924 0.762412 30.6818 1.7046 30.6818H6.81824V61.3651C3.0578 61.3651 3.22467e-07 64.4226 3.22467e-07 68.1825V73.2957C-0.000125737 73.5196 0.0438802 73.7413 0.129502 73.9481C0.215123 74.155 0.340681 74.3429 0.498995 74.5012C0.657309 74.6595 0.845273 74.7851 1.05214 74.8707C1.25901 74.9563 1.48072 75.0003 1.7046 75.0001H73.2956C73.5194 75.0003 73.7411 74.9563 73.948 74.8707C74.1549 74.7851 74.3428 74.6595 74.5012 74.5012C74.6595 74.3429 74.785 74.155 74.8707 73.9481C74.9563 73.7413 75.0003 73.5196 75.0002 73.2957V68.1825C75.0002 64.4226 71.9424 61.3651 68.1819 61.3651V30.6818H73.2956ZM71.591 68.1819V71.5909H3.40904V68.1819C3.40904 66.3026 4.93882 64.7728 6.81808 64.7728H68.1819C70.0612 64.7727 71.591 66.3025 71.591 68.1819ZM10.2273 61.3636V30.6818H17.0455V61.3636H10.2273ZM20.4546 61.3636V30.6818H30.6818V61.3636H20.4546ZM34.0909 61.3636V30.6818H40.9091V61.3636H34.0909ZM44.3182 61.3636V30.6818H54.5454V61.3636H44.3182ZM57.9546 61.3636V30.6818H64.7729V61.3636H57.9546ZM3.40904 27.2728V23.1296L35.8671 3.84686C36.9291 3.26263 38.0576 3.26423 39.1064 3.83519L71.591 23.1296V27.2728H3.40904Z" fill="white"/>
</g>
<defs>
<clipPath id="clip0_1274_1246">
<rect width="75" height="75" fill="white"/>
</clipPath>
</defs>
</svg>
