<svg width="75" height="75" viewBox="0 0 75 75" fill="none" xmlns="http://www.w3.org/2000/svg">
<path d="M0 37.5001C0 38.581 0.876423 39.4576 1.95753 39.4576C3.03863 39.4576 3.91505 38.581 3.91505 37.5001H0ZM3.91505 37.5001C3.91505 19.1212 18.8141 4.22215 37.193 4.22215V0.307098C16.6518 0.307098 0 16.9589 0 37.5001H3.91505ZM37.193 4.22215C50.2563 4.22215 61.565 11.7488 67.0127 22.7111L70.5187 20.9687C64.4351 8.72689 51.7993 0.307098 37.193 0.307098V4.22215Z" fill="white"/>
<path d="M70.3597 0V22.1469H48.2126" stroke="white" stroke-width="3" stroke-linecap="round" stroke-linejoin="round"/>
<path d="M74.386 37.5001C74.386 36.4191 73.5094 35.5425 72.4285 35.5425C71.3476 35.5425 70.471 36.4191 70.471 37.5001H74.386ZM70.471 37.5001C70.471 55.8789 55.5719 70.778 37.193 70.778V74.6931C57.7341 74.6931 74.386 58.0412 74.386 37.5001H70.471ZM37.193 70.778C24.1298 70.778 12.8209 63.2513 7.37319 52.2892L3.86719 54.0314C9.95086 66.2733 22.5869 74.6931 37.193 74.6931V70.778Z" fill="white"/>
<path d="M4.02637 75V52.8533H26.1732" stroke="white" stroke-width="3" stroke-linecap="round" stroke-linejoin="round"/>
</svg>
