<svg width="75" height="75" viewBox="0 0 75 75" fill="none" xmlns="http://www.w3.org/2000/svg">
<path d="M66.0579 36.9618C66.0579 37.2726 65.9344 37.5707 65.7146 37.7905C65.4949 38.0102 65.1968 38.1337 64.886 38.1337H9.17187C8.86107 38.1337 8.563 38.0102 8.34323 37.7905C8.12346 37.5707 8 37.2726 8 36.9618C8 36.651 8.12346 36.3529 8.34323 36.1332C8.563 35.9134 8.86107 35.7899 9.17187 35.7899H64.886C65.1968 35.7899 65.4949 35.9134 65.7146 36.1332C65.9344 36.3529 66.0579 36.651 66.0579 36.9618ZM9.17187 45.2102H54.3283C54.6391 45.2102 54.9371 45.0867 55.1569 44.867C55.3767 44.6472 55.5001 44.3491 55.5001 44.0383C55.5001 43.7275 55.3767 43.4295 55.1569 43.2097C54.9371 42.9899 54.6391 42.8665 54.3283 42.8665H9.17187C8.86107 42.8665 8.563 42.9899 8.34323 43.2097C8.12346 43.4295 8 43.7275 8 44.0383C8 44.3491 8.12346 44.6472 8.34323 44.867C8.563 45.0867 8.86107 45.2102 9.17187 45.2102ZM28.8773 20.353C29.2025 21.403 29.0224 22.4687 28.3701 23.3536C27.7176 24.2385 26.753 24.7258 25.6538 24.7258H11.4473C10.3481 24.7258 9.38349 24.2385 8.73105 23.3536C8.07861 22.4685 7.89858 21.403 8.22378 20.3528C9.21167 17.1627 11.5475 14.7082 14.498 13.5248C13.2756 12.4179 12.5062 10.8193 12.5062 9.04438C12.5061 5.71143 15.2177 3 18.5505 3C21.8833 3 24.5949 5.71143 24.5949 9.04438C24.5949 10.8195 23.8255 12.4181 22.603 13.5249C25.5536 14.7083 27.8895 17.1628 28.8773 20.353ZM14.8499 9.04438C14.8499 11.0849 16.51 12.745 18.5505 12.745C20.591 12.745 22.2511 11.0849 22.2511 9.04438C22.2511 7.00386 20.591 5.34375 18.5505 5.34375C16.51 5.34375 14.8499 7.00386 14.8499 9.04438ZM26.6385 21.0463C25.535 17.4829 22.2847 15.0888 18.5505 15.0888C14.8163 15.0888 11.566 17.4829 10.4626 21.0461C10.3589 21.3809 10.4096 21.6807 10.6176 21.9628C10.8255 22.245 11.0969 22.3821 11.4473 22.3821H25.6537C26.0041 22.3821 26.2755 22.245 26.4833 21.9628C26.6914 21.6807 26.742 21.3809 26.6385 21.0463ZM37.1719 18.573H54.3283C54.6391 18.573 54.9371 18.4496 55.1569 18.2298C55.3767 18.01 55.5001 17.712 55.5001 17.4012C55.5001 17.0904 55.3767 16.7923 55.1569 16.5725C54.9371 16.3528 54.6391 16.2293 54.3283 16.2293H37.1719C36.8611 16.2293 36.563 16.3528 36.3432 16.5725C36.1235 16.7923 36 17.0904 36 17.4012C36 17.712 36.1235 18.01 36.3432 18.2298C36.563 18.4496 36.8611 18.573 37.1719 18.573ZM37.1719 11.4965H64.886C65.1968 11.4965 65.4949 11.3731 65.7146 11.1533C65.9344 10.9335 66.0579 10.6355 66.0579 10.3247C66.0579 10.0139 65.9344 9.71579 65.7146 9.49602C65.4949 9.27625 65.1968 9.15278 64.886 9.15278H37.1719C36.8611 9.15278 36.563 9.27625 36.3432 9.49602C36.1235 9.71579 36 10.0139 36 10.3247C36 10.6355 36.1235 10.9335 36.3432 11.1533C36.563 11.3731 36.8611 11.4965 37.1719 11.4965ZM64.886 62.427H9.17187C8.86107 62.427 8.563 62.5504 8.34323 62.7702C8.12346 62.99 8 63.288 8 63.5988C8 63.9096 8.12346 64.2077 8.34323 64.4275C8.563 64.6472 8.86107 64.7707 9.17187 64.7707H64.886C65.1968 64.7707 65.4949 64.6472 65.7146 64.4275C65.9344 64.2077 66.0579 63.9096 66.0579 63.5988C66.0579 63.288 65.9344 62.99 65.7146 62.7702C65.4949 62.5504 65.1968 62.427 64.886 62.427ZM54.3283 69.5035H9.17187C8.86107 69.5035 8.563 69.6269 8.34323 69.8467C8.12346 70.0665 8 70.3645 8 70.6753C8 70.9861 8.12346 71.2842 8.34323 71.504C8.563 71.7238 8.86107 71.8472 9.17187 71.8472H54.3283C54.6391 71.8472 54.9371 71.7238 55.1569 71.504C55.3767 71.2842 55.5001 70.9861 55.5001 70.6753C55.5001 70.3645 55.3767 70.0665 55.1569 69.8467C54.9371 69.6269 54.6391 69.5035 54.3283 69.5035Z" fill="white" stroke="white"/>
</svg>
