<svg width="75" height="75" viewBox="0 0 75 75" fill="none" xmlns="http://www.w3.org/2000/svg">
<g clip-path="url(#clip0_1274_1202)">
<g clip-path="url(#clip1_1274_1202)">
<path d="M39.3179 59.8425C40.0937 59.8426 40.7221 60.471 40.7222 61.2468V64.9099C40.7222 65.6857 40.0937 66.315 39.3179 66.3151C38.542 66.3151 37.9126 65.6857 37.9126 64.9099V61.2468C37.9126 60.4709 38.542 59.8425 39.3179 59.8425ZM51.2896 54.8249C51.8154 54.3224 52.63 54.3086 53.1714 54.7712L53.2759 54.8698L55.9282 57.5222C56.4637 58.0831 56.4431 58.9716 55.8823 59.5075C55.3214 60.0435 54.432 60.0236 53.896 59.4626L53.8882 59.4548L51.2983 56.864L51.2446 56.8102L51.1509 56.7018C50.7134 56.1401 50.7639 55.3275 51.2896 54.8249ZM53.8569 26.9518C54.21 26.9509 54.55 27.0832 54.8101 27.322H54.811C55.3804 27.845 55.4191 28.7289 54.8999 29.3005L44.8003 39.4011L44.5366 39.6647L44.7134 39.9919C45.1958 40.8867 45.4482 41.8875 45.4478 42.904C45.446 46.2896 42.6996 49.0327 39.314 49.0309C35.9286 49.0289 33.1863 46.2835 33.188 42.8981L33.1831 42.8962C33.1844 41.8841 33.4362 40.8877 33.9165 39.9968C35.5221 37.0182 39.2386 35.9051 42.2173 37.5104L42.5454 37.6872L42.8081 37.4235L52.9106 27.321C53.1687 27.0842 53.5065 26.9528 53.8569 26.9518ZM39.3169 39.5768C37.4842 39.5789 35.9995 41.0644 35.9976 42.8972V42.8981C35.9978 44.7318 37.4842 46.2184 39.3179 46.2184C41.1515 46.2183 42.6379 44.7317 42.6382 42.8981C42.6382 41.0644 41.1516 39.5769 39.3179 39.5768H39.3169ZM57.6636 41.4929H61.3267C62.1026 41.4929 62.7319 42.1222 62.7319 42.8981C62.7317 43.6738 62.1024 44.3024 61.3267 44.3024H57.6636C56.888 44.3022 56.2595 43.6737 56.2593 42.8981C56.2593 42.1223 56.8878 41.493 57.6636 41.4929ZM39.3179 19.4821C40.0937 19.4822 40.7222 20.1116 40.7222 20.8874V24.5505C40.7219 25.3261 40.0935 25.9547 39.3179 25.9548C38.5421 25.9548 37.9128 25.3262 37.9126 24.5505V20.8874C37.9126 20.1115 38.542 19.4821 39.3179 19.4821Z" fill="white" stroke="white"/>
<path d="M30.6874 0.5H47.9491C48.725 0.5 49.3544 1.12938 49.3544 1.90527C49.3541 2.68096 48.7248 3.30957 47.9491 3.30957H40.7235V11.3008L41.1962 11.3271C48.2856 11.7289 55.0285 14.526 60.3212 19.2598L60.6737 19.5752L61.0077 19.2402L65.0536 15.1953L65.4071 14.8418L65.0536 14.4883L63.0155 12.4492C62.5047 11.9058 62.5072 11.0568 63.0233 10.5166C63.5258 9.99085 64.3385 9.94075 64.9003 10.3779L65.0096 10.4717L71.7528 17.2139L71.7626 17.2227C71.7774 17.2368 71.7914 17.2518 71.8055 17.2666L71.8065 17.2676C72.3424 17.8285 72.3226 18.7179 71.7616 19.2539C71.2007 19.7898 70.3113 19.769 69.7753 19.208L69.7675 19.2002L67.7489 17.1768L67.3954 16.8223L62.661 21.5566L62.9735 21.9082C74.0564 34.4186 73.4897 53.3935 61.6805 65.2207C49.3406 77.5793 29.3186 77.5949 16.9598 65.2549C16.4492 64.7115 16.4516 63.8624 16.9677 63.3223C17.4702 62.7963 18.2837 62.746 18.8456 63.1836L18.954 63.2773C30.189 74.5038 48.4625 74.5012 59.6942 63.2695C70.9284 52.0352 70.9284 33.7558 59.6942 22.5215L59.6923 22.5205C48.4427 11.2723 30.2063 11.2699 18.954 22.5137C18.4111 23.0323 17.5566 23.0324 17.0135 22.5137C16.4551 21.9801 16.4323 21.0965 16.9608 20.5352C22.4189 15.0465 29.7131 11.7678 37.4413 11.3301L37.913 11.3037V3.30957H30.6874C29.9117 3.30951 29.2833 2.68092 29.2831 1.90527C29.2831 1.12941 29.9115 0.500061 30.6874 0.5Z" fill="white" stroke="white"/>
<path d="M4.20966 53.7069H21.6774C22.4533 53.7069 23.0827 54.3363 23.0827 55.1122C23.0826 55.888 22.4532 56.5165 21.6774 56.5165H4.20966C3.43385 56.5165 2.80453 55.888 2.80438 55.1122C2.80438 54.3363 3.43376 53.7069 4.20966 53.7069ZM8.64716 41.493H26.1179C26.8934 41.4933 27.522 42.1218 27.5222 42.8973C27.5222 43.6731 26.8935 44.3024 26.1179 44.3026H8.64716C7.87137 44.3025 7.24286 43.6732 7.24286 42.8973C7.24305 42.1217 7.87149 41.4932 8.64716 41.493ZM4.20966 29.2772H21.6774C22.4533 29.2772 23.0827 29.9066 23.0827 30.6825C23.0825 31.4582 22.4532 32.0868 21.6774 32.0868H4.20966C3.43391 32.0868 2.80463 31.4582 2.80438 30.6825C2.80438 29.9066 3.43376 29.2772 4.20966 29.2772Z" fill="white" stroke="white"/>
</g>
</g>
<defs>
<clipPath id="clip0_1274_1202">
<rect width="75" height="75" fill="white"/>
</clipPath>
<clipPath id="clip1_1274_1202">
<rect width="75" height="75" fill="white"/>
</clipPath>
</defs>
</svg>
