<svg width="75" height="75" viewBox="0 0 75 75" fill="none" xmlns="http://www.w3.org/2000/svg">
<g clip-path="url(#clip0_1274_1360)">
<path d="M44.5312 14.0625H16.4062C15.1125 14.0625 14.0625 15.1125 14.0625 16.4062C14.0625 17.7 15.1125 18.75 16.4062 18.75H44.5312C45.825 18.75 46.875 17.7 46.875 16.4062C46.875 15.1125 45.825 14.0625 44.5312 14.0625ZM35.1562 23.4375H16.4062C15.1125 23.4375 14.0625 24.4875 14.0625 25.7812C14.0625 27.075 15.1125 28.125 16.4062 28.125H35.1562C36.45 28.125 37.5 27.075 37.5 25.7812C37.5 24.4875 36.45 23.4375 35.1562 23.4375Z" fill="white"/>
<path d="M51.5625 0H9.375C4.20469 0 0 4.20469 0 9.375V56.25C0 57.1594 0.525 57.9891 1.35 58.3734C1.66146 58.5177 2.00048 58.5929 2.34375 58.5938C2.88281 58.5938 3.41719 58.4062 3.84375 58.05L17.2547 46.875H51.5625C56.7328 46.875 60.9375 42.6703 60.9375 37.5V9.375C60.9375 4.20469 56.7328 0 51.5625 0ZM56.25 37.5C56.25 40.0828 54.15 42.1875 51.5625 42.1875H16.4062C15.8578 42.1875 15.3281 42.3797 14.9062 42.7313L4.6875 51.2484V9.375C4.6875 6.79219 6.7875 4.6875 9.375 4.6875H51.5625C54.15 4.6875 56.25 6.79219 56.25 9.375V37.5Z" fill="white"/>
<path d="M65.625 18.75C64.3312 18.75 63.2812 19.8 63.2812 21.0938C63.2812 22.3875 64.3312 23.4375 65.625 23.4375C68.2125 23.4375 70.3125 25.5422 70.3125 28.125V67.7766L62.4 61.4484C61.9838 61.1185 61.4686 60.9385 60.9375 60.9375H28.125C25.5375 60.9375 23.4375 58.8328 23.4375 56.25V53.9062C23.4375 52.6125 22.3875 51.5625 21.0938 51.5625C19.8 51.5625 18.75 52.6125 18.75 53.9062V56.25C18.75 61.4203 22.9547 65.625 28.125 65.625H60.1125L71.1891 74.4891C71.6067 74.8196 72.1236 74.9996 72.6562 75C72.9984 75 73.3453 74.925 73.6734 74.7703C74.0707 74.578 74.4058 74.2777 74.6404 73.9038C74.875 73.53 74.9996 73.0976 75 72.6562V28.125C75 22.9547 70.7953 18.75 65.625 18.75Z" fill="white"/>
</g>
<defs>
<clipPath id="clip0_1274_1360">
<rect width="75" height="75" fill="white"/>
</clipPath>
</defs>
</svg>
