<svg width="75" height="73" viewBox="0 0 75 73" fill="none" xmlns="http://www.w3.org/2000/svg">
<path d="M69.7336 31.6988C69.4665 23.5467 66.0983 15.8039 60.3164 10.0508C54.2192 3.95233 46.1157 0.59491 37.5 0.59491C20.0989 0.59491 5.88049 14.4453 5.2676 31.6988C3.92585 32.2932 2.78527 33.2639 1.98406 34.4934C1.18285 35.7228 0.755416 37.1583 0.75354 38.6258V47.1359C0.755711 49.1455 1.55498 51.0722 2.97598 52.4932C4.39697 53.9142 6.32364 54.7134 8.33323 54.7156C9.63345 54.7141 10.88 54.1969 11.7994 53.2775C12.7188 52.3581 13.236 51.1115 13.2375 49.8113V35.9492C13.2375 33.4098 11.2899 31.339 8.8137 31.093C9.72776 16.0613 22.241 4.11053 37.5 4.11053C45.1781 4.11053 52.3981 7.1035 57.8321 12.5375C62.8219 17.5273 65.7422 24.0312 66.1817 31.0941C63.7078 31.3426 61.7637 33.4121 61.7637 35.9492V49.8101C61.7637 52.3707 63.7418 54.4543 66.2473 54.6711V58.1738C66.2451 60.0705 65.4906 61.8888 64.1494 63.2299C62.8081 64.5709 60.9897 65.3251 59.093 65.3269H53.7949C53.4378 64.2856 52.7634 63.3822 51.8666 62.7437C50.9698 62.1052 49.8955 61.7635 48.7946 61.7668H43.3336C42.5496 61.7668 41.7973 61.9332 41.1082 62.2543C40.1856 62.6806 39.404 63.3618 38.8559 64.2177C38.3077 65.0736 38.0158 66.0684 38.0145 67.0848C38.0145 68.5074 38.5688 69.8433 39.5731 70.843C40.0653 71.3392 40.6512 71.7327 41.2968 72.0006C41.9423 72.2686 42.6347 72.4057 43.3336 72.4039H48.7946C51.0586 72.4039 53.0543 70.9402 53.7985 68.8426H59.093C64.977 68.8426 69.7629 64.0566 69.7629 58.1738V54.0453C71.0967 53.4476 72.2294 52.4773 73.0248 51.2512C73.8202 50.025 74.2445 48.5951 74.2465 47.1336V38.6234C74.2465 35.5367 72.3879 32.8789 69.7336 31.6988ZM9.72073 35.9492V49.8101C9.72073 50.5754 9.09846 51.1988 8.33206 51.1988C7.25458 51.1976 6.22159 50.769 5.4597 50.0071C4.69781 49.2452 4.26923 48.2122 4.26799 47.1348V38.6246C4.26923 37.5471 4.69781 36.5141 5.4597 35.7522C6.22159 34.9904 7.25458 34.5618 8.33206 34.5605C9.09846 34.5605 9.72073 35.184 9.72073 35.9492ZM50.5582 67.4621C50.4709 67.8657 50.2483 68.2273 49.9273 68.4871C49.6064 68.7469 49.2063 68.8893 48.7934 68.8906H43.3324C42.852 68.8906 42.4008 68.7031 42.0563 68.3586C41.8886 68.1921 41.7556 67.994 41.6651 67.7757C41.5746 67.5575 41.5283 67.3234 41.5289 67.0871C41.5302 66.6093 41.7206 66.1514 42.0586 65.8136C42.3966 65.4758 42.8546 65.2857 43.3324 65.2848H48.7934C49.2739 65.2848 49.725 65.4711 50.0684 65.8156C50.4082 66.1543 50.5957 66.6066 50.5957 67.0871C50.5969 67.216 50.5828 67.3449 50.5582 67.4621ZM70.7309 47.1348C70.7296 48.2122 70.3011 49.2452 69.5392 50.0071C68.7773 50.769 67.7443 51.1976 66.6668 51.1988C66.2986 51.1985 65.9456 51.0521 65.6852 50.7917C65.4249 50.5314 65.2785 50.1783 65.2781 49.8101V35.9492C65.2781 35.184 65.9004 34.5605 66.6668 34.5605C67.7443 34.5618 68.7773 34.9904 69.5392 35.7522C70.3011 36.5141 70.7296 37.5471 70.7309 38.6246V47.1348Z" fill="white"/>
<path d="M48.8825 47.7406C50.8573 47.7385 52.7505 46.953 54.1469 45.5566C55.5433 44.1603 56.3287 42.267 56.3309 40.2922V25.1152C56.3309 23.1301 55.5551 21.2598 54.1465 19.8512C52.7379 18.4426 50.8688 17.6668 48.8825 17.6668H26.1176C24.1428 17.669 22.2496 18.4544 20.8532 19.8508C19.4568 21.2472 18.6714 23.1405 18.6692 25.1152V40.2922C18.6714 42.267 19.4568 44.1603 20.8532 45.5566C22.2496 46.953 24.1428 47.7385 26.1176 47.7406H26.2571V51.6735C26.2548 52.1537 26.3474 52.6296 26.5297 53.0739C26.712 53.5182 26.9803 53.9221 27.3192 54.2623C27.6581 54.6025 28.061 54.8724 28.5045 55.0564C28.9481 55.2404 29.4237 55.3349 29.904 55.3344C30.3839 55.3354 30.8591 55.2397 31.3012 55.053C31.7433 54.8664 32.1433 54.5926 32.4774 54.2481L39.02 47.7406H48.8825ZM37.0571 44.7359L29.9766 51.7777C29.945 51.8106 29.9215 51.8352 29.8547 51.8059C29.7739 51.7731 29.7739 51.7203 29.7739 51.6735V45.9828C29.7739 45.5166 29.5887 45.0695 29.259 44.7399C28.9294 44.4102 28.4823 44.225 28.0161 44.225H26.1188C25.0761 44.2238 24.0765 43.809 23.3393 43.0717C22.602 42.3345 22.1872 41.3349 22.186 40.2922V25.1152C22.1872 24.0726 22.602 23.073 23.3393 22.3357C24.0765 21.5984 25.0761 21.1837 26.1188 21.1824H48.8836C49.9313 21.1824 50.9168 21.5926 51.6622 22.3367C52.4075 23.082 52.8165 24.0688 52.8165 25.1152V40.2922C52.8152 41.3349 52.4005 42.3345 51.6632 43.0717C50.9259 43.809 49.9263 44.2238 48.8836 44.225H38.2969C37.8317 44.225 37.3864 44.409 37.0571 44.7359Z" fill="white"/>
<path d="M28.9605 30.391C27.5309 30.391 26.3672 31.5558 26.3672 32.9843C26.3672 34.4129 27.532 35.5777 28.9605 35.5777C30.3914 35.5777 31.5562 34.4129 31.5562 32.9843C31.5562 31.5558 30.3926 30.391 28.9605 30.391ZM37.4988 30.391C36.0691 30.391 34.9055 31.5558 34.9055 32.9843C34.9055 34.4129 36.0703 35.5777 37.4988 35.5777C38.9309 35.5777 40.0945 34.4129 40.0945 32.9843C40.0945 31.5558 38.9309 30.391 37.4988 30.391ZM46.0371 30.391C44.6074 30.391 43.4437 31.5558 43.4437 32.9843C43.4437 34.4129 44.6086 35.5777 46.0371 35.5777C47.468 35.5777 48.6328 34.4129 48.6328 32.9843C48.6328 31.5558 47.468 30.391 46.0371 30.391Z" fill="white"/>
</svg>
