<svg width="75" height="59" viewBox="0 0 75 59" fill="none" xmlns="http://www.w3.org/2000/svg">
<path d="M50 11.853H67.647C68.4591 11.853 69.1176 11.1946 69.1176 10.3824C69.1176 9.57019 68.4591 8.91181 67.647 8.91181H50C49.1879 8.91181 48.5294 9.57019 48.5294 10.3824C48.5294 11.1946 49.1879 11.853 50 11.853ZM50 19.2059H67.647C68.4591 19.2059 69.1176 18.5475 69.1176 17.7353C69.1176 16.9231 68.4591 16.2648 67.647 16.2648H50C49.1879 16.2648 48.5294 16.9231 48.5294 17.7353C48.5294 18.5475 49.1879 19.2059 50 19.2059ZM50 26.5589H67.647C68.4591 26.5589 69.1176 25.9005 69.1176 25.0883C69.1176 24.2761 68.4591 23.6177 67.647 23.6177H50C49.1879 23.6177 48.5294 24.2761 48.5294 25.0883C48.5294 25.9005 49.1879 26.5589 50 26.5589ZM44.1176 50.0883H41.1764V36.853C41.1764 36.0409 40.5179 35.3824 39.7059 35.3824H33.8235C33.0113 35.3824 32.3529 36.0409 32.3529 36.853V50.0883H29.4117C28.5995 50.0883 27.9411 50.7468 27.9411 51.5589C27.9411 52.3709 28.5995 53.0295 29.4117 53.0295H67.647C68.4591 53.0295 69.1176 52.3709 69.1176 51.5589C69.1176 50.7468 68.4591 50.0883 67.647 50.0883H64.7059V30.9706C64.7059 30.1586 64.0473 29.5 63.2353 29.5H57.3529C56.5409 29.5 55.8823 30.1586 55.8823 30.9706V50.0883H52.9412V42.7353C52.9412 41.9233 52.2826 41.2648 51.4706 41.2648H45.5882C44.7761 41.2648 44.1176 41.9233 44.1176 42.7353V50.0883ZM35.2941 50.0883V38.3236H38.2353V50.0883H35.2941ZM58.8235 32.4412H61.7647V50.0883H58.8235V32.4412ZM47.0588 44.2059H50V50.0883H47.0588V44.2059ZM7.35291 28.0295C8.16512 28.0295 8.8235 27.3711 8.8235 26.5589C8.8235 17.6392 16.0803 10.3824 25 10.3824C28.7848 10.3824 32.2698 11.6895 35.0284 13.8752L26.7928 24.1696C26.2854 24.8039 26.3882 25.7292 27.0225 26.2367C27.2827 26.4455 27.6065 26.5593 27.9403 26.559C28.161 26.5594 28.379 26.5099 28.5779 26.4143C28.7769 26.3188 28.9518 26.1796 29.0895 26.0071L37.1667 15.9106C39.6617 18.7577 41.1764 22.4845 41.1764 26.5589C41.1764 27.3711 41.835 28.0295 42.647 28.0295C43.4591 28.0295 44.1176 27.3711 44.1176 26.5589C44.1176 21.5555 42.1847 16.9956 39.0273 13.5846L40.8541 11.3011C41.3614 10.6668 41.2586 9.74152 40.6244 9.23402C39.9901 8.72652 39.0647 8.82961 38.5573 9.46372L36.8647 11.5796C33.6026 8.99019 29.4789 7.44122 25 7.44122C14.4585 7.44122 5.88232 16.0174 5.88232 26.5589C5.88232 27.3711 6.54071 28.0295 7.35291 28.0295Z" fill="white"/>
<path d="M73.5294 0.0882568H1.47059C0.658382 0.0882568 0 0.746639 0 1.55885V57.4412C0 58.2533 0.658382 58.9118 1.47059 58.9118H73.5294C74.3415 58.9118 75 58.2533 75 57.4412V1.55885C75 0.746639 74.3415 0.0882568 73.5294 0.0882568ZM72.0588 55.9706H2.94118V3.02943H72.0588V55.9706Z" fill="white"/>
<path d="M7.35291 38.3236C7.73968 38.3236 8.11909 38.1662 8.39262 37.8925C8.66615 37.6192 8.8235 37.2397 8.8235 36.853C8.8235 36.4662 8.66615 36.0868 8.39262 35.8133C8.11909 35.5397 7.73968 35.3824 7.35291 35.3824C6.96615 35.3824 6.58674 35.5396 6.31321 35.8133C6.03968 36.0868 5.88232 36.4662 5.88232 36.853C5.88232 37.2397 6.03968 37.6192 6.31321 37.8925C6.58956 38.1674 6.96313 38.3223 7.35291 38.3236ZM7.35291 44.2059C7.73968 44.2059 8.11909 44.0486 8.39262 43.7749C8.66615 43.5015 8.8235 43.1221 8.8235 42.7353C8.8235 42.3486 8.66615 41.9691 8.39262 41.6956C8.11909 41.4221 7.73968 41.2647 7.35291 41.2647C6.96615 41.2647 6.58674 41.4219 6.31321 41.6956C6.03968 41.9691 5.88232 42.3486 5.88232 42.7353C5.88232 43.1221 6.03968 43.5015 6.31321 43.7749C6.58956 44.0498 6.96313 44.2046 7.35291 44.2059ZM7.35291 50.0883C7.73968 50.0883 8.11909 49.9309 8.39262 49.6572C8.66615 49.3839 8.8235 49.0044 8.8235 48.6177C8.8235 48.2309 8.66615 47.8515 8.39262 47.578C8.11909 47.3044 7.73968 47.1471 7.35291 47.1471C6.96615 47.1471 6.58674 47.3043 6.31321 47.578C6.03968 47.8515 5.88232 48.2309 5.88232 48.6177C5.88232 49.0044 6.03968 49.3839 6.31321 49.6572C6.58956 49.9321 6.96313 50.087 7.35291 50.0883ZM23.5294 35.3824H13.2353C12.4231 35.3824 11.7647 36.0409 11.7647 36.853C11.7647 37.665 12.4231 38.3236 13.2353 38.3236H23.5294C24.3416 38.3236 25 37.665 25 36.853C25 36.0409 24.3416 35.3824 23.5294 35.3824ZM23.5294 41.2647H13.2353C12.4231 41.2647 11.7647 41.9233 11.7647 42.7353C11.7647 43.5474 12.4231 44.2059 13.2353 44.2059H23.5294C24.3416 44.2059 25 43.5474 25 42.7353C25 41.9233 24.3416 41.2647 23.5294 41.2647ZM23.5294 47.1471H13.2353C12.4231 47.1471 11.7647 47.8056 11.7647 48.6177C11.7647 49.4297 12.4231 50.0883 13.2353 50.0883H23.5294C24.3416 50.0883 25 49.4297 25 48.6177C25 47.8056 24.3416 47.1471 23.5294 47.1471Z" fill="white"/>
</svg>
