<svg width="25" height="25" viewBox="0 0 25 25" fill="none" xmlns="http://www.w3.org/2000/svg">
<path d="M10.2711 12.0426C11.9255 12.0426 13.3579 11.4492 14.5286 10.2784C15.699 9.10794 16.2925 7.67572 16.2925 6.02113C16.2925 4.36703 15.6992 2.93466 14.5284 1.76372C13.3577 0.593358 11.9253 0 10.2711 0C8.61644 0 7.18417 0.593358 6.01366 1.76391C4.84315 2.93447 4.24955 4.36689 4.24955 6.02113C4.24955 7.67572 4.84311 9.10814 6.01371 10.2787C7.18461 11.449 8.61702 12.0426 10.271 12.0426H10.2711ZM7.04974 2.7998C7.94788 1.90161 9.00154 1.46504 10.2711 1.46504C11.5404 1.46504 12.5942 1.90161 13.4926 2.7998C14.3907 3.69814 14.8275 4.75194 14.8275 6.02108C14.8275 7.29061 14.3907 8.34427 13.4926 9.24261C12.5942 10.141 11.5404 10.5776 10.2711 10.5776C9.00189 10.5776 7.94832 10.1408 7.04974 9.24261C6.15135 8.34447 5.71459 7.29066 5.71459 6.02113C5.71459 4.75194 6.15135 3.69814 7.04974 2.7998ZM20.807 19.2237C20.7733 18.7366 20.705 18.2052 20.6045 17.6441C20.503 17.0787 20.3724 16.5443 20.2159 16.0558C20.0542 15.5509 19.8347 15.0524 19.5629 14.5746C19.2811 14.0787 18.9501 13.6468 18.5785 13.2915C18.19 12.9198 17.7143 12.6209 17.1642 12.4029C16.616 12.1861 16.0085 12.0762 15.3587 12.0762C15.1035 12.0762 14.8567 12.1809 14.38 12.4912C14.0412 12.7119 13.7014 12.9309 13.3606 13.1485C13.0331 13.3572 12.5894 13.5527 12.0414 13.7297C11.5068 13.9027 10.964 13.9904 10.428 13.9904C9.89246 13.9904 9.34959 13.9027 8.81458 13.7297C8.26722 13.5528 7.82337 13.3573 7.49642 13.1487C7.11703 12.9062 6.77377 12.685 6.47601 12.491C5.99974 12.1807 5.75292 12.076 5.49774 12.076C4.8477 12.076 4.24042 12.186 3.69242 12.4031C3.14272 12.6207 2.66684 12.9196 2.27793 13.2917C1.90639 13.6472 1.57529 14.0788 1.29375 14.5746C1.02236 15.0524 0.802635 15.5508 0.640868 16.056C0.484618 16.5445 0.354003 17.0787 0.252539 17.6441C0.151806 18.2045 0.0837401 18.736 0.0499511 19.2243C0.016748 19.7017 0 20.1986 0 20.7006C0 22.0056 0.414843 23.0621 1.23291 23.8412C2.04087 24.6102 3.10976 25 4.40995 25H16.4476C17.7474 25 18.8163 24.6101 19.6245 23.8413C20.4427 23.0626 20.8576 22.0058 20.8576 20.7004C20.8574 20.1967 20.8404 19.6998 20.807 19.2237ZM18.6144 22.7798C18.0805 23.2879 17.3717 23.5349 16.4474 23.5349H4.41C3.48554 23.5349 2.77675 23.2879 2.24306 22.78C1.71953 22.2816 1.46508 21.6013 1.46508 20.7006C1.46508 20.2321 1.48051 19.7696 1.51147 19.3256C1.54155 18.89 1.60317 18.4114 1.69458 17.9029C1.78476 17.4007 1.89956 16.9294 2.03613 16.5028C2.16718 16.0936 2.34589 15.6885 2.56752 15.2983C2.77905 14.9263 3.02241 14.6072 3.29096 14.3501C3.54218 14.1096 3.85883 13.9128 4.23188 13.7652C4.5769 13.6285 4.96469 13.5538 5.38563 13.5425C5.4369 13.5698 5.52831 13.6219 5.67631 13.7184C5.97748 13.9147 6.3246 14.1386 6.70838 14.3837C7.141 14.6595 7.69828 14.9086 8.36414 15.1235C9.04486 15.3436 9.73914 15.4554 10.4283 15.4554C11.1174 15.4554 11.8118 15.3436 12.4922 15.1237C13.1586 14.9084 13.7157 14.6595 14.1489 14.3833C14.5417 14.1323 14.8791 13.9149 15.1802 13.7184C15.3282 13.622 15.4196 13.5698 15.4709 13.5426C15.8921 13.5538 16.2798 13.6285 16.625 13.7651C16.9979 13.9128 17.3146 14.1098 17.5657 14.3501C17.8343 14.607 18.0777 14.9261 18.2892 15.2985C18.511 15.6885 18.69 16.0938 18.8208 16.5026C18.9575 16.9298 19.0725 17.4009 19.1626 17.9027C19.2537 18.4122 19.3155 18.8909 19.3457 19.3258V19.3262C19.3768 19.7685 19.3924 20.2308 19.3926 20.7006C19.3924 21.6015 19.138 22.2816 18.6144 22.7798H18.6144Z" fill="white"/>
</svg>
